<svg width="636" height="366" viewBox="0 0 636 366" fill="none" xmlns="http://www.w3.org/2000/svg">
<g clip-path="url(#clip0_70_2741)">
<path d="M137.804 324.881C156.071 324.881 170.879 310.05 170.879 291.754C170.879 273.458 156.071 258.627 137.804 258.627C119.536 258.627 104.728 273.458 104.728 291.754C104.728 310.05 119.536 324.881 137.804 324.881Z" fill="#F2F2F2"/>
<path d="M143.182 320.033C161.449 320.033 176.257 305.202 176.257 286.906C176.257 268.611 161.449 253.779 143.182 253.779C124.915 253.779 110.106 268.611 110.106 286.906C110.106 305.202 124.915 320.033 143.182 320.033Z" fill="#63FFBE"/>
<path d="M579.053 250.252H169.819V251.37H579.053V250.252Z" fill="#3F3D56"/>
<path d="M381.762 10.4301H236.509V7.43164H170.646V10.4301H24.7941C23.5039 10.4301 22.2262 10.6846 21.0342 11.1791C19.8421 11.6737 18.759 12.3985 17.8466 13.3123C16.9343 14.2261 16.2105 15.3109 15.7168 16.5048C15.223 17.6987 14.9689 18.9783 14.9689 20.2706V219.476C14.9689 222.086 16.004 224.588 17.8466 226.434C19.6892 228.279 22.1883 229.316 24.7941 229.316H381.762C384.368 229.316 386.867 228.279 388.71 226.434C390.552 224.588 391.587 222.086 391.587 219.476V20.2706C391.587 18.9783 391.333 17.6987 390.839 16.5048C390.346 15.3109 389.622 14.2261 388.71 13.3123C387.797 12.3985 386.714 11.6737 385.522 11.1791C384.33 10.6846 383.052 10.4301 381.762 10.4301Z" fill="#3F3D56"/>
<path d="M378.415 27.8203H28.1416V225.717H378.415V27.8203Z" fill="#63FFBE"/>
<path d="M202.979 22.4238C204.963 22.4238 206.571 20.8129 206.571 18.8257C206.571 16.8385 204.963 15.2275 202.979 15.2275C200.995 15.2275 199.386 16.8385 199.386 18.8257C199.386 20.8129 200.995 22.4238 202.979 22.4238Z" fill="#63FFBE"/>
<path opacity="0.1" d="M278.243 225.718H28.1417V27.8213L278.243 225.718Z" fill="black"/>
<path d="M82.9489 210.909C101.544 210.909 116.618 195.811 116.618 177.187C116.618 158.564 101.544 143.466 82.9489 143.466C64.3538 143.466 49.2795 158.564 49.2795 177.187C49.2795 195.811 64.3538 210.909 82.9489 210.909Z" fill="#F2F2F2"/>
<path d="M317.426 134.548H284.707V141.395H317.426V134.548Z" fill="#3F3D56"/>
<path d="M356.983 81.2354H245.151V84.17H356.983V81.2354Z" fill="#3F3D56"/>
<path d="M356.983 90.5283H245.151V93.463H356.983V90.5283Z" fill="#3F3D56"/>
<path d="M356.983 99.8213H245.151V102.756H356.983V99.8213Z" fill="#3F3D56"/>
<path d="M356.983 109.114H245.151V112.049H356.983V109.114Z" fill="#3F3D56"/>
<path d="M356.983 118.407H245.151V121.342H356.983V118.407Z" fill="#3F3D56"/>
<path d="M356.983 31.8359H343.309V45.5309H356.983V31.8359Z" fill="#F2F2F2"/>
<path d="M363.331 51.8894H346.727V35.2598H363.331V51.8894ZM347.449 51.1664H362.609V35.9828H347.449V51.1664Z" fill="#3F3D56"/>
<path d="M401.422 222.12H367.238V219.653C367.238 219.589 367.225 219.525 367.201 219.466C367.176 219.407 367.14 219.353 367.095 219.307C367.049 219.262 366.996 219.226 366.936 219.201C366.877 219.177 366.814 219.164 366.75 219.164H355.029C354.965 219.164 354.902 219.177 354.842 219.201C354.783 219.226 354.729 219.262 354.684 219.307C354.639 219.353 354.603 219.407 354.578 219.466C354.553 219.525 354.541 219.589 354.541 219.653V222.12H347.216V219.653C347.216 219.589 347.203 219.525 347.178 219.466C347.154 219.407 347.118 219.353 347.073 219.307C347.027 219.262 346.973 219.226 346.914 219.201C346.855 219.177 346.791 219.164 346.727 219.164H335.007C334.943 219.164 334.879 219.177 334.82 219.201C334.761 219.226 334.707 219.262 334.662 219.307C334.616 219.353 334.58 219.407 334.556 219.466C334.531 219.525 334.519 219.589 334.519 219.653V222.12H327.193V219.653C327.193 219.589 327.181 219.525 327.156 219.466C327.132 219.407 327.096 219.353 327.05 219.307C327.005 219.262 326.951 219.226 326.892 219.201C326.833 219.177 326.769 219.164 326.705 219.164H314.985C314.921 219.164 314.857 219.177 314.798 219.201C314.738 219.226 314.685 219.262 314.639 219.307C314.594 219.353 314.558 219.407 314.533 219.466C314.509 219.525 314.496 219.589 314.496 219.653V222.12H307.171V219.653C307.171 219.589 307.158 219.525 307.134 219.466C307.109 219.407 307.073 219.353 307.028 219.307C306.983 219.262 306.929 219.226 306.87 219.201C306.81 219.177 306.747 219.164 306.683 219.164H294.962C294.898 219.164 294.835 219.177 294.775 219.201C294.716 219.226 294.662 219.262 294.617 219.307C294.572 219.353 294.536 219.407 294.511 219.466C294.487 219.525 294.474 219.589 294.474 219.653V222.12H287.149V219.653C287.149 219.589 287.136 219.525 287.112 219.466C287.087 219.407 287.051 219.353 287.006 219.307C286.96 219.262 286.907 219.226 286.847 219.201C286.788 219.177 286.725 219.164 286.66 219.164H274.94C274.876 219.164 274.812 219.177 274.753 219.201C274.694 219.226 274.64 219.262 274.595 219.307C274.549 219.353 274.513 219.407 274.489 219.466C274.464 219.525 274.452 219.589 274.452 219.653V222.12H267.126V219.653C267.126 219.589 267.114 219.525 267.089 219.466C267.065 219.407 267.029 219.353 266.983 219.307C266.938 219.262 266.884 219.226 266.825 219.201C266.766 219.177 266.702 219.164 266.638 219.164H254.918C254.854 219.164 254.79 219.177 254.731 219.201C254.672 219.226 254.618 219.262 254.572 219.307C254.527 219.353 254.491 219.407 254.467 219.466C254.442 219.525 254.429 219.589 254.429 219.653V222.12H247.104V219.653C247.104 219.589 247.092 219.525 247.067 219.466C247.042 219.407 247.007 219.353 246.961 219.307C246.916 219.262 246.862 219.226 246.803 219.201C246.743 219.177 246.68 219.164 246.616 219.164H154.806C154.742 219.164 154.679 219.177 154.62 219.201C154.56 219.226 154.506 219.262 154.461 219.307C154.416 219.353 154.38 219.407 154.355 219.466C154.331 219.525 154.318 219.589 154.318 219.653V222.12H146.993V219.653C146.993 219.589 146.98 219.525 146.956 219.466C146.931 219.407 146.895 219.353 146.85 219.307C146.804 219.262 146.751 219.226 146.691 219.201C146.632 219.177 146.569 219.164 146.504 219.164H134.784C134.72 219.164 134.656 219.177 134.597 219.201C134.538 219.226 134.484 219.262 134.439 219.307C134.393 219.353 134.357 219.407 134.333 219.466C134.308 219.525 134.296 219.589 134.296 219.653V222.12H126.971V219.653C126.971 219.589 126.958 219.525 126.933 219.466C126.909 219.407 126.873 219.353 126.828 219.307C126.782 219.262 126.728 219.226 126.669 219.201C126.61 219.177 126.546 219.164 126.482 219.164H114.762C114.698 219.164 114.634 219.177 114.575 219.201C114.516 219.226 114.462 219.262 114.417 219.307C114.371 219.353 114.335 219.407 114.311 219.466C114.286 219.525 114.273 219.589 114.273 219.653V222.12H106.948V219.653C106.948 219.589 106.936 219.525 106.911 219.466C106.887 219.407 106.851 219.353 106.805 219.307C106.76 219.262 106.706 219.226 106.647 219.201C106.588 219.177 106.524 219.164 106.46 219.164H94.7395C94.6754 219.164 94.6119 219.177 94.5527 219.201C94.4934 219.226 94.4396 219.262 94.3942 219.307C94.3489 219.353 94.3129 219.407 94.2884 219.466C94.2638 219.525 94.2512 219.589 94.2512 219.653V222.12H86.926V219.653C86.926 219.589 86.9134 219.525 86.8888 219.466C86.8643 219.407 86.8283 219.353 86.783 219.307C86.7376 219.262 86.6838 219.226 86.6245 219.201C86.5653 219.177 86.5018 219.164 86.4377 219.164H74.7173C74.6531 219.164 74.5896 219.177 74.5304 219.201C74.4711 219.226 74.4173 219.262 74.3719 219.307C74.3266 219.353 74.2906 219.407 74.2661 219.466C74.2416 219.525 74.2289 219.589 74.2289 219.653V222.12H66.9037V219.653C66.9037 219.589 66.8911 219.525 66.8665 219.466C66.842 219.407 66.806 219.353 66.7607 219.307C66.7153 219.262 66.6615 219.226 66.6022 219.201C66.543 219.177 66.4795 219.164 66.4154 219.164H54.695C54.6309 219.164 54.5674 219.177 54.5081 219.201C54.4489 219.226 54.395 219.262 54.3497 219.307C54.3043 219.353 54.2684 219.407 54.2438 219.466C54.2193 219.525 54.2066 219.589 54.2067 219.653V222.12H46.8814V219.653C46.8814 219.589 46.8688 219.525 46.8443 219.466C46.8197 219.407 46.7837 219.353 46.7384 219.307C46.6931 219.262 46.6392 219.226 46.58 219.201C46.5207 219.177 46.4572 219.164 46.3931 219.164H34.6727C34.6086 219.164 34.5451 219.177 34.4858 219.201C34.4266 219.226 34.3728 219.262 34.3274 219.307C34.2821 219.353 34.2461 219.407 34.2215 219.466C34.197 219.525 34.1844 219.589 34.1844 219.653V222.12H11.7204C8.61193 222.12 5.63081 223.357 3.43282 225.558C1.23482 227.76 2.96141e-06 230.745 0 233.859V239.166C8.88422e-06 242.28 1.23483 245.265 3.43283 247.467C5.63082 249.668 8.61193 250.905 11.7204 250.905H401.422C404.531 250.905 407.512 249.668 409.71 247.467C411.908 245.265 413.143 242.28 413.143 239.166V233.859C413.143 230.745 411.908 227.76 409.71 225.558C407.512 223.357 404.531 222.12 401.422 222.12Z" fill="#3F3D56"/>
<path d="M91.0987 198.249C82.7067 198.249 74.5031 195.757 67.5254 191.088C60.5477 186.418 55.1092 179.781 51.8977 172.016C48.6862 164.25 47.846 155.706 49.4832 147.462C51.1204 139.218 55.1615 131.646 61.0956 125.703C67.0296 119.76 74.5901 115.712 82.8209 114.072C91.0517 112.433 99.5831 113.274 107.336 116.491C115.09 119.707 121.716 125.154 126.379 132.143C131.041 139.131 133.53 147.348 133.53 155.753C133.517 167.02 129.042 177.821 121.088 185.788C113.133 193.755 102.348 198.237 91.0987 198.249ZM91.0987 114.374C82.9275 114.374 74.9398 116.801 68.1458 121.348C61.3517 125.894 56.0563 132.357 52.9293 139.918C49.8023 147.479 48.9842 155.799 50.5783 163.825C52.1724 171.852 56.1072 179.225 61.8851 185.012C67.663 190.799 75.0245 194.739 83.0387 196.336C91.0529 197.933 99.3598 197.113 106.909 193.981C114.458 190.85 120.911 185.546 125.45 178.741C129.99 171.937 132.413 163.937 132.413 155.753C132.401 144.782 128.044 134.265 120.299 126.507C112.553 118.75 102.052 114.387 91.0987 114.374Z" fill="#3F3D56"/>
<path d="M469.626 18.1973H327.26V19.3156H469.626V18.1973Z" fill="#3F3D56"/>
<path d="M636 313.438H226.766V314.557H636V313.438Z" fill="#3F3D56"/>
<path d="M249.935 364.882H107.569V366H249.935V364.882Z" fill="#3F3D56"/>
<path d="M278.592 307.543H262.96V323.2H278.592V307.543Z" fill="#63FFBE"/>
<path d="M288.083 314.253H269.101V295.241H288.083V314.253ZM269.926 313.426H287.258V296.068H269.926V313.426Z" fill="#3F3D56"/>
<path d="M460.04 12.3018H444.407V27.9585H460.04V12.3018Z" fill="#63FFBE"/>
<path d="M469.531 19.0117H450.549V0H469.531V19.0117ZM451.374 18.1851H468.706V0.826599H451.374V18.1851Z" fill="#3F3D56"/>
<path d="M617.481 307.543H601.848V323.2H617.481V307.543Z" fill="#63FFBE"/>
<path d="M626.972 314.253H607.99V295.241H626.972V314.253ZM608.815 313.426H626.146V296.068H608.815V313.426Z" fill="#3F3D56"/>
<path d="M590.22 129.703H588.892V93.2671C588.892 90.4977 588.347 87.7554 587.289 85.1969C586.231 82.6383 584.68 80.3136 582.725 78.3553C580.769 76.3971 578.448 74.8437 575.894 73.7839C573.339 72.7242 570.601 72.1787 567.836 72.1787H490.761C487.996 72.1787 485.257 72.7242 482.703 73.7839C480.148 74.8437 477.827 76.3971 475.872 78.3553C473.917 80.3136 472.366 82.6383 471.308 85.1969C470.25 87.7554 469.705 90.4977 469.705 93.2671V293.159C469.705 295.929 470.25 298.671 471.308 301.23C472.366 303.788 473.917 306.113 475.872 308.071C477.827 310.029 480.148 311.583 482.703 312.643C485.257 313.702 487.996 314.248 490.761 314.248H567.836C570.601 314.248 573.339 313.702 575.894 312.643C578.448 311.583 580.769 310.029 582.725 308.071C584.68 306.113 586.231 303.788 587.289 301.23C588.347 298.671 588.892 295.929 588.892 293.159V155.639H590.22V129.703Z" fill="#3F3D56"/>
<path d="M584.408 94.5069V294.108C584.408 298.285 582.752 302.291 579.804 305.245C576.856 308.199 572.856 309.859 568.686 309.86H491.238C487.068 309.859 483.069 308.199 480.12 305.245C477.172 302.291 475.516 298.285 475.517 294.108V94.5069C475.517 90.3309 477.174 86.3261 480.122 83.3732C483.07 80.4203 487.069 78.7612 491.238 78.7607H500.635C500.172 79.8968 499.996 81.1292 500.121 82.3496C500.246 83.57 500.669 84.7408 501.353 85.7589C502.036 86.777 502.959 87.6112 504.04 88.1879C505.121 88.7647 506.327 89.0663 507.552 89.0662H551.708C552.933 89.0663 554.139 88.7647 555.22 88.1879C556.301 87.6112 557.224 86.777 557.908 85.7589C558.591 84.7408 559.014 83.57 559.139 82.3496C559.264 81.1292 559.088 79.8968 558.625 78.7607H568.686C572.855 78.7612 576.854 80.4203 579.802 83.3732C582.751 86.3261 584.407 90.3309 584.408 94.5069Z" fill="#63FFBE"/>
<path d="M541.498 210.369H518.427V217.217H541.498V210.369Z" fill="#3F3D56"/>
<path d="M569.39 157.057H490.535V159.991H569.39V157.057Z" fill="#3F3D56"/>
<path d="M569.39 166.35H490.535V169.284H569.39V166.35Z" fill="#3F3D56"/>
<path d="M569.39 175.643H490.535V178.577H569.39V175.643Z" fill="#3F3D56"/>
<path d="M569.39 184.936H490.535V187.87H569.39V184.936Z" fill="#3F3D56"/>
<path d="M569.39 194.229H490.535V197.163H569.39V194.229Z" fill="#3F3D56"/>
<path d="M532.717 118.085H519.043V131.78H532.717V118.085Z" fill="#F2F2F2"/>
<path d="M524.278 121.509V138.138H540.881V121.509H524.278ZM540.161 137.417H524.998V122.23H540.161V137.417Z" fill="#3F3D56"/>
<path opacity="0.1" d="M584.408 272.792V294.108C584.408 298.285 582.752 302.291 579.804 305.245C576.856 308.199 572.856 309.859 568.686 309.859H491.238C487.068 309.859 483.069 308.199 480.12 305.245C477.172 302.291 475.516 298.285 475.517 294.108V186.63L540.765 238.258L541.882 239.141L554.019 248.742L555.153 249.643L584.408 272.792Z" fill="black"/>
<path d="M523.263 303.391C536.789 303.391 547.754 292.409 547.754 278.862C547.754 265.314 536.789 254.332 523.263 254.332C509.736 254.332 498.771 265.314 498.771 278.862C498.771 292.409 509.736 303.391 523.263 303.391Z" fill="#F2F2F2"/>
<path d="M178.752 366C169.145 366 159.754 363.147 151.767 357.802C143.779 352.456 137.553 344.859 133.877 335.969C130.201 327.08 129.239 317.299 131.113 307.862C132.987 298.425 137.613 289.757 144.406 282.954C151.199 276.15 159.854 271.517 169.276 269.64C178.698 267.763 188.464 268.726 197.34 272.408C206.215 276.09 213.801 282.326 219.138 290.326C224.475 298.326 227.324 307.731 227.324 317.353C227.309 330.25 222.187 342.616 213.082 351.736C203.976 360.856 191.63 365.986 178.752 366ZM178.752 269.823C169.366 269.823 160.191 272.611 152.387 277.834C144.583 283.056 138.5 290.479 134.909 299.164C131.317 307.849 130.377 317.405 132.208 326.625C134.039 335.845 138.559 344.314 145.196 350.961C151.833 357.608 160.288 362.135 169.494 363.969C178.699 365.803 188.241 364.862 196.912 361.264C205.584 357.667 212.995 351.575 218.21 343.759C223.424 335.942 226.207 326.753 226.207 317.353C226.193 304.752 221.189 292.671 212.292 283.76C203.396 274.85 191.334 269.838 178.752 269.823Z" fill="#3F3D56"/>
<path d="M530.481 297.781C524.408 297.781 518.471 295.977 513.422 292.598C508.372 289.219 504.436 284.416 502.112 278.796C499.788 273.176 499.18 266.993 500.365 261.027C501.55 255.061 504.474 249.581 508.769 245.28C513.063 240.979 518.534 238.05 524.491 236.863C530.447 235.677 536.621 236.286 542.232 238.614C547.843 240.941 552.639 244.883 556.013 249.941C559.387 254.998 561.188 260.944 561.188 267.027C561.179 275.18 557.941 282.998 552.184 288.763C546.427 294.529 538.623 297.772 530.481 297.781ZM530.481 237.391C524.629 237.391 518.908 239.129 514.042 242.385C509.176 245.642 505.383 250.27 503.144 255.686C500.904 261.101 500.318 267.06 501.46 272.808C502.602 278.557 505.42 283.838 509.558 287.983C513.696 292.127 518.969 294.95 524.709 296.093C530.449 297.237 536.398 296.65 541.805 294.407C547.212 292.164 551.833 288.365 555.085 283.492C558.336 278.618 560.071 272.888 560.071 267.027C560.063 259.17 556.942 251.637 551.395 246.081C545.848 240.525 538.326 237.4 530.481 237.391Z" fill="#3F3D56"/>
</g>
<defs>
<clipPath id="clip0_70_2741">
<rect width="636" height="366" fill="white"/>
</clipPath>
</defs>
</svg>
