<svg width="640" height="345" viewBox="0 0 640 345" fill="none" xmlns="http://www.w3.org/2000/svg">
<g clip-path="url(#clip0_196_1944)">
<path d="M40.5381 288.133L38.5418 298.135C38.3914 298.9 38.2341 299.679 38.0632 300.45C36.3947 300.105 34.6647 300.201 33.0451 300.73C34.3301 302.564 35.4816 304.487 36.4908 306.486C35.2328 310.357 33.3869 313.935 30.2968 316.522C28.2329 318.212 25.7678 319.342 23.1394 319.804C20.5109 320.266 17.8076 320.043 15.2903 319.158L15.3792 318.762C12.0566 312.323 13.8615 304.205 17.9908 298.258C20.0969 295.324 22.5923 292.69 25.4086 290.427C28.1979 288.106 31.2129 286.023 34.2005 283.968C34.8715 283.507 35.6649 283.257 36.4792 283.248C37.2935 283.24 38.0918 283.474 38.7721 283.921C39.4524 284.368 39.9838 285.008 40.2983 285.758C40.6129 286.508 40.6964 287.335 40.5381 288.133Z" fill="#E4E4E4"/>
<path d="M16.0011 343.226C15.1609 337.114 14.2968 330.923 14.8861 324.745C15.4098 319.258 17.0854 313.899 20.4983 309.504C22.3097 307.176 24.5138 305.182 27.0116 303.61C27.6631 303.2 28.262 304.231 27.6139 304.639C23.2922 307.367 19.9496 311.394 18.0679 316.142C15.9895 321.421 15.6559 327.176 16.0169 332.783C16.2336 336.175 16.6923 339.543 17.1552 342.909C17.1924 343.061 17.17 343.222 17.0925 343.358C17.015 343.495 16.8882 343.596 16.7381 343.642C16.5855 343.683 16.4228 343.663 16.2853 343.585C16.1478 343.507 16.0467 343.378 16.0039 343.226L16.0011 343.226Z" fill="#F2F2F2"/>
<path d="M23.212 36.6203C52.4983 36.1117 81.7878 36.0387 111.08 36.4011C140.369 36.7657 169.647 37.5678 198.916 38.8073C215.34 39.5029 231.757 40.3362 248.168 41.3073C249.486 41.3852 249.482 39.3366 248.168 39.259C218.928 37.531 189.667 36.238 160.385 35.3801C131.107 34.5244 101.82 34.1063 72.5253 34.1256C56.0866 34.1366 39.6489 34.2854 23.212 34.572C21.8937 34.5949 21.8895 36.6432 23.212 36.6203Z" fill="#E6E6E6"/>
<path d="M227.31 23.777L240.116 22.8251C241.424 22.7279 241.435 20.6788 240.116 20.7768L227.31 21.7287C226.002 21.8259 225.991 23.875 227.31 23.777Z" fill="#E6E6E6"/>
<path d="M227.31 36.0661L240.116 35.1142C241.424 35.017 241.435 32.9679 240.116 33.0659L227.31 34.0178C226.002 34.115 225.991 36.1641 227.31 36.0661Z" fill="#E6E6E6"/>
<path d="M226.347 30.4537L244.554 32.1057C245.868 32.2249 245.86 30.1758 244.554 30.0573L226.347 28.4054C225.033 28.2862 225.041 30.3352 226.347 30.4537Z" fill="#E6E6E6"/>
<path d="M30.7909 21.0216C29.9003 21.0161 29.0278 21.2725 28.2822 21.7588C27.5366 22.2451 26.9508 22.9399 26.5978 23.7564C26.203 24.5556 26.0811 25.462 26.2508 26.3369C26.4205 27.2118 26.8725 28.0071 27.5376 28.6012C28.1629 29.1325 28.9128 29.4967 29.7173 29.66C30.5218 29.8232 31.3546 29.78 32.1378 29.5346C32.9389 29.2552 33.6335 28.7347 34.1261 28.0447C34.6187 27.3548 34.885 26.5293 34.8885 25.6819C34.9243 24.7418 34.6692 23.8135 34.1581 23.0233C33.647 22.233 32.9045 21.6191 32.0318 21.2651C31.7695 21.194 31.4898 21.2292 31.2535 21.3632C31.0172 21.4972 30.8435 21.7191 30.7703 21.9804C30.7056 22.2421 30.7438 22.5185 30.877 22.7528C31.0103 22.9872 31.2284 23.1616 31.4865 23.2402C31.6652 23.3092 31.3232 23.1525 31.4901 23.2433C31.5587 23.2806 31.6287 23.3144 31.696 23.3542C31.7533 23.3881 31.8081 23.4252 31.8639 23.4615C32.0553 23.5863 31.7704 23.3699 31.8928 23.4821C31.9989 23.5794 32.104 23.6743 32.2005 23.7816C32.2369 23.8222 32.3798 23.935 32.2688 23.8562C32.1838 23.7958 32.236 23.81 32.2687 23.8585C32.2936 23.8952 32.3199 23.931 32.3444 23.968C32.4244 24.0888 32.497 24.2143 32.5621 24.3438C32.5771 24.3737 32.5909 24.4044 32.6062 24.4342C32.6349 24.49 32.6766 24.5047 32.6091 24.4347C32.5446 24.3679 32.5856 24.3724 32.6087 24.4368C32.6239 24.4791 32.6404 24.5208 32.6552 24.5632C32.7033 24.7014 32.7437 24.8421 32.7761 24.9847C32.7911 25.0506 32.8032 25.1169 32.8161 25.1833C32.8619 25.4185 32.8095 25.0371 32.8205 25.2118C32.8298 25.3576 32.8406 25.5019 32.838 25.6484C32.8369 25.7154 32.8339 25.7823 32.8293 25.8492C32.8269 25.8825 32.8232 25.9158 32.821 25.9491C32.8104 26.1098 32.81 25.8904 32.8325 25.8754C32.7857 26.0118 32.7546 26.1532 32.7399 26.2967C32.7215 26.3603 32.6997 26.4226 32.6792 26.4856C32.6079 26.7053 32.7462 26.3658 32.6702 26.516C32.6076 26.645 32.5376 26.7703 32.4607 26.8913C32.4273 26.942 32.3013 27.0565 32.4043 26.9768C32.5161 26.8904 32.3457 27.0392 32.3093 27.0775C32.2626 27.1267 32.2141 27.1742 32.1639 27.22C32.1317 27.2514 32.0977 27.2808 32.0622 27.3083C32.0556 27.305 32.2335 27.1897 32.1376 27.2507C32.0158 27.3283 31.9004 27.4114 31.772 27.4789C31.757 27.4868 31.5929 27.5628 31.5936 27.5654C31.5865 27.5378 31.8046 27.4887 31.6549 27.5371C31.6234 27.5472 31.5926 27.5595 31.5612 27.57C31.4249 27.6158 31.2858 27.6529 31.1447 27.6808C31.1124 27.6872 31.0782 27.6905 31.0464 27.6987C30.9404 27.7261 31.1477 27.6827 31.1539 27.6863C31.0756 27.6829 30.9971 27.6898 30.9205 27.7069C30.775 27.7152 30.6292 27.7152 30.4837 27.7068C30.45 27.7049 30.4164 27.7016 30.3828 27.6996C30.3046 27.6951 30.2473 27.6389 30.3513 27.6999C30.4315 27.747 30.4248 27.7126 30.3537 27.6995C30.3205 27.6934 30.2871 27.6882 30.2539 27.682C30.1099 27.6551 29.9674 27.6202 29.8273 27.5776C29.7518 27.5547 29.6779 27.528 29.6035 27.502C29.5711 27.4926 29.5395 27.4805 29.5092 27.4657C29.5087 27.4573 29.701 27.5575 29.5995 27.5028C29.4714 27.4339 29.3389 27.3761 29.2138 27.3007C29.1471 27.2605 29.083 27.2168 29.0181 27.1738C28.9895 27.1566 28.9624 27.1372 28.9369 27.1157C28.939 27.1071 29.0959 27.2522 29.0135 27.1739C28.9094 27.0747 28.798 26.986 28.6994 26.8805C28.6769 26.8564 28.6555 26.8311 28.6331 26.8069L28.6113 26.7821C28.5557 26.7142 28.5547 26.7145 28.6082 26.783C28.6626 26.799 28.6601 26.8586 28.6085 26.7812C28.5901 26.7537 28.5706 26.7269 28.5523 26.6993C28.469 26.5808 28.398 26.4541 28.3403 26.3213C28.3453 26.3174 28.4291 26.5677 28.365 26.3788C28.3529 26.3431 28.3393 26.308 28.3274 26.2722C28.3038 26.2013 28.2831 26.1295 28.2652 26.057C28.2475 25.9852 28.2384 25.911 28.2205 25.8395C28.1904 25.7189 28.2381 25.9346 28.2327 25.9293C28.2156 25.9124 28.2228 25.8078 28.2216 25.7828C28.2134 25.6221 28.2317 25.4661 28.2345 25.3063C28.2368 25.1826 28.2243 25.4028 28.2217 25.3963C28.2223 25.3593 28.2289 25.3225 28.2412 25.2875C28.2597 25.2033 28.277 25.1191 28.2997 25.0358C28.3258 24.9404 28.3557 24.8462 28.3896 24.7532C28.4023 24.7183 28.4177 24.684 28.4295 24.6489C28.4727 24.5203 28.344 24.8042 28.415 24.6883C28.5125 24.5287 28.5852 24.3561 28.6888 24.1985C28.7133 24.1611 28.8626 23.9531 28.7834 24.0581C28.7045 24.1628 28.8644 23.9644 28.8947 23.9308C29.0205 23.7909 29.1684 23.676 29.2987 23.5421C29.3758 23.4628 29.2449 23.5811 29.2371 23.5866C29.2775 23.5579 29.317 23.528 29.3578 23.4999C29.429 23.4509 29.5019 23.4045 29.5766 23.3609C29.6608 23.3116 29.7559 23.2749 29.8374 23.2228C29.9338 23.1613 29.7638 23.2499 29.7607 23.2517C29.8047 23.2299 29.8507 23.2124 29.8981 23.1994C29.9775 23.1713 30.3229 23.0225 30.3953 23.069C30.392 23.0669 30.1331 23.0898 30.3424 23.0764C30.3919 23.0732 30.4411 23.0684 30.4907 23.0664C30.5909 23.0622 30.6908 23.0647 30.7909 23.0699C31.0623 23.0681 31.3221 22.9597 31.5141 22.768C31.706 22.5763 31.8146 22.3168 31.8164 22.0458C31.8106 21.776 31.7007 21.5188 31.5096 21.328C31.3185 21.1372 31.061 21.0274 30.7909 21.0216Z" fill="#E6E6E6"/>
<path d="M45.1478 21.0216C44.2572 21.0161 43.3848 21.2725 42.6392 21.7588C41.8935 22.2451 41.3077 22.9399 40.9548 23.7564C40.5599 24.5556 40.438 25.462 40.6078 26.3369C40.7775 27.2118 41.2294 28.0071 41.8946 28.6012C42.5198 29.1325 43.2697 29.4967 44.0742 29.66C44.8787 29.8232 45.7115 29.78 46.4948 29.5346C47.2958 29.2552 47.9904 28.7347 48.483 28.0447C48.9756 27.3548 49.242 26.5293 49.2454 25.6819C49.2812 24.7418 49.0262 23.8135 48.515 23.0233C48.0039 22.233 47.2615 21.6191 46.3887 21.2651C46.1265 21.194 45.8467 21.2292 45.6104 21.3632C45.3741 21.4972 45.2004 21.7191 45.1272 21.9804C45.0625 22.2421 45.1007 22.5185 45.234 22.7528C45.3672 22.9872 45.5853 23.1616 45.8435 23.2402C46.0222 23.3092 45.6802 23.1525 45.8471 23.2433C45.9157 23.2806 45.9856 23.3144 46.053 23.3542C46.1102 23.3881 46.1651 23.4252 46.2208 23.4615C46.4122 23.5863 46.1274 23.3699 46.2497 23.4821C46.3558 23.5794 46.461 23.6743 46.5574 23.7816C46.5939 23.8222 46.7367 23.935 46.6257 23.8562C46.5408 23.7958 46.593 23.81 46.6257 23.8585C46.6505 23.8952 46.6768 23.931 46.7013 23.968C46.7813 24.0888 46.854 24.2143 46.919 24.3438C46.9341 24.3737 46.9478 24.4044 46.9632 24.4342C46.9919 24.49 47.0335 24.5047 46.966 24.4347C46.9015 24.3679 46.9426 24.3724 46.9656 24.4368C46.9808 24.4791 46.9974 24.5208 47.0121 24.5632C47.0602 24.7014 47.1006 24.8421 47.133 24.9847C47.1481 25.0506 47.1602 25.1169 47.1731 25.1833C47.2189 25.4185 47.1664 25.0371 47.1775 25.2118C47.1867 25.3576 47.1975 25.5019 47.195 25.6484C47.1938 25.7154 47.1909 25.7823 47.1862 25.8492C47.1838 25.8825 47.1801 25.9158 47.1779 25.9491C47.1673 26.1098 47.1669 25.8904 47.1895 25.8754C47.1426 26.0118 47.1115 26.1532 47.0968 26.2967C47.0784 26.3603 47.0566 26.4226 47.0362 26.4856C46.9648 26.7053 47.1032 26.3658 47.0271 26.516C46.9645 26.645 46.8946 26.7703 46.8176 26.8913C46.7842 26.942 46.6582 27.0565 46.7612 26.9768C46.873 26.8904 46.7026 27.0392 46.6662 27.0775C46.6195 27.1267 46.5711 27.1742 46.5208 27.22C46.4886 27.2514 46.4547 27.2808 46.4191 27.3083C46.4126 27.305 46.5904 27.1897 46.4946 27.2507C46.3727 27.3283 46.2573 27.4114 46.1289 27.4789C46.114 27.4868 45.9498 27.5628 45.9505 27.5654C45.9434 27.5378 46.1615 27.4887 46.0118 27.5371C45.9804 27.5472 45.9495 27.5595 45.9182 27.57C45.7818 27.6158 45.6427 27.6529 45.5016 27.6808C45.4693 27.6872 45.4351 27.6905 45.4033 27.6987C45.2973 27.7261 45.5046 27.6827 45.5108 27.6863C45.4325 27.6829 45.354 27.6898 45.2775 27.7069C45.132 27.7152 44.9861 27.7152 44.8406 27.7068C44.8069 27.7049 44.7734 27.7016 44.7397 27.6996C44.6616 27.6951 44.6042 27.6389 44.7082 27.6999C44.7884 27.747 44.7818 27.7126 44.7107 27.6995C44.6774 27.6934 44.644 27.6882 44.6108 27.682C44.4668 27.6551 44.3244 27.6202 44.1842 27.5776C44.1088 27.5547 44.0349 27.528 43.9605 27.502C43.928 27.4926 43.8965 27.4805 43.8661 27.4657C43.8657 27.4573 44.0579 27.5575 43.9564 27.5028C43.8283 27.4339 43.6958 27.3761 43.5708 27.3007C43.504 27.2605 43.4399 27.2168 43.375 27.1738C43.3464 27.1566 43.3193 27.1372 43.2938 27.1157C43.296 27.1071 43.4528 27.2522 43.3705 27.1739C43.2664 27.0747 43.155 26.986 43.0564 26.8805C43.0338 26.8564 43.0125 26.8311 42.99 26.8069L42.9682 26.7821C42.9126 26.7142 42.9116 26.7145 42.9651 26.783C43.0195 26.799 43.017 26.8586 42.9654 26.7812C42.9471 26.7537 42.9275 26.7269 42.9092 26.6993C42.8259 26.5808 42.7549 26.4541 42.6972 26.3213C42.7022 26.3174 42.7861 26.5677 42.722 26.3788C42.7098 26.3431 42.6962 26.308 42.6843 26.2722C42.6608 26.2013 42.64 26.1295 42.6221 26.057C42.6044 25.9852 42.5953 25.911 42.5774 25.8395C42.5473 25.7189 42.595 25.9346 42.5896 25.9293C42.5725 25.9124 42.5798 25.8078 42.5785 25.7828C42.5703 25.6221 42.5886 25.4661 42.5915 25.3063C42.5937 25.1826 42.5812 25.4028 42.5786 25.3963C42.5793 25.3593 42.5858 25.3225 42.5981 25.2875C42.6167 25.2033 42.634 25.1191 42.6567 25.0358C42.6827 24.9404 42.7127 24.8462 42.7466 24.7532C42.7592 24.7183 42.7747 24.684 42.7864 24.6489C42.8296 24.5203 42.701 24.8042 42.7719 24.6883C42.8695 24.5287 42.9421 24.3561 43.0457 24.1985C43.0703 24.1611 43.2195 23.9531 43.1403 24.0581C43.0614 24.1628 43.2214 23.9644 43.2516 23.9308C43.3774 23.7909 43.5254 23.676 43.6556 23.5421C43.7327 23.4628 43.6018 23.5811 43.5941 23.5866C43.6344 23.5579 43.6739 23.528 43.7147 23.4999C43.7859 23.4509 43.8589 23.4045 43.9336 23.3609C44.0177 23.3116 44.1128 23.2749 44.1944 23.2228C44.2907 23.1613 44.1207 23.2499 44.1176 23.2517C44.1616 23.2299 44.2077 23.2124 44.255 23.1994C44.3344 23.1713 44.6798 23.0225 44.7522 23.069C44.749 23.0669 44.49 23.0898 44.6993 23.0764C44.7488 23.0732 44.7981 23.0684 44.8476 23.0664C44.9478 23.0622 45.0477 23.0647 45.1478 23.0699C45.4192 23.0681 45.6791 22.9597 45.871 22.768C46.0629 22.5763 46.1715 22.3168 46.1733 22.0458C46.1675 21.776 46.0576 21.5188 45.8665 21.328C45.6754 21.1372 45.4179 21.0274 45.1478 21.0216Z" fill="#E6E6E6"/>
<path d="M59.5047 21.0216C58.6142 21.0161 57.7417 21.2725 56.9961 21.7588C56.2505 22.2451 55.6647 22.9399 55.3117 23.7564C54.9169 24.5556 54.795 25.462 54.9647 26.3369C55.1344 27.2118 55.5864 28.0071 56.2515 28.6012C56.8767 29.1325 57.6267 29.4967 58.4312 29.66C59.2357 29.8232 60.0685 29.78 60.8517 29.5346C61.6528 29.2552 62.3474 28.7347 62.84 28.0447C63.3326 27.3548 63.5989 26.5293 63.6023 25.6819C63.6381 24.7418 63.3831 23.8135 62.872 23.0233C62.3609 22.233 61.6184 21.6191 60.7456 21.2651C60.4834 21.194 60.2036 21.2292 59.9673 21.3632C59.731 21.4972 59.5573 21.7191 59.4841 21.9804C59.4195 22.2421 59.4577 22.5185 59.5909 22.7528C59.7241 22.9872 59.9423 23.1616 60.2004 23.2402C60.3791 23.3092 60.0371 23.1525 60.204 23.2433C60.2726 23.2806 60.3425 23.3144 60.4099 23.3542C60.4672 23.3881 60.522 23.4252 60.5777 23.4615C60.7692 23.5863 60.4843 23.3699 60.6066 23.4821C60.7128 23.5794 60.8179 23.6743 60.9143 23.7816C60.9508 23.8222 61.0937 23.935 60.9826 23.8562C60.8977 23.7958 60.9499 23.81 60.9826 23.8585C61.0075 23.8952 61.0337 23.931 61.0583 23.968C61.1382 24.0888 61.2109 24.2143 61.2759 24.3438C61.291 24.3737 61.3048 24.4044 61.3201 24.4342C61.3488 24.49 61.3904 24.5047 61.3229 24.4347C61.2584 24.3679 61.2995 24.3724 61.3226 24.4368C61.3377 24.4791 61.3543 24.5208 61.3691 24.5632C61.4172 24.7014 61.4575 24.8421 61.49 24.9847C61.505 25.0506 61.5171 25.1169 61.53 25.1833C61.5758 25.4185 61.5233 25.0371 61.5344 25.2118C61.5437 25.3576 61.5544 25.5019 61.5519 25.6484C61.5507 25.7154 61.5478 25.7823 61.5431 25.8492C61.5408 25.8825 61.5371 25.9158 61.5348 25.9491C61.5242 26.1098 61.5239 25.8904 61.5464 25.8754C61.4995 26.0118 61.4684 26.1532 61.4537 26.2967C61.4353 26.3603 61.4135 26.4226 61.3931 26.4856C61.3217 26.7053 61.4601 26.3658 61.384 26.516C61.3215 26.645 61.2515 26.7703 61.1745 26.8913C61.1411 26.942 61.0151 27.0565 61.1182 26.9768C61.23 26.8904 61.0595 27.0392 61.0232 27.0775C60.9765 27.1267 60.928 27.1742 60.8777 27.22C60.8456 27.2514 60.8116 27.2808 60.776 27.3083C60.7695 27.305 60.9474 27.1897 60.8515 27.2507C60.7297 27.3283 60.6143 27.4114 60.4859 27.4789C60.4709 27.4868 60.3067 27.5628 60.3074 27.5654C60.3003 27.5378 60.5185 27.4887 60.3687 27.5371C60.3373 27.5472 60.3064 27.5595 60.2751 27.57C60.1388 27.6158 59.9996 27.6529 59.8585 27.6808C59.8262 27.6872 59.7921 27.6905 59.7602 27.6987C59.6542 27.7261 59.8616 27.6827 59.8678 27.6863C59.7894 27.6829 59.711 27.6898 59.6344 27.7069C59.4889 27.7152 59.343 27.7152 59.1975 27.7068C59.1639 27.7049 59.1303 27.7016 59.0966 27.6996C59.0185 27.6951 58.9611 27.6389 59.0651 27.6999C59.1454 27.747 59.1387 27.7126 59.0676 27.6995C59.0344 27.6934 59.001 27.6882 58.9677 27.682C58.8237 27.6551 58.6813 27.6202 58.5411 27.5776C58.4657 27.5547 58.3918 27.528 58.3174 27.502C58.285 27.4926 58.2534 27.4805 58.223 27.4657C58.2226 27.4573 58.4148 27.5575 58.3133 27.5028C58.1852 27.4339 58.0528 27.3761 57.9277 27.3007C57.8609 27.2605 57.7968 27.2168 57.7319 27.1738C57.7034 27.1566 57.6762 27.1372 57.6508 27.1157C57.6529 27.1071 57.8097 27.2522 57.7274 27.1739C57.6233 27.0747 57.5119 26.986 57.4133 26.8805C57.3907 26.8564 57.3694 26.8311 57.3469 26.8069L57.3252 26.7821C57.2696 26.7142 57.2685 26.7145 57.3221 26.783C57.3764 26.799 57.3739 26.8586 57.3224 26.7812C57.304 26.7537 57.2845 26.7269 57.2661 26.6993C57.1828 26.5808 57.1118 26.4541 57.0542 26.3213C57.0591 26.3174 57.143 26.5677 57.0789 26.3788C57.0668 26.3431 57.0531 26.308 57.0413 26.2722C57.0177 26.2013 56.997 26.1295 56.9791 26.057C56.9613 25.9852 56.9522 25.911 56.9344 25.8395C56.9042 25.7189 56.952 25.9346 56.9465 25.9293C56.9294 25.9124 56.9367 25.8078 56.9354 25.7828C56.9272 25.6221 56.9456 25.4661 56.9484 25.3063C56.9506 25.1826 56.9382 25.4028 56.9356 25.3963C56.9362 25.3593 56.9428 25.3225 56.955 25.2875C56.9736 25.2033 56.9909 25.1191 57.0136 25.0358C57.0396 24.9404 57.0696 24.8462 57.1035 24.7532C57.1161 24.7183 57.1316 24.684 57.1434 24.6489C57.1865 24.5203 57.0579 24.8042 57.1288 24.6883C57.2264 24.5287 57.2991 24.3561 57.4026 24.1985C57.4272 24.1611 57.5764 23.9531 57.4972 24.0581C57.4183 24.1628 57.5783 23.9644 57.6086 23.9308C57.7344 23.7909 57.8823 23.676 58.0125 23.5421C58.0896 23.4628 57.9587 23.5811 57.951 23.5866C57.9913 23.5579 58.0308 23.528 58.0717 23.4999C58.1429 23.4509 58.2158 23.4045 58.2905 23.3609C58.3746 23.3116 58.4698 23.2749 58.5513 23.2228C58.6476 23.1613 58.4776 23.2499 58.4746 23.2517C58.5186 23.2299 58.5646 23.2124 58.612 23.1994C58.6914 23.1713 59.0367 23.0225 59.1092 23.069C59.1059 23.0669 58.8469 23.0898 59.0563 23.0764C59.1057 23.0732 59.155 23.0684 59.2046 23.0664C59.3048 23.0622 59.4046 23.0647 59.5047 23.0699C59.7762 23.0681 60.036 22.9597 60.2279 22.768C60.4199 22.5763 60.5285 22.3168 60.5302 22.0458C60.5244 21.776 60.4145 21.5188 60.2235 21.328C60.0324 21.1372 59.7749 21.0274 59.5047 21.0216Z" fill="#E6E6E6"/>
<path d="M266.91 247.845H15.3864C12.2059 247.841 9.15659 246.578 6.90757 244.332C4.65855 242.086 3.39347 239.041 3.38989 235.864V11.9808C3.39346 8.80437 4.65852 5.75908 6.90753 3.51302C9.15654 1.26696 12.2058 0.00356189 15.3864 0H266.91C270.091 0.00356189 273.14 1.26696 275.389 3.51302C277.638 5.75909 278.903 8.80437 278.907 11.9808V235.864C278.903 239.041 277.638 242.086 275.389 244.332C273.14 246.578 270.091 247.841 266.91 247.845ZM15.3864 1.36554C12.5684 1.36874 9.86665 2.48816 7.87398 4.47821C5.88132 6.46826 4.76043 9.16643 4.75722 11.9808V235.864C4.7605 238.679 5.88143 241.377 7.87409 243.367C9.86674 245.357 12.5684 246.476 15.3864 246.479H266.91C269.728 246.476 272.43 245.357 274.423 243.367C276.415 241.377 277.536 238.679 277.539 235.864V11.9808C277.536 9.16643 276.415 6.46826 274.423 4.47821C272.43 2.48816 269.728 1.36874 266.91 1.36554H15.3864Z" fill="#E6E6E6"/>
<path d="M14.9698 152.329L103.422 152.06L191.422 151.793L241.064 151.642C241.33 151.633 241.582 151.521 241.766 151.33C241.951 151.139 242.055 150.884 242.055 150.618C242.055 150.352 241.951 150.097 241.766 149.906C241.582 149.715 241.33 149.603 241.064 149.594L152.612 149.862L64.6112 150.13L14.9698 150.281C14.704 150.29 14.4521 150.402 14.2673 150.593C14.0825 150.784 13.9792 151.039 13.9792 151.305C13.9792 151.57 14.0825 151.826 14.2673 152.017C14.4521 152.208 14.704 152.32 14.9698 152.329Z" fill="#E6E6E6"/>
<path d="M59.5924 150.669L60.1394 118.417C60.1617 117.098 58.1107 117.098 58.0884 118.417L57.5414 150.669C57.5191 151.987 59.5701 151.988 59.5924 150.669Z" fill="#E6E6E6"/>
<path d="M101.867 151.018L103.2 110.479L103.581 98.8964C103.624 97.578 101.573 97.5796 101.53 98.8964L100.197 139.435L99.8161 151.018C99.7728 152.336 101.824 152.335 101.867 151.018Z" fill="#E6E6E6"/>
<path d="M144.028 79.6796C143.224 94.0382 141.736 136.39 140.932 150.749C140.858 152.066 142.91 152.062 142.983 150.749C143.787 136.39 145.275 94.0382 146.079 79.6796C146.152 78.3625 144.101 78.3667 144.028 79.6796Z" fill="#E6E6E6"/>
<path d="M185.985 136.341L185.734 150.142C185.71 151.461 187.761 151.461 187.785 150.142C188.082 133.842 188.843 134.373 188.927 129.773C188.951 128.455 186.9 128.454 186.876 129.773C186.876 129.773 186.282 120.041 185.985 136.341Z" fill="#E6E6E6"/>
<path d="M227.082 100.087L227.314 138.806L227.38 149.893C227.389 150.158 227.501 150.41 227.693 150.594C227.884 150.779 228.139 150.882 228.405 150.882C228.671 150.882 228.927 150.779 229.118 150.594C229.31 150.41 229.422 150.158 229.431 149.893L229.199 111.174L229.133 100.087C229.123 99.8215 229.011 99.5699 228.82 99.3854C228.629 99.2008 228.373 99.0977 228.107 99.0977C227.841 99.0977 227.585 99.2008 227.394 99.3854C227.203 99.5699 227.091 99.8215 227.082 100.087Z" fill="#E6E6E6"/>
<path d="M15.1348 151.178C13.4371 146.519 17.2641 142.037 21.1964 140.024C25.9075 137.611 31.3271 137.065 36.0882 134.739C43.1862 131.272 48.3561 125.049 52.9564 118.821C57.6913 112.41 62.0237 105.53 68.0402 100.204C71.2107 97.3343 74.9551 95.1701 79.0258 93.8544C84.1549 92.2559 89.5945 92.1462 94.8943 92.7904C105.846 94.1217 115.998 98.6389 126.564 101.51C136.527 104.217 147.503 105.739 157.282 101.53C162.25 99.3911 166.313 95.8043 170.676 92.7004C174.899 89.6649 179.621 87.3902 184.629 85.9788C194.445 83.2528 205.165 83.9807 214.303 88.589C222.704 92.7706 229.355 99.7815 233.083 108.384C237.416 118.72 236.852 130.271 235.437 141.15C235.071 143.962 234.635 146.765 234.195 149.566C233.993 150.856 235.969 151.411 236.173 150.111C237.936 138.892 239.692 127.319 237.5 116.03C235.604 106.172 230.176 97.3427 222.233 91.193C214.256 85.0265 204.339 81.901 194.263 82.3775C188.983 82.6222 183.785 83.7768 178.898 85.7902C173.826 87.8855 169.531 90.9912 165.168 94.2591C160.682 97.619 156.058 100.398 150.489 101.494C145.087 102.557 139.467 102.158 134.089 101.155C122.991 99.0841 112.647 94.3373 101.644 91.9052C91.4494 89.6518 80.4486 89.4266 71.3197 95.1783C64.2975 99.6026 59.3355 106.471 54.5735 113.104C49.8532 119.678 45.0733 126.708 38.171 131.199C33.9604 133.939 29.2274 134.949 24.5172 136.49C19.795 138.035 15.2615 140.64 13.3361 145.472C12.5062 147.462 12.4425 149.688 13.1571 151.722C13.6049 152.951 15.5877 152.421 15.1348 151.178Z" fill="#E6E6E6"/>
<path d="M58.9126 113.957L58.9094 113.959L58.9158 113.957H58.9126Z" fill="#E6E6E6"/>
<path d="M62.4681 112.073C61.9941 111.235 61.2379 110.591 60.3338 110.257C59.4297 109.923 58.4362 109.919 57.5299 110.248C57.0794 110.412 56.6664 110.665 56.3154 110.991C55.9644 111.317 55.6825 111.711 55.4864 112.148C55.4471 112.241 55.4242 112.338 55.3921 112.434C55.3477 112.505 55.2943 112.57 55.2545 112.645C54.8294 113.491 54.713 114.459 54.9253 115.381C55.1377 116.304 55.6655 117.123 56.4178 117.699C57.1701 118.274 58.0998 118.57 59.0469 118.535C59.994 118.499 60.8991 118.135 61.6063 117.505C62.3495 116.834 62.8404 115.929 62.9972 114.941C63.154 113.953 62.9673 112.94 62.4681 112.073ZM59.8994 113.812C59.9047 113.912 59.9078 113.864 59.8994 113.812V113.812ZM59.6383 113.219C59.6283 113.208 59.6295 113.209 59.6383 113.219V113.219ZM58.4875 113.682C58.4706 113.654 58.4721 113.658 58.4875 113.682V113.682ZM58.7603 113.913C58.7995 113.93 58.8252 113.935 58.7603 113.913V113.913ZM58.8821 113.97L58.9091 113.958C58.9025 113.959 58.8958 113.957 58.8899 113.954L58.8907 113.954L58.9119 113.957L58.9159 113.955L58.9036 113.952C58.9142 113.952 58.9151 113.953 58.9159 113.955C59.0379 113.899 58.9555 113.926 58.8848 113.948L58.8801 113.947C58.8359 113.924 58.7884 113.909 58.7395 113.902C58.735 113.899 58.7296 113.897 58.7258 113.895C58.6865 113.867 58.4881 113.712 58.6722 113.874C58.6321 113.839 58.5925 113.804 58.5548 113.766C58.5326 113.743 58.5125 113.719 58.4947 113.692C58.4705 113.651 58.4471 113.609 58.4244 113.567L58.421 113.544C58.418 113.525 58.4157 113.518 58.4132 113.506C58.4144 113.494 58.4163 113.482 58.4181 113.47C58.4319 113.433 58.4406 113.394 58.4442 113.355L58.4521 113.345C58.4815 113.304 58.5073 113.256 58.5354 113.214C58.3868 113.439 58.5936 113.189 58.609 113.157C58.6116 113.152 58.6071 113.155 58.6082 113.151C58.6142 113.147 58.6124 113.15 58.6196 113.146C58.6657 113.118 58.7093 113.088 58.7561 113.062C58.8118 113.032 59.0313 112.969 58.8037 113.034C58.8554 113.02 58.905 113.001 58.9572 112.987C58.9667 112.985 59.0433 112.974 59.0846 112.967C59.1208 112.966 59.156 112.965 59.1597 112.965C59.1767 112.965 59.1937 112.967 59.2108 112.968C59.173 112.973 59.3404 113.009 59.3901 113.017C59.3973 113.022 59.4009 113.026 59.4107 113.033C59.4527 113.064 59.5038 113.091 59.5482 113.119C59.3499 112.991 59.5508 113.13 59.5887 113.167C59.6113 113.19 59.6322 113.214 59.6535 113.238C59.673 113.261 59.6907 113.285 59.7063 113.31C59.7388 113.37 59.7734 113.43 59.8076 113.489L59.8171 113.504C59.8169 113.506 59.8168 113.508 59.8168 113.51C59.8346 113.604 59.8609 113.698 59.8953 113.788C59.897 113.796 59.8983 113.803 59.8992 113.811C59.9024 113.863 59.9067 113.915 59.9068 113.967L59.9064 113.978C59.7484 113.896 59.5732 113.852 59.3951 113.851C59.217 113.849 59.0411 113.891 58.8821 113.97Z" fill="#E6E6E6"/>
<path d="M102.667 94.8398L102.664 94.8414L102.67 94.8398H102.667Z" fill="#E6E6E6"/>
<path d="M106.223 92.9557C105.749 92.1174 104.992 91.474 104.088 91.1398C103.184 90.8056 102.191 90.8023 101.285 91.1304C100.834 91.2947 100.421 91.5474 100.07 91.8738C99.719 92.2002 99.4371 92.5936 99.241 93.0307C99.2018 93.1236 99.1788 93.2212 99.1468 93.3164C99.1023 93.3882 99.0489 93.453 99.0091 93.528C98.584 94.374 98.4676 95.3415 98.68 96.2639C98.8923 97.1863 99.4201 98.0059 100.172 98.5815C100.925 99.1572 101.854 99.4527 102.802 99.4174C103.749 99.3821 104.654 99.018 105.361 98.3879C106.104 97.7169 106.595 96.812 106.752 95.8237C106.909 94.8354 106.722 93.8233 106.223 92.9557ZM103.654 94.6951C103.659 94.7944 103.662 94.7468 103.654 94.6951V94.6951ZM103.393 94.1022C103.383 94.0907 103.384 94.0919 103.393 94.1022V94.1022ZM102.242 94.5644C102.225 94.5367 102.227 94.5407 102.242 94.5644V94.5644ZM102.515 94.7953C102.554 94.8128 102.58 94.8174 102.515 94.7953V94.7953ZM102.637 94.8533L102.664 94.8409C102.657 94.8416 102.65 94.8403 102.645 94.8372L102.645 94.837L102.666 94.8397L102.67 94.8379L102.658 94.835C102.669 94.8347 102.67 94.8362 102.67 94.8379C102.792 94.7821 102.71 94.8088 102.639 94.8307L102.635 94.8296C102.591 94.8072 102.543 94.792 102.494 94.7845C102.49 94.782 102.484 94.7802 102.48 94.7775C102.441 94.7495 102.243 94.5947 102.427 94.757C102.387 94.7217 102.347 94.687 102.309 94.6489C102.287 94.6261 102.267 94.6014 102.249 94.575C102.225 94.5336 102.202 94.4919 102.179 94.4498L102.176 94.4271C102.173 94.4082 102.17 94.4004 102.168 94.389C102.169 94.3773 102.171 94.3647 102.173 94.3525C102.186 94.3157 102.195 94.2772 102.199 94.238L102.207 94.228C102.236 94.187 102.262 94.1391 102.29 94.0964C102.141 94.3219 102.348 94.0716 102.364 94.0398C102.366 94.0344 102.362 94.0374 102.363 94.0336C102.369 94.0303 102.367 94.0326 102.374 94.0283C102.42 94.0013 102.464 93.971 102.511 93.9452C102.566 93.9143 102.786 93.8521 102.558 93.9171C102.61 93.9023 102.66 93.8837 102.712 93.8701C102.721 93.8676 102.798 93.8569 102.839 93.8495C102.875 93.8486 102.911 93.8475 102.914 93.8475C102.931 93.8477 102.948 93.8498 102.965 93.8506C102.928 93.8556 103.095 93.8917 103.145 93.8994C103.152 93.905 103.156 93.9086 103.165 93.9157C103.207 93.9464 103.258 93.9737 103.303 94.0023C103.104 93.8743 103.305 94.0125 103.343 94.0503C103.366 94.0729 103.387 94.0971 103.408 94.1209C103.428 94.1435 103.445 94.1677 103.461 94.1932C103.493 94.2527 103.528 94.313 103.562 94.3715L103.572 94.3865C103.571 94.3884 103.571 94.3904 103.571 94.3923C103.589 94.4873 103.615 94.5805 103.65 94.6707C103.652 94.6784 103.653 94.6861 103.654 94.6939C103.657 94.7459 103.661 94.7977 103.661 94.85L103.661 94.8606C103.503 94.7784 103.328 94.7348 103.15 94.7336C102.972 94.7323 102.796 94.7733 102.637 94.8533Z" fill="#E6E6E6"/>
<path d="M148.61 73.8385C148.136 73.0002 147.38 72.3568 146.476 72.0226C145.571 71.6884 144.578 71.6851 143.672 72.0132C143.221 72.1775 142.808 72.4303 142.457 72.7566C142.106 73.083 141.824 73.4764 141.628 73.9135C141.589 74.0064 141.566 74.1041 141.534 74.1992C141.49 74.271 141.436 74.3358 141.396 74.4109C140.971 75.2568 140.855 76.2243 141.067 77.1467C141.28 78.0691 141.807 78.8887 142.56 79.4644C143.312 80.04 144.242 80.3355 145.189 80.3002C146.136 80.2649 147.041 79.9008 147.748 79.2707C148.491 78.5997 148.982 77.6948 149.139 76.7065C149.296 75.7183 149.109 74.7061 148.61 73.8385ZM146.041 75.5779C146.047 75.6772 146.05 75.6297 146.041 75.5779V75.5779ZM145.78 74.985C145.77 74.9735 145.771 74.9747 145.78 74.985V74.985ZM144.629 75.4472C144.612 75.4195 144.614 75.4235 144.629 75.4472V75.4472ZM144.902 75.6781C144.941 75.6956 144.967 75.7002 144.902 75.6781V75.6781ZM145.024 75.7361L145.051 75.7238C145.044 75.7244 145.038 75.7231 145.032 75.72L145.033 75.7198L145.054 75.7225L145.058 75.7207L145.045 75.7178C145.056 75.7175 145.057 75.719 145.058 75.7207C145.18 75.6649 145.097 75.6916 145.027 75.7135L145.022 75.7124C144.978 75.69 144.93 75.6748 144.881 75.6674C144.877 75.6648 144.871 75.663 144.868 75.6603C144.828 75.6323 144.63 75.4775 144.814 75.6398C144.774 75.6045 144.734 75.5698 144.697 75.5317C144.674 75.5089 144.654 75.4842 144.636 75.4578C144.612 75.4164 144.589 75.3747 144.566 75.3326L144.563 75.3099C144.56 75.291 144.558 75.2832 144.555 75.2718C144.556 75.2601 144.558 75.2475 144.56 75.2353C144.574 75.1985 144.582 75.16 144.586 75.1209L144.594 75.1109C144.623 75.0698 144.649 75.0219 144.677 74.9792C144.529 75.2047 144.735 74.9544 144.751 74.9227C144.753 74.9172 144.749 74.9202 144.75 74.9164C144.756 74.9131 144.754 74.9154 144.761 74.9112C144.807 74.8841 144.851 74.8539 144.898 74.828C144.954 74.7971 145.173 74.7349 144.945 74.7999C144.997 74.7851 145.047 74.7665 145.099 74.7529C145.109 74.7504 145.185 74.7397 145.226 74.7323C145.263 74.7314 145.298 74.7303 145.302 74.7303C145.319 74.7305 145.336 74.7326 145.353 74.7334C145.315 74.7384 145.482 74.7746 145.532 74.7822C145.539 74.7878 145.543 74.7914 145.552 74.7986C145.595 74.8292 145.646 74.8565 145.69 74.8851C145.492 74.7571 145.693 74.8953 145.73 74.9331C145.753 74.9557 145.774 74.9799 145.795 75.0037C145.815 75.0263 145.833 75.0505 145.848 75.076C145.881 75.1355 145.915 75.1958 145.949 75.2543L145.959 75.2693C145.959 75.2713 145.959 75.2732 145.959 75.2751C145.976 75.3701 146.003 75.4633 146.037 75.5535C146.039 75.5612 146.04 75.5689 146.041 75.5767C146.044 75.6287 146.049 75.6805 146.049 75.7328L146.048 75.7434C145.89 75.6612 145.715 75.6176 145.537 75.6164C145.359 75.6151 145.183 75.6561 145.024 75.7361Z" fill="#E6E6E6"/>
<path d="M145.054 104.398L145.051 104.4L145.057 104.398H145.054Z" fill="#E6E6E6"/>
<path d="M191.681 126.411C191.207 125.572 190.45 124.929 189.546 124.595C188.642 124.261 187.649 124.257 186.743 124.586C186.292 124.75 185.879 125.003 185.528 125.329C185.177 125.655 184.895 126.049 184.699 126.486C184.66 126.579 184.637 126.676 184.605 126.772C184.56 126.843 184.507 126.908 184.467 126.983C184.042 127.829 183.926 128.797 184.138 129.719C184.35 130.641 184.878 131.461 185.63 132.037C186.383 132.612 187.312 132.908 188.26 132.872C189.207 132.837 190.112 132.473 190.819 131.843C191.562 131.172 192.053 130.267 192.21 129.279C192.367 128.291 192.18 127.278 191.681 126.411ZM189.112 128.15C189.117 128.249 189.12 128.202 189.112 128.15V128.15ZM188.851 127.557C188.841 127.546 188.842 127.547 188.851 127.557V127.557ZM187.7 128.019C187.683 127.992 187.685 127.996 187.7 128.019V128.019ZM187.973 128.25C188.012 128.268 188.038 128.272 187.973 128.25V128.25ZM188.095 128.308L188.122 128.296C188.115 128.297 188.108 128.295 188.103 128.292L188.103 128.292L188.124 128.295L188.128 128.293L188.116 128.29C188.127 128.29 188.128 128.291 188.128 128.293C188.25 128.237 188.168 128.264 188.097 128.286L188.093 128.285C188.049 128.262 188.001 128.247 187.952 128.24C187.948 128.237 187.942 128.235 187.938 128.233C187.899 128.205 187.701 128.05 187.885 128.212C187.845 128.177 187.805 128.142 187.767 128.104C187.745 128.081 187.725 128.056 187.707 128.03C187.683 127.989 187.66 127.947 187.637 127.905L187.634 127.882C187.631 127.863 187.628 127.855 187.626 127.844C187.627 127.832 187.629 127.82 187.631 127.808C187.644 127.771 187.653 127.732 187.657 127.693L187.665 127.683C187.694 127.642 187.72 127.594 187.748 127.552C187.599 127.777 187.806 127.527 187.822 127.495C187.824 127.49 187.82 127.492 187.821 127.489C187.827 127.485 187.825 127.488 187.832 127.483C187.878 127.456 187.922 127.426 187.969 127.4C188.024 127.369 188.244 127.307 188.016 127.372C188.068 127.357 188.118 127.339 188.17 127.325C188.179 127.323 188.256 127.312 188.297 127.305C188.333 127.304 188.369 127.303 188.372 127.303C188.389 127.303 188.406 127.305 188.423 127.306C188.386 127.311 188.553 127.347 188.603 127.354C188.61 127.36 188.614 127.364 188.623 127.371C188.665 127.401 188.716 127.429 188.761 127.457C188.562 127.329 188.763 127.468 188.801 127.505C188.824 127.528 188.845 127.552 188.866 127.576C188.886 127.599 188.903 127.623 188.919 127.648C188.951 127.708 188.986 127.768 189.02 127.827L189.03 127.842C189.029 127.844 189.029 127.845 189.029 127.847C189.047 127.942 189.073 128.036 189.108 128.126C189.11 128.133 189.111 128.141 189.112 128.149C189.115 128.201 189.119 128.253 189.119 128.305L189.119 128.316C188.961 128.233 188.786 128.19 188.608 128.189C188.43 128.187 188.254 128.228 188.095 128.308Z" fill="#E6E6E6"/>
<path d="M188.125 83.2324L188.122 83.234L188.128 83.2324H188.125Z" fill="#E6E6E6"/>
<path d="M232.017 95.0045C231.543 94.1662 230.787 93.5228 229.883 93.1886C228.978 92.8544 227.985 92.8511 227.079 93.1793C226.628 93.3435 226.215 93.5963 225.864 93.9227C225.513 94.2491 225.231 94.6424 225.035 95.0795C224.996 95.1724 224.973 95.2701 224.941 95.3653C224.897 95.437 224.843 95.5018 224.803 95.5769C224.378 96.4228 224.262 97.3903 224.474 98.3127C224.687 99.2352 225.214 100.055 225.967 100.63C226.719 101.206 227.649 101.502 228.596 101.466C229.543 101.431 230.448 101.067 231.155 100.437C231.898 99.7658 232.389 98.8609 232.546 97.8726C232.703 96.8843 232.516 95.8721 232.017 95.0045ZM229.448 96.744C229.454 96.8432 229.457 96.7957 229.448 96.744V96.744ZM229.187 96.151C229.177 96.1395 229.178 96.1407 229.187 96.151V96.151ZM228.036 96.6132C228.019 96.5856 228.021 96.5895 228.036 96.6132V96.6132ZM228.309 96.8442C228.348 96.8616 228.374 96.8662 228.309 96.8442V96.8442ZM228.431 96.9021L228.458 96.8898C228.451 96.8904 228.445 96.8891 228.439 96.886L228.44 96.8859L228.461 96.8885L228.465 96.8867L228.452 96.8839C228.463 96.8835 228.464 96.885 228.465 96.8867C228.587 96.8309 228.504 96.8576 228.434 96.8795L228.429 96.8784C228.385 96.856 228.337 96.8408 228.288 96.8334C228.284 96.8308 228.278 96.829 228.275 96.8263C228.235 96.7984 228.037 96.6435 228.221 96.8059C228.181 96.7705 228.141 96.7358 228.104 96.6977C228.081 96.6749 228.061 96.6502 228.043 96.6238C228.019 96.5825 227.996 96.5407 227.973 96.4986L227.97 96.4759C227.967 96.457 227.965 96.4492 227.962 96.4379C227.963 96.4261 227.965 96.4136 227.967 96.4013C227.981 96.3645 227.989 96.326 227.993 96.2869L228.001 96.2769C228.03 96.2358 228.056 96.1879 228.084 96.1453C227.936 96.3707 228.142 96.1204 228.158 96.0887C228.16 96.0833 228.156 96.0862 228.157 96.0825C228.163 96.0791 228.161 96.0814 228.168 96.0772C228.214 96.0501 228.258 96.0199 228.305 95.994C228.361 95.9632 228.58 95.9009 228.352 95.9659C228.404 95.9512 228.454 95.9325 228.506 95.9189C228.515 95.9164 228.592 95.9057 228.633 95.8983C228.67 95.8974 228.705 95.8963 228.708 95.8964C228.726 95.8966 228.743 95.8986 228.76 95.8994C228.722 95.9044 228.889 95.9406 228.939 95.9482C228.946 95.9538 228.95 95.9574 228.959 95.9646C229.001 95.9952 229.053 96.0225 229.097 96.0511C228.899 95.9231 229.1 96.0613 229.137 96.0991C229.16 96.1218 229.181 96.1459 229.202 96.1697C229.222 96.1923 229.24 96.2165 229.255 96.2421C229.288 96.3016 229.322 96.3618 229.356 96.4203L229.366 96.4353C229.366 96.4373 229.366 96.4392 229.366 96.4412C229.383 96.5361 229.41 96.6293 229.444 96.7196C229.446 96.7272 229.447 96.7349 229.448 96.7427C229.451 96.7947 229.456 96.8466 229.456 96.8989L229.455 96.9094C229.297 96.8272 229.122 96.7837 228.944 96.7824C228.766 96.7811 228.59 96.8222 228.431 96.9021Z" fill="#E6E6E6"/>
<path d="M228.461 96.8887L228.458 96.8903L228.465 96.8887H228.461Z" fill="#E6E6E6"/>
<path d="M217.408 128.179L185.619 129.943C185.44 129.953 185.264 129.894 185.127 129.778C184.99 129.662 184.903 129.498 184.884 129.32C184.864 129.142 184.914 128.963 185.023 128.821C185.131 128.678 185.291 128.582 185.468 128.554L217.959 123.273L217.408 128.179Z" fill="#3F3D56"/>
<path d="M257.806 198.855L269.785 178.729L278.638 182.905C278.638 182.905 263.382 201.935 262.896 202.482C263.104 203.407 263.026 204.373 262.673 205.253C262.319 206.133 261.706 206.885 260.915 207.409C260.125 207.933 259.193 208.205 258.244 208.19C257.295 208.174 256.373 207.87 255.6 207.32C254.827 206.769 254.24 205.997 253.916 205.106C253.592 204.215 253.547 203.247 253.786 202.329C254.025 201.412 254.537 200.589 255.255 199.968C255.973 199.348 256.862 198.96 257.806 198.855Z" fill="#FFB6B6"/>
<path d="M262.789 152.104L282.196 162.216C283.409 163.088 284.426 164.204 285.183 165.492C285.939 166.779 286.418 168.21 286.59 169.693C286.761 171.176 286.62 172.679 286.177 174.104C285.734 175.53 284.997 176.848 284.015 177.973L270.636 193.301L264.807 185.413L269.299 176.032L260.601 173.741L262.789 152.104Z" fill="#59E5AB"/>
<path d="M207.482 128.507L205.297 151.818L195.505 151.835C195.505 151.835 201.123 128.111 201.327 127.409C200.742 126.662 200.398 125.756 200.34 124.809C200.282 123.863 200.513 122.922 201.002 122.109C201.492 121.297 202.217 120.652 203.081 120.26C203.945 119.869 204.909 119.748 205.843 119.915C206.778 120.081 207.639 120.527 208.314 121.194C208.99 121.86 209.446 122.716 209.624 123.647C209.802 124.578 209.692 125.542 209.31 126.409C208.927 127.277 208.29 128.008 207.482 128.507Z" fill="#FFB6B6"/>
<path d="M226.973 176.179L204.436 172.051C194.946 170.911 191.051 164.675 192.764 158.593L198.275 139.018L206.926 143.65L206.893 154.048L219.002 152.395L226.973 176.179Z" fill="#59E5AB"/>
<path d="M217.748 337.281H211.551L208.603 313.41H217.749L217.748 337.281Z" fill="#FFB6B6"/>
<path d="M217.966 343.739L198.91 343.738V343.498C198.91 341.533 199.692 339.649 201.083 338.26C202.474 336.871 204.36 336.091 206.327 336.09L209.809 333.453L216.303 336.091L217.967 336.091L217.966 343.739Z" fill="#2F2E41"/>
<path d="M261.595 337.281H267.791L270.739 313.41H261.593L261.595 337.281Z" fill="#FFB6B6"/>
<path d="M261.377 343.739L280.433 343.738V343.498C280.432 341.533 279.651 339.649 278.26 338.26C276.869 336.871 274.983 336.09 273.015 336.09L269.534 333.453L263.04 336.091L261.376 336.091L261.377 343.739Z" fill="#2F2E41"/>
<path d="M208.331 295.869C208.422 294.507 209.15 286.974 209.15 286.974L210.893 270.999L213.965 228.652L216.703 217.521L230.257 222.795L241.255 217.529L254.327 221.703L264.506 225.515C264.506 225.515 264.524 227.146 264.602 229.118C264.707 231.698 264.89 234.862 265.326 235.685C266.053 237.138 265.87 244.941 265.87 244.941C265.87 244.941 266.594 260.816 267.504 262.556C268.415 264.297 268.598 267.922 268.323 268.649C268.049 269.375 269.234 288.44 269.234 288.44C269.234 288.44 272.276 322.178 270.368 327.265C268.459 332.352 261.247 329.02 261.247 329.02C261.247 329.02 261.596 327.662 259.504 327.022C257.412 326.383 251.042 278.544 251.042 278.544C251.042 278.544 249.857 268.736 248.767 265.925C247.678 263.113 246.676 255.215 246.676 255.215C246.676 255.215 239.948 242.142 239.861 239.236C239.861 239.236 238.981 236.516 238.148 239.51C237.316 242.504 234.863 249.675 234.863 249.675L232.471 258.483L229.656 271.643L227.834 282.722C227.834 282.722 225.107 297.426 224.671 298.062C224.235 298.697 224.671 312.131 224.671 312.131C224.671 312.131 222.562 323.571 219.581 325.569C216.601 327.566 208.704 325.601 208.704 325.601C208.704 325.601 208.239 297.231 208.331 295.869Z" fill="#2F2E41"/>
<path d="M218.463 181.706L216.731 204.113L214.129 206.803C213.895 207.045 213.711 207.332 213.591 207.647C213.47 207.962 213.414 208.298 213.426 208.635C213.438 208.972 213.519 209.303 213.662 209.608C213.805 209.914 214.009 210.187 214.261 210.412L212.827 212.867L212.319 220.603C212.175 221.205 212.165 221.831 212.29 222.437C212.416 223.044 212.674 223.614 213.046 224.109C213.419 224.605 213.896 225.011 214.444 225.301C214.991 225.591 215.596 225.756 216.216 225.785L261.086 227.89C261.702 227.919 262.316 227.813 262.886 227.578C263.456 227.344 263.968 226.987 264.385 226.534C264.801 226.081 265.114 225.541 265.299 224.954C265.484 224.367 265.538 223.747 265.457 223.137L261.642 194.451V192.306L259.934 188.164L260.811 174.287L262.853 152.262L250.983 149.2L244.547 144.777L233.366 144.955L226.582 150.52L217.536 151.935L210.695 153.293L209.823 155.184L211.566 154.806L217.884 179.414L218.463 181.706Z" fill="#59E5AB"/>
<path d="M238.707 141.775C245.981 141.775 251.878 135.886 251.878 128.621C251.878 121.356 245.981 115.467 238.707 115.467C231.432 115.467 225.535 121.356 225.535 128.621C225.535 135.886 231.432 141.775 238.707 141.775Z" fill="#FFB6B6"/>
<path d="M235.531 140.926L245.048 140.441C246.267 140.379 247.598 140.271 248.485 139.433C248.962 138.916 249.329 138.307 249.563 137.644C250.443 135.603 251.323 133.562 252.18 131.511C253.366 128.675 254.531 125.681 254.228 122.622C254.157 121.225 253.571 119.904 252.582 118.914C252.077 118.437 251.428 118.14 250.737 118.07C250.045 118 249.35 118.161 248.76 118.527C248.613 117.56 248.248 116.638 247.692 115.833C247.137 115.027 246.405 114.358 245.552 113.876C243.83 112.926 241.864 112.509 239.903 112.68C237.059 112.863 234.344 113.932 232.14 115.736C231.52 116.307 230.858 116.831 230.159 117.303C229.808 117.538 229.412 117.699 228.996 117.775C228.581 117.852 228.154 117.844 227.742 117.75C227.333 117.641 226.978 117.388 226.742 117.038C226.506 116.688 226.405 116.264 226.457 115.846C225.787 116.346 225.328 117.078 225.168 117.898C225.009 118.719 225.162 119.569 225.596 120.284C225.102 120.49 224.563 120.566 224.031 120.503C223.499 120.44 222.993 120.241 222.561 119.925C222.098 120.154 221.688 120.478 221.358 120.874C221.027 121.271 220.783 121.732 220.641 122.229C220.5 122.725 220.463 123.245 220.535 123.757C220.606 124.268 220.784 124.758 221.056 125.197C221.328 125.636 221.689 126.013 222.115 126.304C222.542 126.595 223.025 126.795 223.533 126.889C224.041 126.983 224.563 126.97 225.066 126.852C225.569 126.733 226.041 126.51 226.453 126.198C227.03 127.006 226.815 128.104 226.74 129.094C226.665 130.084 226.931 131.314 227.886 131.588C229.178 131.957 230.224 130.22 231.568 130.239C231.899 130.266 232.219 130.374 232.498 130.554C232.778 130.734 233.009 130.98 233.17 131.27C233.487 131.854 233.704 132.486 233.812 133.14L235.531 140.872" fill="#2F2E41"/>
<path d="M606.586 259.203C606.586 257.167 605.901 255.513 605.06 255.51H375.797C374.952 255.513 374.271 257.167 374.267 259.203V343.054C374.267 343.243 374.197 343.425 374.07 343.565C373.942 343.705 373.768 343.793 373.579 343.812C372.964 343.87 372.348 343.925 371.733 343.976C371.718 343.976 371.703 343.98 371.687 343.98C371.353 344.01 371.018 344.033 370.683 344.06H370.679C370.507 343.742 370.336 343.421 370.168 343.097C370.111 342.988 370.082 342.867 370.082 342.744V254.411C370.082 253.849 370.104 253.283 370.142 252.724C370.197 251.957 370.292 251.193 370.428 250.436C371.071 246.906 372.524 244.515 374.176 244.508H606.678C606.919 244.509 607.157 244.56 607.378 244.656C607.702 244.799 607.996 245.005 608.242 245.26C608.575 245.607 608.861 245.997 609.09 246.419C610.038 248.305 610.583 250.366 610.692 252.473C610.692 252.496 610.696 252.519 610.696 252.542C610.749 253.157 610.776 253.784 610.772 254.411L610.825 262.555L610.86 267.412L610.962 282.651L611 288.063L611.168 343.623C611.168 343.824 611.088 344.018 610.945 344.16C610.802 344.303 610.609 344.383 610.407 344.383H607.347C607.146 344.383 606.952 344.303 606.809 344.16C606.667 344.018 606.586 343.824 606.586 343.623V259.203Z" fill="#E6E6E6"/>
<path d="M544.288 206.4H519.585C519.235 206.401 518.9 206.54 518.653 206.787C518.407 207.034 518.268 207.369 518.269 207.718V246.691H545.608V207.718C545.608 207.545 545.574 207.374 545.507 207.214C545.441 207.054 545.344 206.909 545.221 206.786C545.099 206.664 544.953 206.567 544.793 206.501C544.633 206.434 544.461 206.4 544.288 206.4ZM532.019 228.544C531.247 228.541 530.507 228.233 529.961 227.687C529.415 227.142 529.106 226.403 529.102 225.631V221.136C529.102 220.363 529.41 219.622 529.957 219.076C530.504 218.53 531.246 218.223 532.019 218.223C532.793 218.223 533.535 218.53 534.082 219.076C534.629 219.622 534.937 220.363 534.937 221.136V225.631C534.933 226.403 534.624 227.142 534.078 227.687C533.532 228.233 532.792 228.541 532.019 228.544Z" fill="#CCCCCC"/>
<path d="M518.184 245.445V249.205C518.184 249.4 518.262 249.587 518.4 249.725C518.538 249.863 518.725 249.94 518.92 249.941H544.956C545.151 249.94 545.338 249.862 545.476 249.724C545.614 249.586 545.692 249.4 545.692 249.205V245.445H518.184Z" fill="#3F3D56"/>
<path d="M585.195 145.578H479.597C478.69 145.58 477.82 145.94 477.179 146.581C476.537 147.221 476.176 148.09 476.175 148.996V220.161C476.175 221.067 476.536 221.936 477.178 222.576C477.82 223.217 478.69 223.578 479.597 223.579H585.195C586.102 223.578 586.972 223.217 587.614 222.576C588.256 221.936 588.617 221.067 588.617 220.161V148.996C588.616 148.09 588.255 147.221 587.613 146.581C586.972 145.94 586.102 145.58 585.195 145.578Z" fill="#E6E6E6"/>
<path d="M584.314 148.047H480.479C479.994 148.048 479.528 148.241 479.185 148.585C478.842 148.928 478.649 149.393 478.649 149.879V219.279C478.65 219.764 478.843 220.228 479.186 220.571C479.529 220.913 479.994 221.106 480.479 221.107H584.314C584.799 221.106 585.264 220.913 585.607 220.571C585.95 220.228 586.143 219.764 586.144 219.279V149.879C586.144 149.393 585.951 148.928 585.608 148.585C585.265 148.241 584.799 148.048 584.314 148.047Z" fill="white"/>
<path d="M564.088 251.248H502.313C502.144 251.248 501.977 251.21 501.824 251.138C501.671 251.065 501.537 250.959 501.43 250.828C501.324 250.697 501.248 250.544 501.208 250.38C501.168 250.216 501.166 250.045 501.201 249.879L502.159 245.333C502.214 245.078 502.354 244.85 502.556 244.686C502.758 244.522 503.011 244.433 503.271 244.432H563.13C563.39 244.433 563.643 244.522 563.845 244.686C564.047 244.85 564.187 245.078 564.242 245.333L565.2 249.879C565.235 250.045 565.233 250.216 565.193 250.38C565.153 250.544 565.077 250.697 564.971 250.828C564.864 250.959 564.73 251.065 564.577 251.138C564.424 251.21 564.257 251.248 564.088 251.248Z" fill="#CCCCCC"/>
<path d="M505.279 245.252H504.044C503.859 245.252 503.71 245.401 503.71 245.585V246.059C503.71 246.243 503.859 246.392 504.044 246.392H505.279C505.463 246.392 505.612 246.243 505.612 246.059V245.585C505.612 245.401 505.463 245.252 505.279 245.252Z" fill="#E6E6E6"/>
<path d="M509.084 245.252H507.849C507.664 245.252 507.515 245.401 507.515 245.585V246.059C507.515 246.243 507.664 246.392 507.849 246.392H509.084C509.268 246.392 509.418 246.243 509.418 246.059V245.585C509.418 245.401 509.268 245.252 509.084 245.252Z" fill="#E6E6E6"/>
<path d="M512.889 245.252H511.654C511.47 245.252 511.32 245.401 511.32 245.585V246.059C511.32 246.243 511.47 246.392 511.654 246.392H512.889C513.074 246.392 513.223 246.243 513.223 246.059V245.585C513.223 245.401 513.074 245.252 512.889 245.252Z" fill="#E6E6E6"/>
<path d="M516.694 245.252H515.459C515.275 245.252 515.125 245.401 515.125 245.585V246.059C515.125 246.243 515.275 246.392 515.459 246.392H516.694C516.879 246.392 517.028 246.243 517.028 246.059V245.585C517.028 245.401 516.879 245.252 516.694 245.252Z" fill="#E6E6E6"/>
<path d="M520.5 245.252H519.265C519.08 245.252 518.931 245.401 518.931 245.585V246.059C518.931 246.243 519.08 246.392 519.265 246.392H520.5C520.684 246.392 520.834 246.243 520.834 246.059V245.585C520.834 245.401 520.684 245.252 520.5 245.252Z" fill="#E6E6E6"/>
<path d="M524.305 245.252H523.07C522.885 245.252 522.736 245.401 522.736 245.585V246.059C522.736 246.243 522.885 246.392 523.07 246.392H524.305C524.489 246.392 524.639 246.243 524.639 246.059V245.585C524.639 245.401 524.489 245.252 524.305 245.252Z" fill="#E6E6E6"/>
<path d="M528.11 245.252H526.875C526.691 245.252 526.541 245.401 526.541 245.585V246.059C526.541 246.243 526.691 246.392 526.875 246.392H528.11C528.295 246.392 528.444 246.243 528.444 246.059V245.585C528.444 245.401 528.295 245.252 528.11 245.252Z" fill="#E6E6E6"/>
<path d="M531.916 245.252H530.68C530.496 245.252 530.347 245.401 530.347 245.585V246.059C530.347 246.243 530.496 246.392 530.68 246.392H531.916C532.1 246.392 532.249 246.243 532.249 246.059V245.585C532.249 245.401 532.1 245.252 531.916 245.252Z" fill="#E6E6E6"/>
<path d="M535.721 245.252H534.486C534.301 245.252 534.152 245.401 534.152 245.585V246.059C534.152 246.243 534.301 246.392 534.486 246.392H535.721C535.905 246.392 536.054 246.243 536.054 246.059V245.585C536.054 245.401 535.905 245.252 535.721 245.252Z" fill="#E6E6E6"/>
<path d="M539.526 245.252H538.291C538.106 245.252 537.957 245.401 537.957 245.585V246.059C537.957 246.243 538.106 246.392 538.291 246.392H539.526C539.71 246.392 539.86 246.243 539.86 246.059V245.585C539.86 245.401 539.71 245.252 539.526 245.252Z" fill="#E6E6E6"/>
<path d="M543.331 245.252H542.096C541.912 245.252 541.762 245.401 541.762 245.585V246.059C541.762 246.243 541.912 246.392 542.096 246.392H543.331C543.516 246.392 543.665 246.243 543.665 246.059V245.585C543.665 245.401 543.516 245.252 543.331 245.252Z" fill="#E6E6E6"/>
<path d="M547.137 245.252H545.901C545.717 245.252 545.568 245.401 545.568 245.585V246.059C545.568 246.243 545.717 246.392 545.901 246.392H547.137C547.321 246.392 547.47 246.243 547.47 246.059V245.585C547.47 245.401 547.321 245.252 547.137 245.252Z" fill="#E6E6E6"/>
<path d="M550.942 245.252H549.707C549.522 245.252 549.373 245.401 549.373 245.585V246.059C549.373 246.243 549.522 246.392 549.707 246.392H550.942C551.126 246.392 551.276 246.243 551.276 246.059V245.585C551.276 245.401 551.126 245.252 550.942 245.252Z" fill="#E6E6E6"/>
<path d="M554.747 245.252H553.512C553.328 245.252 553.178 245.401 553.178 245.585V246.059C553.178 246.243 553.328 246.392 553.512 246.392H554.747C554.931 246.392 555.081 246.243 555.081 246.059V245.585C555.081 245.401 554.931 245.252 554.747 245.252Z" fill="#E6E6E6"/>
<path d="M558.552 245.252H557.317C557.133 245.252 556.983 245.401 556.983 245.585V246.059C556.983 246.243 557.133 246.392 557.317 246.392H558.552C558.737 246.392 558.886 246.243 558.886 246.059V245.585C558.886 245.401 558.737 245.252 558.552 245.252Z" fill="#E6E6E6"/>
<path d="M562.358 245.252H561.122C560.938 245.252 560.789 245.401 560.789 245.585V246.059C560.789 246.243 560.938 246.392 561.122 246.392H562.358C562.542 246.392 562.691 246.243 562.691 246.059V245.585C562.691 245.401 562.542 245.252 562.358 245.252Z" fill="#E6E6E6"/>
<path d="M505.234 247.15H503.999C503.814 247.15 503.665 247.3 503.665 247.484V247.957C503.665 248.141 503.814 248.29 503.999 248.29H505.234C505.418 248.29 505.567 248.141 505.567 247.957V247.484C505.567 247.3 505.418 247.15 505.234 247.15Z" fill="#E6E6E6"/>
<path d="M509.039 247.15H507.804C507.62 247.15 507.47 247.3 507.47 247.484V247.957C507.47 248.141 507.62 248.29 507.804 248.29H509.039C509.223 248.29 509.373 248.141 509.373 247.957V247.484C509.373 247.3 509.223 247.15 509.039 247.15Z" fill="#E6E6E6"/>
<path d="M512.844 247.15H511.609C511.425 247.15 511.275 247.3 511.275 247.484V247.957C511.275 248.141 511.425 248.29 511.609 248.29H512.844C513.029 248.29 513.178 248.141 513.178 247.957V247.484C513.178 247.3 513.029 247.15 512.844 247.15Z" fill="#E6E6E6"/>
<path d="M516.649 247.15H515.414C515.23 247.15 515.081 247.3 515.081 247.484V247.957C515.081 248.141 515.23 248.29 515.414 248.29H516.649C516.834 248.29 516.983 248.141 516.983 247.957V247.484C516.983 247.3 516.834 247.15 516.649 247.15Z" fill="#E6E6E6"/>
<path d="M520.455 247.15H519.22C519.035 247.15 518.886 247.3 518.886 247.484V247.957C518.886 248.141 519.035 248.29 519.22 248.29H520.455C520.639 248.29 520.789 248.141 520.789 247.957V247.484C520.789 247.3 520.639 247.15 520.455 247.15Z" fill="#E6E6E6"/>
<path d="M524.26 247.15H523.025C522.841 247.15 522.691 247.3 522.691 247.484V247.957C522.691 248.141 522.841 248.29 523.025 248.29H524.26C524.444 248.29 524.594 248.141 524.594 247.957V247.484C524.594 247.3 524.444 247.15 524.26 247.15Z" fill="#E6E6E6"/>
<path d="M528.065 247.15H526.83C526.646 247.15 526.496 247.3 526.496 247.484V247.957C526.496 248.141 526.646 248.29 526.83 248.29H528.065C528.25 248.29 528.399 248.141 528.399 247.957V247.484C528.399 247.3 528.25 247.15 528.065 247.15Z" fill="#E6E6E6"/>
<path d="M531.871 247.15H530.636C530.451 247.15 530.302 247.3 530.302 247.484V247.957C530.302 248.141 530.451 248.29 530.636 248.29H531.871C532.055 248.29 532.204 248.141 532.204 247.957V247.484C532.204 247.3 532.055 247.15 531.871 247.15Z" fill="#E6E6E6"/>
<path d="M535.676 247.15H534.441C534.256 247.15 534.107 247.3 534.107 247.484V247.957C534.107 248.141 534.256 248.29 534.441 248.29H535.676C535.86 248.29 536.01 248.141 536.01 247.957V247.484C536.01 247.3 535.86 247.15 535.676 247.15Z" fill="#E6E6E6"/>
<path d="M539.481 247.15H538.246C538.062 247.15 537.912 247.3 537.912 247.484V247.957C537.912 248.141 538.062 248.29 538.246 248.29H539.481C539.665 248.29 539.815 248.141 539.815 247.957V247.484C539.815 247.3 539.665 247.15 539.481 247.15Z" fill="#E6E6E6"/>
<path d="M543.286 247.15H542.051C541.867 247.15 541.717 247.3 541.717 247.484V247.957C541.717 248.141 541.867 248.29 542.051 248.29H543.286C543.471 248.29 543.62 248.141 543.62 247.957V247.484C543.62 247.3 543.471 247.15 543.286 247.15Z" fill="#E6E6E6"/>
<path d="M547.092 247.15H545.856C545.672 247.15 545.523 247.3 545.523 247.484V247.957C545.523 248.141 545.672 248.29 545.856 248.29H547.092C547.276 248.29 547.425 248.141 547.425 247.957V247.484C547.425 247.3 547.276 247.15 547.092 247.15Z" fill="#E6E6E6"/>
<path d="M550.897 247.15H549.662C549.478 247.15 549.328 247.3 549.328 247.484V247.957C549.328 248.141 549.478 248.29 549.662 248.29H550.897C551.081 248.29 551.231 248.141 551.231 247.957V247.484C551.231 247.3 551.081 247.15 550.897 247.15Z" fill="#E6E6E6"/>
<path d="M554.702 247.15H553.467C553.283 247.15 553.133 247.3 553.133 247.484V247.957C553.133 248.141 553.283 248.29 553.467 248.29H554.702C554.887 248.29 555.036 248.141 555.036 247.957V247.484C555.036 247.3 554.887 247.15 554.702 247.15Z" fill="#E6E6E6"/>
<path d="M558.507 247.15H557.272C557.088 247.15 556.938 247.3 556.938 247.484V247.957C556.938 248.141 557.088 248.29 557.272 248.29H558.507C558.692 248.29 558.841 248.141 558.841 247.957V247.484C558.841 247.3 558.692 247.15 558.507 247.15Z" fill="#E6E6E6"/>
<path d="M562.313 247.15H561.078C560.893 247.15 560.744 247.3 560.744 247.484V247.957C560.744 248.141 560.893 248.29 561.078 248.29H562.313C562.497 248.29 562.646 248.141 562.646 247.957V247.484C562.646 247.3 562.497 247.15 562.313 247.15Z" fill="#E6E6E6"/>
<path d="M536.817 249.432H522.264C522.08 249.432 521.93 249.581 521.93 249.765V250.238C521.93 250.422 522.08 250.572 522.264 250.572H536.817C537.002 250.572 537.151 250.422 537.151 250.238V249.765C537.151 249.581 537.002 249.432 536.817 249.432Z" fill="#E6E6E6"/>
<path d="M579.094 157.61H481.937C481.836 157.607 481.74 157.566 481.669 157.494C481.598 157.421 481.559 157.325 481.559 157.224C481.559 157.123 481.598 157.026 481.669 156.954C481.74 156.882 481.836 156.84 481.937 156.838H579.094C579.195 156.84 579.291 156.882 579.362 156.954C579.432 157.026 579.472 157.123 579.472 157.224C579.472 157.325 579.432 157.421 579.362 157.494C579.291 157.566 579.195 157.607 579.094 157.61Z" fill="#CACACA"/>
<path d="M488.55 154.868C489.801 154.868 490.815 153.833 490.815 152.556C490.815 151.279 489.801 150.244 488.55 150.244C487.3 150.244 486.286 151.279 486.286 152.556C486.286 153.833 487.3 154.868 488.55 154.868Z" fill="#CCCCCC"/>
<path d="M496.372 154.868C497.623 154.868 498.637 153.833 498.637 152.556C498.637 151.279 497.623 150.244 496.372 150.244C495.122 150.244 494.108 151.279 494.108 152.556C494.108 153.833 495.122 154.868 496.372 154.868Z" fill="#CCCCCC"/>
<path d="M504.195 154.868C505.445 154.868 506.459 153.833 506.459 152.556C506.459 151.279 505.445 150.244 504.195 150.244C502.944 150.244 501.93 151.279 501.93 152.556C501.93 153.833 502.944 154.868 504.195 154.868Z" fill="#CCCCCC"/>
<path d="M574.384 150.816H568.828C568.718 150.819 568.613 150.864 568.536 150.942C568.459 151.021 568.416 151.127 568.416 151.237C568.416 151.347 568.459 151.452 568.536 151.531C568.613 151.609 568.718 151.655 568.828 151.657H574.384C574.495 151.655 574.6 151.609 574.677 151.531C574.754 151.452 574.797 151.347 574.797 151.237C574.797 151.127 574.754 151.021 574.677 150.942C574.6 150.864 574.495 150.819 574.384 150.816Z" fill="#CCCCCC"/>
<path d="M574.385 152.395H568.828C568.718 152.397 568.613 152.442 568.536 152.521C568.459 152.599 568.416 152.705 568.416 152.815C568.416 152.925 568.459 153.03 568.536 153.109C568.613 153.187 568.718 153.233 568.828 153.235H574.385C574.495 153.233 574.599 153.187 574.677 153.109C574.754 153.03 574.797 152.925 574.797 152.815C574.797 152.705 574.754 152.599 574.677 152.521C574.599 152.442 574.495 152.397 574.385 152.395Z" fill="#CCCCCC"/>
<path d="M574.384 153.969H568.828C568.718 153.971 568.613 154.016 568.536 154.095C568.459 154.173 568.416 154.279 568.416 154.389C568.416 154.499 568.459 154.605 568.536 154.683C568.613 154.762 568.718 154.807 568.828 154.809H574.384C574.495 154.807 574.6 154.762 574.677 154.683C574.754 154.605 574.797 154.499 574.797 154.389C574.797 154.279 574.754 154.173 574.677 154.095C574.6 154.016 574.495 153.971 574.384 153.969Z" fill="#CCCCCC"/>
<path d="M538.36 178.631H526.219C525.308 178.631 524.568 179.369 524.568 180.28C524.568 181.19 525.308 181.929 526.219 181.929H538.36C539.272 181.929 540.011 181.19 540.011 180.28C540.011 179.369 539.272 178.631 538.36 178.631Z" fill="#59E5AB"/>
<path d="M546.203 185.227H518.377C517.465 185.227 516.726 185.965 516.726 186.875C516.726 187.786 517.465 188.524 518.377 188.524H546.203C547.114 188.524 547.854 187.786 547.854 186.875C547.854 185.965 547.114 185.227 546.203 185.227Z" fill="#E6E6E6"/>
<path d="M546.203 191.822H518.377C517.465 191.822 516.726 192.561 516.726 193.471C516.726 194.382 517.465 195.12 518.377 195.12H546.203C547.114 195.12 547.854 194.382 547.854 193.471C547.854 192.561 547.114 191.822 546.203 191.822Z" fill="#E6E6E6"/>
<path d="M358.737 294.579L353.14 291.905L360.828 268.543L369.088 272.488L358.737 294.579Z" fill="#FFB6B6"/>
<path d="M396.258 290.813C395.851 291.067 395.444 291.318 395.033 291.568C394.215 292.069 393.388 292.562 392.562 293.046C392.147 293.288 391.728 293.531 391.312 293.769V293.781L391.288 293.785L391.279 293.789L390.646 293.945L389.738 291.547L389.319 290.443L388.727 288.879L387.641 286.017L381.927 270.95L390.811 268.762L391.144 270.121H391.148L391.312 270.794L394.416 283.365L395.049 285.935L395.07 286.013L395.452 287.549L395.781 288.879L396.147 290.365L396.258 290.813Z" fill="#FFB6B6"/>
<path d="M449.253 237.898C448.689 238.801 448.114 239.7 447.534 240.591C446.457 242.25 445.351 243.884 444.217 245.493C444.217 245.497 444.213 245.497 444.209 245.501C443.547 246.114 442.815 246.647 442.03 247.09C441.997 247.115 441.96 247.131 441.927 247.152C441.348 247.471 440.733 247.718 440.094 247.887C439.863 247.944 439.629 248.002 439.399 248.059C438.568 248.256 437.746 248.425 436.928 248.572C435.473 248.831 434.034 249.016 432.603 249.131C432.488 249.143 432.373 249.151 432.258 249.159C426.375 249.591 420.649 248.897 414.672 247.76C411.72 247.201 408.707 246.532 405.586 245.838C404.567 245.608 403.543 245.382 402.507 245.157C402.429 245.14 402.347 245.12 402.265 245.103C400.785 244.779 399.28 244.459 397.739 244.143C395.798 243.744 393.796 243.358 391.716 242.993L391.864 245.92C391.987 248.172 392.456 250.392 393.254 252.501C394.142 255.096 394.844 257.149 393.36 261.423L392.645 263.492C393.016 264.52 393.143 265.619 393.017 266.704C392.891 267.789 392.514 268.83 391.917 269.745L391.774 269.962L397.739 285.034L398.125 286.011H395.071L391.313 286.015H384.945L375.757 267.606L375.318 266.727V266.682L376.267 231.304C376.279 230.992 376.304 230.676 376.345 230.364C376.513 228.946 376.961 227.575 377.665 226.331C378.369 225.088 379.313 223.997 380.444 223.122C381.527 222.277 382.768 221.655 384.094 221.292C385.42 220.93 386.805 220.835 388.168 221.012L391.313 221.418L397.739 222.248L402.265 222.835L402.355 222.847L415.703 224.571L416.661 220.671L416.838 220.605L422.458 218.549L441.894 211.434L441.943 211.417L443.222 210.949L443.374 211.196C443.419 211.269 443.464 211.343 443.506 211.417C444.769 213.68 445.798 216.065 446.576 218.536C447.885 222.573 448.963 226.681 449.804 230.841C449.841 231.021 449.873 231.185 449.902 231.333L449.914 231.378C449.927 231.448 449.935 231.493 449.939 231.506C450.324 233.658 450.086 235.876 449.253 237.898Z" fill="#2F2E41"/>
<path d="M450.073 224.86C450.011 224.597 449.933 224.331 449.851 224.072C449.198 222.113 448.438 220.191 447.574 218.316C446.603 216.181 445.44 213.894 444.055 211.419C443.385 210.22 442.664 208.973 441.892 207.679C441.506 207.03 441.104 206.369 440.688 205.696C440.672 205.665 440.654 205.634 440.634 205.605L440.515 205.408L421.284 207.978L414.123 208.935L413.695 212.498L413.593 213.381C413.589 213.381 413.589 213.381 413.593 213.385L413.305 215.791V215.795L412.923 218.973L412.89 218.969L402.263 217.593L391.311 216.177L385.429 215.418C384.065 215.24 382.68 215.335 381.354 215.698C380.028 216.06 378.787 216.682 377.704 217.528C376.574 218.403 375.63 219.494 374.926 220.737C374.222 221.981 373.773 223.352 373.606 224.77C373.569 225.057 373.544 225.353 373.532 225.644L367.982 238.778C364.661 246.633 362.546 254.943 361.709 263.428L357.639 276.422L358.218 276.475L366.843 277.276L369.121 277.489L374.136 270.177C374.707 269.344 375.25 268.486 375.756 267.607C376.588 266.172 377.328 264.686 377.971 263.157L388.82 237.374C389.659 237.518 390.489 237.655 391.311 237.785C395.114 238.4 398.765 238.903 402.263 239.291C413.638 240.56 423.488 240.658 432.256 239.583C434.719 239.283 437.099 238.889 439.397 238.4C440.24 238.224 441.072 238.034 441.892 237.83C442.086 237.785 442.275 237.739 442.464 237.69C444.163 237.253 445.725 236.396 447.007 235.2C448.289 234.004 449.25 232.505 449.802 230.842C450.461 228.915 450.555 226.839 450.073 224.86Z" fill="#2F2E41"/>
<path d="M360.525 290.762L354.469 287.864L353.52 287.408L352.003 291.128L341.413 293.456C340.889 293.57 340.416 293.849 340.063 294.252C339.709 294.654 339.493 295.159 339.447 295.692C339.402 296.225 339.528 296.759 339.807 297.216C340.087 297.673 340.506 298.028 341.002 298.23L351.349 302.447L354.634 299.495L353.828 303.457L357.725 305.046L361.996 291.469L360.525 290.762Z" fill="#2F2E41"/>
<path d="M397.738 285.035L398.125 286.012H397.738V285.035Z" fill="#2F2E41"/>
<path d="M395.63 286.22L389.285 288.415L388.289 288.759L389.832 292.468L383.947 301.563C383.655 302.013 383.516 302.543 383.548 303.078C383.58 303.612 383.783 304.122 384.126 304.534C384.469 304.945 384.935 305.236 385.455 305.364C385.976 305.492 386.524 305.45 387.019 305.245L397.342 300.97L397.596 296.565L399.815 299.946L403.703 298.336L397.173 285.688L395.63 286.22Z" fill="#2F2E41"/>
<path d="M357.119 150.379C357.42 150.964 357.846 151.477 358.366 151.88C358.887 152.283 359.489 152.568 360.132 152.713C360.774 152.858 361.441 152.861 362.085 152.722C362.729 152.582 363.334 152.303 363.858 151.905L377.2 160.75L377.226 152.439L364.552 145.313C363.823 144.478 362.813 143.939 361.713 143.798C360.613 143.658 359.499 143.925 358.583 144.549C357.666 145.173 357.011 146.112 356.742 147.186C356.472 148.261 356.606 149.397 357.119 150.379Z" fill="#FFB6B6"/>
<path d="M367.087 154.221L373.312 147.148L398.658 162.176L432.257 159.103C433.918 158.951 435.592 159.166 437.16 159.733C438.728 160.3 440.152 161.205 441.331 162.383C442.51 163.561 443.414 164.984 443.98 166.551C444.546 168.118 444.76 169.79 444.606 171.448C444.326 174.443 442.866 177.205 440.549 179.127C438.232 181.049 435.246 181.975 432.246 181.7L394.405 178.203L367.087 154.221Z" fill="#CCCCCC"/>
<path d="M445.07 154.33L445.011 154.257C440.285 153.791 435.524 154.705 431.307 156.887C427.09 159.069 423.597 162.427 421.253 166.552L418.401 171.568C409.178 182.829 415.88 190.595 416.281 191.75L413.08 206.492L413.797 211.425L414.156 212.891L450.7 231.961C452.781 221.977 450.769 213.47 443.189 206.971L450.523 184.181C452.149 179.142 452.502 173.78 451.551 168.572C450.599 163.364 448.373 158.471 445.07 154.33Z" fill="#CCCCCC"/>
<path d="M416.012 265.045H404.29C403.645 265.044 403.022 264.811 402.536 264.389C402.049 263.967 401.731 263.383 401.641 262.746C400.917 257.426 400.917 252.034 401.641 246.715C401.73 246.085 402.042 245.507 402.519 245.086C402.996 244.665 403.608 244.427 404.245 244.416C407.933 242.765 411.905 242.765 416.053 244.416C416.439 244.421 416.819 244.51 417.167 244.678C417.515 244.846 417.822 245.087 418.067 245.386C418.322 245.697 418.504 246.06 418.601 246.45C418.698 246.84 418.706 247.246 418.626 247.64C417.684 252.32 417.684 257.14 418.626 261.82C418.706 262.214 418.698 262.62 418.601 263.01C418.504 263.4 418.322 263.764 418.067 264.074C417.818 264.378 417.505 264.623 417.149 264.791C416.794 264.959 416.405 265.045 416.012 265.045Z" fill="#59E5AB"/>
<path d="M414.785 250.529H404.918C404.837 250.529 404.756 250.514 404.681 250.483C404.605 250.453 404.537 250.407 404.479 250.35C404.421 250.293 404.375 250.225 404.344 250.15C404.313 250.075 404.296 249.994 404.296 249.913C404.296 249.831 404.313 249.751 404.344 249.676C404.375 249.601 404.421 249.533 404.479 249.475C404.537 249.418 404.605 249.373 404.681 249.342C404.756 249.312 404.837 249.296 404.918 249.297H414.785C414.866 249.296 414.947 249.312 415.022 249.342C415.098 249.373 415.166 249.418 415.224 249.475C415.282 249.533 415.328 249.601 415.359 249.676C415.391 249.751 415.407 249.831 415.407 249.913C415.407 249.994 415.391 250.075 415.359 250.15C415.328 250.225 415.282 250.293 415.224 250.35C415.166 250.407 415.098 250.453 415.022 250.483C414.947 250.514 414.866 250.529 414.785 250.529Z" fill="white"/>
<path d="M414.785 255.454H404.918C404.837 255.455 404.756 255.44 404.681 255.409C404.605 255.378 404.537 255.333 404.479 255.276C404.421 255.219 404.375 255.151 404.344 255.075C404.313 255 404.296 254.92 404.296 254.838C404.296 254.757 404.313 254.677 404.344 254.602C404.375 254.526 404.421 254.458 404.479 254.401C404.537 254.344 404.605 254.299 404.681 254.268C404.756 254.237 404.837 254.222 404.918 254.223H414.785C414.866 254.222 414.947 254.237 415.022 254.268C415.098 254.299 415.166 254.344 415.224 254.401C415.282 254.458 415.328 254.526 415.359 254.602C415.391 254.677 415.407 254.757 415.407 254.838C415.407 254.92 415.391 255 415.359 255.075C415.328 255.151 415.282 255.219 415.224 255.276C415.166 255.333 415.098 255.378 415.022 255.409C414.947 255.44 414.866 255.455 414.785 255.454Z" fill="white"/>
<path d="M414.785 260.382H404.918C404.837 260.383 404.756 260.367 404.681 260.337C404.605 260.306 404.537 260.261 404.479 260.204C404.421 260.147 404.375 260.078 404.344 260.003C404.312 259.928 404.296 259.848 404.296 259.766C404.296 259.685 404.312 259.604 404.344 259.529C404.375 259.454 404.421 259.386 404.479 259.329C404.537 259.271 404.605 259.226 404.681 259.196C404.756 259.165 404.837 259.15 404.918 259.15H414.785C414.866 259.15 414.947 259.165 415.023 259.196C415.098 259.226 415.167 259.271 415.225 259.329C415.282 259.386 415.328 259.454 415.36 259.529C415.391 259.604 415.407 259.685 415.407 259.766C415.407 259.848 415.391 259.928 415.36 260.003C415.328 260.078 415.282 260.147 415.225 260.204C415.167 260.261 415.098 260.306 415.023 260.337C414.947 260.367 414.866 260.383 414.785 260.382Z" fill="white"/>
<path d="M359.268 154.437H347.546C346.901 154.437 346.278 154.204 345.792 153.782C345.305 153.359 344.987 152.776 344.897 152.138C344.173 146.819 344.173 141.426 344.897 136.107C344.986 135.477 345.297 134.9 345.775 134.479C346.252 134.057 346.864 133.82 347.501 133.809C351.189 132.158 355.161 132.158 359.309 133.808C359.695 133.813 360.075 133.903 360.423 134.071C360.771 134.238 361.078 134.48 361.323 134.778C361.578 135.089 361.76 135.453 361.857 135.843C361.953 136.232 361.962 136.639 361.882 137.033C360.94 141.713 360.94 146.533 361.882 151.213C361.962 151.606 361.953 152.013 361.857 152.403C361.76 152.793 361.578 153.156 361.323 153.467C361.074 153.771 360.76 154.016 360.405 154.183C360.05 154.351 359.661 154.438 359.268 154.437Z" fill="#59E5AB"/>
<path d="M358.041 139.919H348.174C348.093 139.92 348.012 139.904 347.937 139.874C347.861 139.843 347.793 139.798 347.735 139.741C347.677 139.683 347.631 139.615 347.6 139.54C347.568 139.465 347.552 139.385 347.552 139.303C347.552 139.222 347.568 139.141 347.6 139.066C347.631 138.991 347.677 138.923 347.735 138.866C347.793 138.809 347.861 138.763 347.937 138.733C348.012 138.702 348.093 138.687 348.174 138.688H358.041C358.122 138.687 358.203 138.702 358.278 138.733C358.354 138.763 358.422 138.809 358.48 138.866C358.538 138.923 358.584 138.991 358.615 139.066C358.647 139.141 358.663 139.222 358.663 139.303C358.663 139.385 358.647 139.465 358.615 139.54C358.584 139.615 358.538 139.683 358.48 139.741C358.422 139.798 358.354 139.843 358.278 139.874C358.203 139.904 358.122 139.92 358.041 139.919Z" fill="white"/>
<path d="M358.041 144.847H348.174C348.093 144.848 348.012 144.832 347.937 144.802C347.861 144.771 347.793 144.726 347.735 144.668C347.677 144.611 347.631 144.543 347.6 144.468C347.568 144.393 347.552 144.312 347.552 144.231C347.552 144.15 347.568 144.069 347.6 143.994C347.631 143.919 347.677 143.851 347.735 143.794C347.793 143.736 347.861 143.691 347.937 143.661C348.012 143.63 348.093 143.615 348.174 143.615H358.041C358.122 143.615 358.203 143.63 358.278 143.661C358.354 143.691 358.422 143.736 358.48 143.794C358.538 143.851 358.584 143.919 358.615 143.994C358.647 144.069 358.663 144.15 358.663 144.231C358.663 144.312 358.647 144.393 358.615 144.468C358.584 144.543 358.538 144.611 358.48 144.668C358.422 144.726 358.354 144.771 358.278 144.802C358.203 144.832 358.122 144.848 358.041 144.847Z" fill="white"/>
<path d="M358.04 149.773H348.174C348.093 149.773 348.012 149.758 347.936 149.728C347.861 149.697 347.792 149.652 347.734 149.594C347.677 149.537 347.631 149.469 347.599 149.394C347.568 149.319 347.552 149.238 347.552 149.157C347.552 149.076 347.568 148.995 347.599 148.92C347.631 148.845 347.677 148.777 347.734 148.719C347.792 148.662 347.861 148.617 347.936 148.586C348.012 148.556 348.093 148.54 348.174 148.541H358.04C358.122 148.54 358.203 148.556 358.278 148.586C358.354 148.617 358.422 148.662 358.48 148.719C358.538 148.777 358.584 148.845 358.615 148.92C358.647 148.995 358.663 149.076 358.663 149.157C358.663 149.238 358.647 149.319 358.615 149.394C358.584 149.469 358.538 149.537 358.48 149.594C358.422 149.652 358.354 149.697 358.278 149.728C358.203 149.758 358.122 149.773 358.04 149.773Z" fill="white"/>
<path d="M153.485 184.478H141.763C141.118 184.478 140.495 184.245 140.008 183.823C139.522 183.4 139.204 182.817 139.113 182.179C138.39 176.86 138.39 171.467 139.113 166.148C139.203 165.518 139.514 164.941 139.992 164.52C140.469 164.098 141.081 163.861 141.718 163.85C145.406 162.199 149.378 162.199 153.525 163.849C153.912 163.854 154.292 163.944 154.64 164.112C154.988 164.279 155.295 164.521 155.539 164.819C155.794 165.13 155.977 165.494 156.074 165.884C156.17 166.274 156.179 166.68 156.098 167.074C155.157 171.754 155.157 176.574 156.098 181.254C156.179 181.647 156.17 182.054 156.074 182.444C155.977 182.834 155.794 183.197 155.539 183.508C155.291 183.812 154.977 184.057 154.622 184.224C154.266 184.392 153.878 184.479 153.485 184.478Z" fill="#59E5AB"/>
<path d="M152.257 169.962H142.391C142.31 169.963 142.229 169.947 142.153 169.917C142.078 169.886 142.009 169.841 141.952 169.784C141.894 169.726 141.848 169.658 141.817 169.583C141.785 169.508 141.769 169.428 141.769 169.346C141.769 169.265 141.785 169.184 141.817 169.109C141.848 169.034 141.894 168.966 141.952 168.909C142.009 168.852 142.078 168.806 142.153 168.776C142.229 168.745 142.31 168.73 142.391 168.73H152.257C152.339 168.73 152.42 168.745 152.495 168.776C152.57 168.806 152.639 168.852 152.697 168.909C152.755 168.966 152.801 169.034 152.832 169.109C152.863 169.184 152.879 169.265 152.879 169.346C152.879 169.428 152.863 169.508 152.832 169.583C152.801 169.658 152.755 169.726 152.697 169.784C152.639 169.841 152.57 169.886 152.495 169.917C152.42 169.947 152.339 169.963 152.257 169.962Z" fill="white"/>
<path d="M152.257 174.888H142.391C142.31 174.889 142.229 174.873 142.153 174.843C142.078 174.812 142.009 174.767 141.952 174.709C141.894 174.652 141.848 174.584 141.817 174.509C141.785 174.434 141.769 174.353 141.769 174.272C141.769 174.191 141.785 174.11 141.817 174.035C141.848 173.96 141.894 173.892 141.952 173.835C142.009 173.777 142.078 173.732 142.153 173.702C142.229 173.671 142.31 173.656 142.391 173.656H152.257C152.339 173.656 152.42 173.671 152.495 173.702C152.57 173.732 152.639 173.777 152.697 173.835C152.755 173.892 152.801 173.96 152.832 174.035C152.863 174.11 152.879 174.191 152.879 174.272C152.879 174.353 152.863 174.434 152.832 174.509C152.801 174.584 152.755 174.652 152.697 174.709C152.639 174.767 152.57 174.812 152.495 174.843C152.42 174.873 152.339 174.889 152.257 174.888Z" fill="white"/>
<path d="M152.258 179.816H142.391C142.31 179.816 142.229 179.801 142.154 179.77C142.078 179.74 142.009 179.695 141.951 179.637C141.894 179.58 141.848 179.512 141.816 179.437C141.785 179.362 141.769 179.281 141.769 179.2C141.769 179.118 141.785 179.038 141.816 178.963C141.848 178.888 141.894 178.82 141.951 178.762C142.009 178.705 142.078 178.66 142.154 178.629C142.229 178.599 142.31 178.583 142.391 178.584H152.258C152.339 178.583 152.42 178.599 152.495 178.629C152.571 178.66 152.639 178.705 152.697 178.762C152.755 178.82 152.801 178.888 152.832 178.963C152.864 179.038 152.88 179.118 152.88 179.2C152.88 179.281 152.864 179.362 152.832 179.437C152.801 179.512 152.755 179.58 152.697 179.637C152.639 179.695 152.571 179.74 152.495 179.77C152.42 179.801 152.339 179.816 152.258 179.816Z" fill="white"/>
<path d="M419.447 250.08C420.014 249.746 420.501 249.291 420.873 248.748C421.245 248.205 421.494 247.587 421.601 246.938C421.708 246.289 421.672 245.624 421.494 244.991C421.316 244.357 421.002 243.77 420.572 243.271L428.622 229.445L420.313 229.913L413.943 242.971C413.151 243.747 412.672 244.786 412.597 245.891C412.521 246.996 412.854 248.091 413.533 248.967C414.211 249.843 415.188 250.441 416.278 250.646C417.368 250.851 418.496 250.65 419.447 250.08Z" fill="#FFB6B6"/>
<path d="M422.695 239.915L415.257 234.129L428.773 207.969L423.709 174.655C423.458 173.009 423.574 171.327 424.048 169.73C424.521 168.133 425.341 166.66 426.449 165.415C427.557 164.17 428.925 163.184 430.458 162.526C431.99 161.869 433.649 161.557 435.315 161.612C438.326 161.714 441.173 163.005 443.232 165.201C445.29 167.397 446.393 170.319 446.297 173.326L445.045 211.258L422.695 239.915Z" fill="#CCCCCC"/>
<path d="M63.1605 232.767C63.629 232.297 63.9886 231.73 64.2139 231.106C64.4392 230.482 64.5247 229.816 64.4645 229.155C64.4042 228.494 64.1997 227.855 63.8652 227.282C63.5307 226.709 63.0745 226.216 62.5286 225.838L69.7632 189.951L61.774 192.513L55.9831 227.224C55.408 228.182 55.2047 229.317 55.4118 230.415C55.6188 231.513 56.2218 232.496 57.1065 233.179C57.9912 233.863 59.0962 234.198 60.2119 234.122C61.3277 234.046 62.3768 233.564 63.1605 232.767Z" fill="#9E616A"/>
<path d="M73.8428 156.842L68.8858 153.105C68.8858 153.105 64.513 152.796 63.7386 160.671C62.9641 168.547 61.3739 183.895 61.3739 183.895L53.7888 218.98L64.2886 221.281L72.4128 183.418L77.2865 172.175L73.8428 156.842Z" fill="#CCCCCC"/>
<path d="M65.6709 214.133L93.6034 213.668L95.9313 194.605H65.6709V214.133Z" fill="#9E616A"/>
<path d="M90.8097 331.434H97.258L100.326 306.594L90.8083 306.594L90.8097 331.434Z" fill="#9E616A"/>
<path d="M50.4121 332.031L56.8604 331.985L59.7537 307.125L51.3672 309.046L50.4121 332.031Z" fill="#9E616A"/>
<path d="M70.5801 178.188L69.1191 181.982L69.4111 185.776L98.0067 195.667L96.5881 179.064L93.3735 175.27L70.5801 178.188Z" fill="#FFB6B6"/>
<path d="M82.848 144.048C88.4886 144.048 93.0612 139.481 93.0612 133.848C93.0612 128.215 88.4886 123.648 82.848 123.648C77.2074 123.648 72.6348 128.215 72.6348 133.848C72.6348 139.481 77.2074 144.048 82.848 144.048Z" fill="#9E616A"/>
<path d="M89.2104 328.258L99.4039 327.65V332.012L109.095 338.696C109.574 339.026 109.934 339.501 110.124 340.05C110.314 340.599 110.323 341.194 110.15 341.749C109.977 342.304 109.63 342.789 109.162 343.133C108.693 343.477 108.127 343.663 107.545 343.663H95.4093L93.3175 339.348L92.5007 343.663H87.925L89.2104 328.258Z" fill="#2F2E41"/>
<path d="M48.2061 328.868L58.3952 328.189L58.4257 332.551L68.1636 339.167C68.6446 339.494 69.0085 339.966 69.202 340.514C69.3955 341.062 69.4086 341.657 69.2394 342.213C69.0702 342.769 68.7275 343.256 68.2613 343.603C67.7952 343.951 67.23 344.141 66.6483 344.145L54.5128 344.229L52.3909 339.93L51.6044 344.25L47.0288 344.282L48.2061 328.868Z" fill="#2F2E41"/>
<path d="M48.4056 312.986L53.101 275.504L58.6875 235.984C54.5964 228.397 63.8085 204.834 63.8085 204.834L65.1088 204.896L94.5406 210.441L94.5343 210.413C100.554 226.81 102.548 234.911 102.219 252.373L101.033 315.143H101.405C102.022 315.143 102.614 315.388 103.051 315.824C103.487 316.26 103.732 316.851 103.732 317.467C103.732 318.084 103.487 318.675 103.051 319.111C102.614 319.547 102.022 319.792 101.405 319.792H89.7661C89.4601 319.793 89.157 319.733 88.8741 319.616C88.5912 319.5 88.3341 319.329 88.1176 319.113C87.901 318.897 87.7292 318.64 87.612 318.358C87.4947 318.076 87.4344 317.773 87.4344 317.467C87.4344 317.162 87.4947 316.859 87.612 316.577C87.7292 316.295 87.901 316.038 88.1176 315.822C88.3341 315.606 88.5912 315.435 88.8741 315.319C89.157 315.202 89.4601 315.142 89.7661 315.143H90.0662L79.3834 240.402L70.3261 271.784L60.0842 312.698C63.8085 311.768 63.2302 313.923 63.2302 315.143C63.2302 315.759 62.985 316.351 62.5484 316.787C62.1119 317.223 61.5198 317.467 60.9025 317.467H49.264C48.7227 317.468 48.1981 317.28 47.7808 316.936C47.3634 316.591 47.0794 316.113 46.9777 315.582C46.876 315.051 46.963 314.501 47.2236 314.027C47.4843 313.553 47.9023 313.185 48.4056 312.986Z" fill="#2F2E41"/>
<path d="M61.5168 206.054L62.4479 196.756C62.5446 196.376 62.759 196.037 63.0605 195.787C63.362 195.537 63.7351 195.389 64.1262 195.363C64.5142 190.934 66.1464 171.824 66.2439 170.991L66.2477 170.956L66.9899 155.121C67.0168 154.546 67.255 154.001 67.6588 153.59C68.0627 153.179 68.6039 152.932 69.1791 152.894L73.0993 152.638C73.1531 152.636 73.2041 152.614 73.2415 152.575C73.2789 152.536 73.2998 152.485 73.2998 152.431C73.2998 151.999 73.3851 151.571 73.5507 151.171C73.7164 150.772 73.9593 150.409 74.2654 150.103C74.5715 149.797 74.9349 149.555 75.3349 149.389C75.7349 149.224 76.1636 149.139 76.5965 149.139H88.203C88.9548 149.139 89.6806 149.413 90.2442 149.91C90.8078 150.407 91.1705 151.092 91.2642 151.837C91.2694 151.888 91.2937 151.936 91.3323 151.97C91.371 152.004 91.4212 152.022 91.4728 152.021H91.4741C92.793 151.994 94.0778 152.44 95.0956 153.278C96.1133 154.116 96.7966 155.291 97.0213 156.589C98.608 165.809 101.788 186.735 100.216 198.369C99.6685 202.418 100.848 199.211 101.055 202.599C101.076 202.927 101.032 203.255 100.925 203.565C100.818 203.876 100.651 204.162 100.434 204.408C100.879 204.57 101.243 204.9 101.446 205.328C101.649 205.756 101.674 206.247 101.517 206.693L101.721 206.643C101.662 206.88 101.556 207.103 101.41 207.299C101.264 207.494 101.081 207.66 100.871 207.785C100.661 207.91 100.428 207.993 100.186 208.028C99.9442 208.064 99.6976 208.051 99.4605 207.992L69.095 212.101C68.0977 211.85 61.2654 207.05 61.5168 206.054Z" fill="#CCCCCC"/>
<path d="M142.657 168.247C142.467 168.882 142.14 169.469 141.698 169.964C141.256 170.46 140.711 170.853 140.101 171.115C139.491 171.377 138.831 171.503 138.167 171.483C137.503 171.463 136.851 171.298 136.258 170.999L124.519 181.699L122.96 173.464L134.354 164.593C134.923 163.631 135.825 162.911 136.889 162.569C137.954 162.227 139.107 162.287 140.131 162.737C141.154 163.187 141.977 163.997 142.442 165.012C142.908 166.028 142.984 167.179 142.657 168.247Z" fill="#9E616A"/>
<path d="M101.799 160.069C101.799 160.069 97.7052 150.831 92.5352 152.667C87.3653 154.504 90.0346 163.467 90.0346 163.467L109.458 192.698C109.458 192.698 137.474 174.749 134.067 174.622C130.661 174.496 129.642 168.308 129.642 168.308L114.835 175.696L114.334 173.066L113.531 173.868L111.459 172.239L101.799 160.069Z" fill="#CCCCCC"/>
<path d="M436.645 149.92C444.52 149.92 450.904 143.545 450.904 135.68C450.904 127.815 444.52 121.439 436.645 121.439C428.77 121.439 422.386 127.815 422.386 135.68C422.386 143.545 428.77 149.92 436.645 149.92Z" fill="#FFB6B6"/>
<path d="M482.407 156.635C480.762 158.963 478.36 160.652 475.61 161.414C474.509 161.741 473.373 161.934 472.226 161.988C472.084 160.693 471.745 159.427 471.22 158.234C471.273 159.503 471.096 160.772 470.698 161.979C468.976 161.882 467.292 161.431 465.751 160.656C464.238 159.895 462.923 158.793 461.91 157.437C460.898 156.081 460.216 154.508 459.918 152.842C459.314 148.947 461.083 145.122 461.722 141.233C462.364 137.344 461.159 132.418 457.347 131.396C454.444 130.617 454.769 130.954 452.356 132.743C454.866 136.45 445.594 150.035 441.799 148.851C439.654 148.181 438.28 146.215 437.837 146.215C434.855 151.346 440.471 159.991 434.811 161.786L435.277 161.32C438.693 157.124 431.553 148.241 434.969 144.045C435.922 142.87 436.937 141.479 436.655 139.994C436.389 138.583 434.145 137.836 433.488 138.996C434.67 136.293 432.925 132.685 430.037 131.991C427.471 131.373 427.518 132.134 424.943 132.465C424.775 131.354 424.461 130.27 424.008 129.241C424.055 130.349 423.925 131.459 423.624 132.527C422.714 132.509 421.836 132.192 421.125 131.625C419.026 129.935 419.451 126.385 421.325 124.45C423.201 122.514 425.99 121.817 428.65 121.366C429.423 115.989 444.278 115.428 446.247 120.8C447.086 116.788 452.115 114.706 456.024 115.951C459.933 117.195 462.646 120.842 464.074 124.684C465.502 128.523 465.901 132.655 466.78 136.656C467.66 140.656 469.147 144.73 472.208 147.456C475.27 150.18 480.258 151.082 483.483 148.552C483.952 149.889 484.099 151.317 483.912 152.722C483.725 154.126 483.21 155.467 482.407 156.635Z" fill="#2F2E41"/>
<path d="M616.184 189.133L614.187 199.135C614.037 199.9 613.88 200.678 613.709 201.45C612.04 201.105 610.31 201.201 608.691 201.73C609.976 203.564 611.127 205.487 612.136 207.486C610.878 211.357 609.032 214.935 605.942 217.522C603.878 219.212 601.413 220.342 598.785 220.804C596.156 221.266 593.453 221.043 590.936 220.158L591.025 219.762C587.702 213.323 589.507 205.205 593.636 199.258C595.742 196.324 598.238 193.69 601.054 191.427C603.843 189.106 606.858 187.023 609.846 184.968C610.517 184.507 611.31 184.257 612.125 184.248C612.939 184.24 613.737 184.474 614.418 184.921C615.098 185.368 615.629 186.008 615.944 186.758C616.258 187.508 616.342 188.335 616.184 189.133Z" fill="#E4E4E4"/>
<path d="M591.647 244.224C590.807 238.112 589.943 231.921 590.532 225.743C591.056 220.256 592.731 214.897 596.144 210.503C597.955 208.174 600.16 206.18 602.657 204.608C603.309 204.199 603.908 205.229 603.26 205.637C598.938 208.365 595.595 212.393 593.714 217.14C591.635 222.419 591.302 228.174 591.663 233.782C591.879 237.173 592.338 240.541 592.801 243.907C592.838 244.059 592.816 244.22 592.738 244.356C592.661 244.493 592.534 244.594 592.384 244.64C592.231 244.681 592.068 244.661 591.931 244.583C591.794 244.505 591.692 244.376 591.65 244.224L591.647 244.224Z" fill="#F2F2F2"/>
<path d="M639.186 344.79L0.814116 345C0.598631 344.999 0.392189 344.913 0.240038 344.761C0.0878875 344.608 0.00244141 344.402 0.00244141 344.187C0.00244141 343.972 0.0878875 343.765 0.240038 343.613C0.392189 343.46 0.598631 343.375 0.814116 343.374L639.186 343.164C639.402 343.165 639.608 343.251 639.76 343.403C639.912 343.555 639.998 343.762 639.998 343.977C639.998 344.192 639.912 344.399 639.76 344.551C639.608 344.703 639.402 344.789 639.186 344.79Z" fill="#CACACA"/>
<path d="M70.8276 127.601C69.2612 128.352 67.5078 127.223 66.1555 126.104L66.6393 126.521C64.2492 128.843 63.1317 132.184 62.5857 135.473C62.0391 138.759 61.9782 142.119 61.29 145.381C60.6013 148.64 59.1727 151.914 56.5043 153.91C52.9294 156.584 47.9989 156.412 43.6118 155.593C43.5533 155.581 43.4989 155.572 43.4404 155.56C44.6208 152.156 45.1007 148.549 44.8512 144.956C43.6752 148.557 41.6733 151.834 39.0049 154.526C36.0962 153.726 33.2571 152.693 30.5153 151.436C28.7413 150.621 26.8311 149.506 26.3388 147.618C25.8452 145.744 26.9914 143.779 28.5241 142.595C30.0568 141.412 31.9379 140.795 33.6839 139.952C35.4271 139.113 37.1522 137.917 37.8501 136.111C39.46 131.957 34.874 127.191 36.6612 123.107C37.5426 121.099 39.7013 120.007 41.7304 119.165C44.8279 117.883 48.0086 116.812 51.2509 115.958C54.0971 115.208 57.069 114.626 59.9684 115.117C62.8679 115.609 65.7085 117.37 66.752 120.12C68.4932 120.707 70.3418 121.37 71.4592 122.834C72.5761 124.294 72.4861 126.808 70.8276 127.601Z" fill="#2F2E41"/>
<path d="M84.765 122.789C80.2839 119.256 76.6608 119.859 73.8658 122.054C73.3959 121.532 71.3963 122.968 70.7193 122.762L68.2705 127.353C67.0104 129.574 66.4934 131.841 66.6971 133.117C64.3792 139.608 69.8758 143.992 76.3761 146.307C78.9698 147.237 81.7998 147.278 84.4194 146.423L84.4993 145.317L84.9916 146.223C84.9916 146.223 90.934 158.443 92.3382 158.992C91.4862 156.785 89.2389 146.293 88.6117 144.107C87.7515 141.131 88.3391 136.404 88.8446 133.506C89.1597 131.719 89.1762 129.892 88.8934 128.1L88.8809 128.022L90.2712 130.825L93.3908 128.866C92.1985 125.398 92.1747 121.249 84.765 122.789Z" fill="#2F2E41"/>
</g>
<defs>
<clipPath id="clip0_196_1944">
<rect width="640" height="345" fill="white"/>
</clipPath>
</defs>
</svg>
