<svg width="453" height="381" viewBox="0 0 453 381" fill="none" xmlns="http://www.w3.org/2000/svg">
<g clip-path="url(#clip0_314_3714)">
<path d="M417.046 373.663L410.283 373.663L407.066 347.469H417.048L417.046 373.663Z" fill="#9E616A"/>
<path d="M418.771 380.246L396.964 380.245V379.968C396.964 377.708 397.858 375.54 399.45 373.942C401.042 372.343 403.201 371.445 405.452 371.445L418.772 371.446L418.771 380.246Z" fill="#2F2E41"/>
<path d="M391.119 373.663L384.355 373.663L381.138 347.469H391.12L391.119 373.663Z" fill="#9E616A"/>
<path d="M392.843 380.246L371.036 380.245V379.968C371.036 377.708 371.931 375.54 373.522 373.942C375.114 372.343 377.273 371.445 379.524 371.445L392.844 371.446L392.843 380.246Z" fill="#2F2E41"/>
<path d="M98.9292 379.232V168.841C98.9292 167.545 99.4418 166.302 100.354 165.386C101.267 164.47 102.504 163.955 103.795 163.955H125.508C126.798 163.955 128.036 164.47 128.948 165.386C129.861 166.302 130.373 167.545 130.373 168.841V379.781L98.9292 379.232Z" fill="#3F3D56"/>
<path d="M170.644 379.892V212.603C170.644 211.307 171.157 210.064 172.069 209.148C172.982 208.232 174.219 207.717 175.51 207.717H197.223C198.513 207.717 199.751 208.232 200.663 209.148C201.576 210.064 202.088 211.307 202.088 212.603V379.532L170.644 379.892Z" fill="#3F3D56"/>
<path d="M43.2116 181.137C42.892 181.137 42.5793 181.044 42.3112 180.869C42.0431 180.694 41.8311 180.445 41.7008 180.152C41.5706 179.859 41.5276 179.535 41.5771 179.218C41.6266 178.901 41.7665 178.605 41.9799 178.366L114.58 97.0526L186.03 137.34L257.904 12.9824L331.124 73.4975C331.292 73.6361 331.431 73.8066 331.533 73.9993C331.635 74.1919 331.699 74.4029 331.72 74.6203C331.741 74.8376 331.719 75.0569 331.656 75.2658C331.593 75.4747 331.489 75.669 331.351 75.8376C331.213 76.0061 331.043 76.1457 330.851 76.2484C330.659 76.351 330.449 76.4146 330.232 76.4356C330.016 76.4566 329.797 76.4346 329.589 76.3708C329.381 76.307 329.188 76.2027 329.02 76.0638L258.81 18.036L187.254 141.843L115.274 101.255L44.4443 180.584C44.2893 180.758 44.0993 180.898 43.8868 180.993C43.6744 181.088 43.4443 181.137 43.2116 181.137Z" fill="#3F3D56"/>
<path d="M42.936 194.985C51.4668 194.985 58.3823 188.041 58.3823 179.475C58.3823 170.909 51.4668 163.965 42.936 163.965C34.4053 163.965 27.4897 170.909 27.4897 179.475C27.4897 188.041 34.4053 194.985 42.936 194.985Z" fill="#63FFBE"/>
<path d="M114.651 114.665C123.182 114.665 130.098 107.721 130.098 99.1548C130.098 90.5887 123.182 83.6445 114.651 83.6445C106.121 83.6445 99.2051 90.5887 99.2051 99.1548C99.2051 107.721 106.121 114.665 114.651 114.665Z" fill="#CCCCCC"/>
<path d="M186.366 155.103C194.897 155.103 201.813 148.158 201.813 139.592C201.813 131.026 194.897 124.082 186.366 124.082C177.835 124.082 170.92 131.026 170.92 139.592C170.92 148.158 177.835 155.103 186.366 155.103Z" fill="#E6E6E6"/>
<path d="M258.081 31.0206C266.612 31.0206 273.527 24.0764 273.527 15.5103C273.527 6.94419 266.612 0 258.081 0C249.55 0 242.635 6.94419 242.635 15.5103C242.635 24.0764 249.55 31.0206 258.081 31.0206Z" fill="#63FFBE"/>
<path d="M395.994 146.536C404.525 146.536 411.44 139.592 411.44 131.026C411.44 122.46 404.525 115.516 395.994 115.516C387.463 115.516 380.548 122.46 380.548 131.026C380.548 139.592 387.463 146.536 395.994 146.536Z" fill="#63FFBE"/>
<path d="M390.533 251.852C396.314 252.551 411.098 247.255 411.899 255.312C419.509 277.805 419.283 364.026 419.283 364.026L407.698 364.58C407.698 364.58 398.441 296.072 394.063 281.416C391.867 299.23 392.252 367.35 392.252 367.35L381.77 367.904C381.77 367.904 372.368 309.897 372.315 292.871C371.172 280.4 373.974 261.919 372.775 249.863C378.508 251.688 384.541 252.363 390.533 251.852Z" fill="#3F3D56"/>
<path d="M314.074 379.146V136.657C314.074 133.547 316.252 131.025 318.939 131.025H340.652C343.339 131.025 345.518 133.546 345.518 136.657V379.78L314.074 379.146Z" fill="#3F3D56"/>
<path d="M370.867 186.598C368.548 181.838 365.716 177.348 362.421 173.209C361.732 172.401 361.105 171.542 360.545 170.639C359.359 168.573 359.006 166.147 358.256 163.887C356.16 157.55 350.93 152.459 349.656 145.906C349.192 143.524 345.278 150.447 346.307 153.401C348.144 158.746 348.381 164.407 350.72 169.57C353.059 174.733 355.806 179.685 357.825 184.964C358.973 187.961 359.889 191.057 361.571 193.827C363.254 196.597 365.88 198.918 369.052 199.333C369.03 197.325 369.334 195.327 369.951 193.417C370.64 191.235 371.865 188.664 370.867 186.598Z" fill="#9E616A"/>
<path d="M405.571 190.188C405.429 186.271 406.038 182.363 407.364 178.677C407.871 177.264 408.467 175.83 408.418 174.329C408.346 172.933 407.684 171.653 407.083 170.39C405.008 166.042 403.552 161.433 402.118 156.835L399.359 148.166C398.46 147.504 403.712 147.274 404.832 148.831C408.495 153.938 411.27 159.804 414.171 165.382C414.911 166.712 415.542 168.099 416.058 169.531C416.767 171.852 417.102 174.272 417.051 176.699C417.051 181.236 416.455 185.756 415.837 190.254C415.446 193.074 414.933 196.143 412.809 198.009C410.602 195.173 408.384 192.404 405.571 190.188Z" fill="#9E616A"/>
<path d="M390.985 185.699C397.307 185.699 402.432 180.553 402.432 174.205C402.432 167.857 397.307 162.711 390.985 162.711C384.663 162.711 379.539 167.857 379.539 174.205C379.539 180.553 384.663 185.699 390.985 185.699Z" fill="#9E616A"/>
<path d="M381.68 162.738C381.552 162.389 381.523 162.011 381.597 161.647C381.671 161.282 381.845 160.946 382.099 160.675C382.385 160.449 382.765 160.365 383.071 160.149C383.507 159.781 383.863 159.328 384.119 158.818C384.901 157.719 386.045 156.934 387.349 156.601C388.652 156.269 390.031 156.411 391.24 157.003C393.132 157.997 394.274 159.988 395.956 161.328C396.811 162.023 397.801 162.538 398.66 163.233C400.382 164.726 401.605 166.713 402.166 168.926C402.724 171.124 403.05 173.375 403.138 175.642C403.227 176.322 403.201 177.013 403.059 177.684C402.885 178.247 402.626 178.779 402.289 179.263C400.56 181.893 398.281 184.283 395.425 185.64C392.569 186.998 389.095 187.219 386.278 185.798C385.994 185.683 385.751 185.487 385.576 185.235C385.416 184.851 385.378 184.426 385.466 184.02C385.619 182.412 385.302 180.793 384.554 179.363C384.03 178.311 383.244 177.406 382.825 176.317C382.435 175.098 382.268 173.818 382.332 172.539C382.283 169.226 382.507 165.927 381.68 162.738Z" fill="#2D293D"/>
<path d="M27.2134 379.476V262.406C27.2134 260.905 29.3919 259.688 32.079 259.688H53.792C56.4791 259.688 58.6576 260.906 58.6576 262.406V379.781L27.2134 379.476Z" fill="#3F3D56"/>
<path d="M452.449 381H0.551653C0.405346 381 0.26503 380.942 0.161575 380.838C0.05812 380.734 0 380.593 0 380.447C0 380.3 0.05812 380.159 0.161575 380.055C0.26503 379.951 0.405346 379.893 0.551653 379.893H452.448C452.595 379.893 452.735 379.951 452.838 380.055C452.942 380.159 453 380.3 453 380.447C453 380.593 452.942 380.734 452.838 380.838C452.735 380.942 452.595 381 452.448 381H452.449Z" fill="#E6E6E6"/>
<path d="M242.358 379.064V103.884C242.358 100.355 244.537 97.4941 247.224 97.4941H268.937C271.624 97.4941 273.803 100.355 273.803 103.884V379.782L242.358 379.064Z" fill="#63FFBE"/>
<path d="M345.987 151.983C348.729 151.983 350.952 149.751 350.952 146.997C350.952 144.244 348.729 142.012 345.987 142.012C343.245 142.012 341.022 144.244 341.022 146.997C341.022 149.751 343.245 151.983 345.987 151.983Z" fill="#A0616A"/>
<path d="M401.152 149.766C403.894 149.766 406.117 147.534 406.117 144.78C406.117 142.027 403.894 139.795 401.152 139.795C398.41 139.795 396.188 142.027 396.188 144.78C396.188 147.534 398.41 149.766 401.152 149.766Z" fill="#A0616A"/>
<path d="M413.217 206.495C413.702 206.05 417.651 182.856 417.628 182.333C417.567 179.476 408.884 176.212 407.147 177.348C405.507 178.419 402.653 190.711 400.815 192.95L398.872 189.535H383.426L382.489 191.281C380.463 190.054 378.639 188.924 377.989 188.55C377.766 188.398 377.522 188.278 377.266 188.193C375.66 187.832 374.154 187.121 372.853 186.11C371.584 185.129 365.695 174.861 364.118 175.132C362.336 175.431 356.326 180.649 356.395 185.657C357.151 185.641 366.994 205.404 367.132 206.14C367.888 209.253 370.383 254.654 371.189 256.77C374.899 256.41 371.97 255.768 375.561 256.77C379.428 257.85 383.511 256.682 387.499 256.25C389.16 256.084 390.828 256.01 392.497 256.028C398.565 256.056 407.226 256.394 413.101 257.906C413.134 254.039 409.753 245.675 408.501 242.024C408.336 240.933 408.342 239.823 408.517 238.734C408.677 237.399 411.907 207.971 413.217 206.495Z" fill="#E6E6E6"/>
</g>
<defs>
<clipPath id="clip0_314_3714">
<rect width="453" height="381" fill="white"/>
</clipPath>
</defs>
</svg>
