<svg width="521" height="383" viewBox="0 0 521 383" fill="none" xmlns="http://www.w3.org/2000/svg">
<g clip-path="url(#clip0_310_2253)">
<path d="M103.224 309.957C102.943 309.096 100.811 309.475 100.606 308.705C100.402 307.938 102.448 307.294 104.017 305.132C104.3 304.742 106.083 302.285 105.399 301.251C104.103 299.293 95.0842 304.171 92.9193 301.434C92.4442 300.833 92.2487 299.801 90.8333 297.881C90.2703 297.118 89.909 296.749 89.4774 296.76C88.865 296.775 88.6458 297.542 87.6833 298.93C86.2397 301.011 85.7188 300.75 84.7678 302.456C84.0618 303.722 83.9782 304.531 83.4691 304.578C82.7487 304.646 82.4511 303.07 81.5708 303.008C80.6725 302.946 79.7737 304.504 79.3281 305.721C78.4919 308.004 79.0097 309.75 79.1245 311.489C79.2493 313.38 78.9564 316.147 76.9025 319.699L57.5305 350.567C61.6909 344.274 73.5004 327.115 78.2585 320.82C79.632 319.003 81.1081 317.179 83.38 316.836C85.5673 316.505 88.2287 317.588 91.9435 317.525C92.3773 317.517 93.5847 317.481 93.8784 316.841C94.1212 316.312 93.5183 315.852 93.7376 315.355C94.0318 314.688 95.3553 314.974 97.1589 314.531C98.4307 314.218 99.2948 313.702 100.038 313.258C100.262 313.124 103.599 311.103 103.224 309.957Z" fill="#F2F2F2"/>
<path d="M52.4855 317.164C51.9818 317.054 51.5527 318.21 51.1157 318.088C50.6803 317.967 50.9549 316.777 50.3465 315.383C50.2368 315.131 49.5455 313.547 48.841 313.585C47.5056 313.656 47.2977 319.491 45.3294 319.763C44.8974 319.823 44.3348 319.621 42.9843 319.762C42.4471 319.818 42.1619 319.889 42.0427 320.104C41.8736 320.409 42.1864 320.738 42.5899 321.611C43.1949 322.92 42.9163 323.1 43.479 324.059C43.8966 324.771 44.2695 325.046 44.146 325.309C43.9713 325.682 43.1118 325.374 42.8278 325.788C42.538 326.211 43.0431 327.102 43.5117 327.672C44.3912 328.741 45.3972 328.99 46.284 329.436C47.2477 329.92 48.5213 330.862 49.6718 332.895L59.2308 351.311C57.343 347.453 52.3294 336.705 50.6134 332.553C50.118 331.355 49.6485 330.104 50.1356 328.89C50.6045 327.721 51.9036 326.727 52.9445 324.885C53.0661 324.67 53.3968 324.067 53.1675 323.738C52.9779 323.466 52.5782 323.629 52.3974 323.378C52.1548 323.041 52.6772 322.474 52.9801 321.461C53.1937 320.747 53.1897 320.174 53.1863 319.681C53.1852 319.532 53.1559 317.311 52.4855 317.164Z" fill="#F2F2F2"/>
<path d="M62.022 321.658L62.3224 318.884L62.5067 318.709C63.3593 317.903 63.8927 317.05 64.0928 316.171C64.1246 316.031 64.1493 315.89 64.1745 315.746C64.2743 315.176 64.3981 314.466 64.9465 313.73C65.2534 313.319 66.0653 312.392 66.9025 312.716C67.1285 312.801 67.281 312.947 67.387 313.103C67.4136 313.076 67.4409 313.049 67.47 313.02C67.8317 312.668 68.0847 312.539 68.3284 312.415C68.5157 312.32 68.7091 312.222 69.0363 311.96C69.1799 311.845 69.2948 311.742 69.3917 311.655C69.6855 311.393 70.0613 311.085 70.576 311.207C71.1217 311.356 71.3088 311.877 71.4329 312.221C71.6545 312.836 71.7228 313.259 71.768 313.539C71.7843 313.642 71.8031 313.757 71.8174 313.794C71.9368 314.095 73.4361 314.173 74.0002 314.206C75.2682 314.275 76.3654 314.334 76.6293 315.203C76.8186 315.824 76.424 316.501 75.4226 317.27C75.1107 317.509 74.7988 317.674 74.5272 317.797C74.6943 317.955 74.8274 318.17 74.8355 318.463C74.8539 319.156 74.1434 319.687 72.7238 320.046C72.3711 320.136 71.8966 320.255 71.2757 320.225C70.9833 320.21 70.7271 320.166 70.5088 320.124C70.4762 320.248 70.4165 320.378 70.3088 320.5C69.9929 320.862 69.4827 320.954 68.7901 320.75C68.0254 320.537 67.4213 320.247 66.8882 319.993C66.4226 319.771 66.0211 319.581 65.6842 319.529C65.0576 319.442 64.4734 319.828 63.7741 320.343L62.022 321.658Z" fill="#F2F2F2"/>
<path d="M67.0225 305.855L64.2629 306.268L64.0476 306.134C63.0519 305.513 62.0909 305.214 61.1902 305.243C61.047 305.248 60.9041 305.26 60.7585 305.272C60.1815 305.32 59.4642 305.38 58.6127 305.036C58.138 304.844 57.035 304.293 57.136 303.401C57.1606 303.161 57.2636 302.976 57.387 302.835C57.3541 302.816 57.3213 302.796 57.2857 302.775C56.854 302.515 56.6652 302.302 56.4835 302.098C56.3437 301.941 56.1997 301.779 55.8635 301.529C55.7161 301.419 55.587 301.334 55.4785 301.262C55.1502 301.045 54.7577 300.759 54.7449 300.23C54.7507 299.665 55.2068 299.352 55.5086 299.144C56.0469 298.774 56.4384 298.6 56.6981 298.486C56.793 298.444 56.8998 298.396 56.9325 298.373C57.1933 298.181 56.8884 296.711 56.7768 296.157C56.5217 294.913 56.3009 293.836 57.0739 293.361C57.6267 293.02 58.3821 293.23 59.3795 294.004C59.6898 294.245 59.9286 294.505 60.1167 294.736C60.2271 294.535 60.4012 294.351 60.6823 294.269C61.3477 294.076 62.0421 294.628 62.7488 295.911C62.9254 296.229 63.161 296.658 63.2894 297.266C63.3495 297.553 63.3712 297.812 63.3861 298.034C63.5147 298.034 63.655 298.059 63.8011 298.132C64.231 298.345 64.4494 298.816 64.4279 299.537C64.4158 300.331 64.2887 300.989 64.1775 301.569C64.0811 302.076 63.9994 302.513 64.0347 302.852C64.1089 303.48 64.6313 303.947 65.3067 304.493L67.0225 305.855Z" fill="#F2F2F2"/>
<path d="M67.3945 297.568L67.695 294.794L67.8793 294.619C68.7319 293.814 69.2653 292.96 69.4653 292.081C69.4972 291.941 69.5218 291.8 69.5471 291.656C69.6468 291.086 69.7707 290.377 70.3191 289.64C70.626 289.23 71.4378 288.302 72.2751 288.626C72.5011 288.711 72.6536 288.857 72.7596 289.013C72.7862 288.986 72.8134 288.959 72.8426 288.93C73.2042 288.578 73.4573 288.449 73.701 288.325C73.8882 288.23 74.0816 288.132 74.4089 287.87C74.5524 287.755 74.6674 287.652 74.7643 287.565C75.0581 287.303 75.4339 286.996 75.9486 287.117C76.4942 287.266 76.6813 287.787 76.8055 288.132C77.0271 288.746 77.0954 289.169 77.1405 289.449C77.1568 289.552 77.1757 289.667 77.19 289.705C77.3094 290.006 78.8086 290.084 79.3727 290.116C80.6407 290.185 81.738 290.244 82.0018 291.113C82.1912 291.734 81.7966 292.412 80.7952 293.18C80.4832 293.419 80.1714 293.584 79.8997 293.708C80.0668 293.866 80.2 294.08 80.2081 294.373C80.2264 295.066 79.5159 295.598 78.0964 295.956C77.7436 296.046 77.2692 296.165 76.6483 296.135C76.3558 296.121 76.0997 296.076 75.8813 296.034C75.8488 296.158 75.789 296.288 75.6814 296.411C75.3655 296.772 74.8552 296.864 74.1626 296.66C73.398 296.447 72.7939 296.158 72.2608 295.903C71.7951 295.681 71.3937 295.491 71.0568 295.439C70.4302 295.352 69.8459 295.739 69.1467 296.254L67.3945 297.568Z" fill="#F2F2F2"/>
<path d="M58.4464 350.727L57.9585 350.245L57.2804 350.173C57.2836 350.109 57.2792 349.96 57.2742 349.727C57.2481 348.451 57.1671 344.566 57.7079 338.598C58.0856 334.432 58.7166 330.203 59.5836 326.026C60.452 321.843 61.3532 318.731 62.0771 316.229C62.6234 314.343 63.1748 312.553 63.713 310.81C65.1495 306.153 66.5058 301.754 67.3457 296.736C67.5338 295.615 67.9241 293.284 67.1249 290.531C66.6612 288.935 65.8673 287.433 64.7643 286.067L65.8318 285.205C67.0489 286.714 67.9269 288.378 68.4419 290.15C69.328 293.202 68.9027 295.742 68.6983 296.963C67.8434 302.07 66.4736 306.511 65.023 311.213C64.4875 312.95 63.9379 314.732 63.394 316.611C62.6767 319.089 61.7835 322.175 60.9264 326.304C60.0693 330.43 59.4463 334.608 59.0729 338.721C58.5392 344.614 58.6194 348.441 58.6456 349.698C58.6592 350.369 58.6621 350.51 58.4464 350.727Z" fill="#F2F2F2"/>
<path d="M61.8358 287.645C61.7809 287.633 61.7256 287.619 61.6703 287.603C60.5445 287.287 59.6414 286.37 58.9854 284.876C58.6783 284.174 58.6058 283.435 58.4613 281.96C58.4386 281.733 58.3384 280.583 58.4616 279.059C58.5417 278.063 58.6488 277.662 58.9198 277.348C59.2208 276.998 59.6263 276.798 60.0548 276.697C60.0664 276.566 60.1095 276.437 60.1951 276.314C60.5476 275.807 61.1376 276.016 61.4578 276.124C61.6191 276.182 61.8201 276.256 62.0462 276.294C62.4015 276.355 62.6137 276.293 62.9349 276.2C63.2422 276.11 63.6243 276 64.1524 276.009C65.1945 276.023 65.966 276.492 66.2204 276.646C67.5601 277.451 68.0227 278.735 68.558 280.223C68.6644 280.521 69.0174 281.598 69.0996 282.986C69.1589 283.987 69.0278 284.397 68.8774 284.69C68.5702 285.292 68.0998 285.571 66.9324 286.159C65.7127 286.775 65.1007 287.083 64.599 287.241C63.4314 287.607 62.6983 287.838 61.8358 287.645Z" fill="#F2F2F2"/>
<path d="M216.734 203.346C220.375 200.27 219.408 193.138 214.575 187.416C212.459 184.911 209.953 183.092 207.499 182.097L204.678 178.841L168.25 133.192C168.25 133.192 148.077 87.7816 142.122 82.8757C136.167 77.9698 129.16 80.524 129.16 80.524L123.694 87.2881L157.759 150.692L192.622 185.782L197.329 190.689C197.9 193.276 199.275 196.051 201.391 198.555C206.224 204.277 213.093 206.422 216.734 203.346Z" fill="#FFB6B6"/>
<path d="M147.971 91.3184L157.1 104.708L170.205 124.106L146.657 132.253L125.866 96.5735L147.971 91.3184Z" fill="#E6E6E6"/>
<path d="M521 349.49H0V351.079H521V349.49Z" fill="#3F3D56"/>
<path d="M368.84 239.07H327.302V224.964C327.302 202.272 345.723 183.849 368.412 183.849H368.84V239.07Z" fill="#2F2E41"/>
<path d="M336.559 231.684L343.444 209.148L361.106 208.264L368.84 239.071L336.559 231.684Z" fill="#A0616A"/>
<path opacity="0.1" d="M336.559 231.684L343.444 209.148L361.106 208.264L368.84 239.071L336.559 231.684Z" fill="black"/>
<path d="M352.63 222.353C364.101 222.353 373.399 213.053 373.399 201.582C373.399 190.11 364.101 180.811 352.63 180.811C341.16 180.811 331.862 190.11 331.862 201.582C331.862 213.053 341.16 222.353 352.63 222.353Z" fill="#A0616A"/>
<path d="M308.611 317.68L303.114 323.178C303.114 323.178 273.74 303.474 262.475 310.822C251.21 318.171 250.719 332.4 263.965 340.251C277.212 348.101 311.064 367.237 311.064 367.237C311.064 367.237 356.2 375.088 386.617 351.045C417.035 327.003 422.677 328.229 417.28 315.472C411.884 302.715 400.109 305.659 400.109 305.659L377.541 318.907L368.22 316.944L308.611 317.68Z" fill="#2F2E41"/>
<path d="M309.837 323.814L333.387 334.118L324.556 355.217L289.722 346.876" fill="#2F2E41"/>
<path d="M370.029 323.814L338.292 338.534L350.558 364.049L385.881 348.838" fill="#2F2E41"/>
<path d="M338.293 227.604L307.63 241.137L317.442 295.11L308.611 317.681L355.709 325.041L379.861 317.546L377.787 306.886L379.861 267.104L388.089 243.591L366.012 228.38L338.293 227.604Z" fill="#E6E6E6"/>
<path d="M330.443 336.08L345.652 340.496L338.293 358.529L318.178 350.8L330.443 336.08Z" fill="#A0616A"/>
<path d="M351.58 336.08L332.896 345.403V359.642L353.992 357.179L351.58 336.08Z" fill="#A0616A"/>
<path d="M324.555 363.068C324.555 363.068 356.936 384.657 369.201 375.825C381.466 366.993 388.334 355.708 385.881 354.236C383.428 352.764 376.069 350.311 376.069 350.311L334.858 358.652L324.555 363.068Z" fill="#2F2E41"/>
<path d="M283.344 346.875C283.344 346.875 266.664 372.389 282.363 376.314C298.063 380.24 337.626 364.048 337.626 364.048L334.858 342.949L327.499 350.309L283.344 346.875Z" fill="#2F2E41"/>
<path d="M387.306 170.271C382.717 166.028 381.186 160.221 383.886 157.301C386.586 154.38 392.494 155.453 397.084 159.697C398.941 161.368 400.371 163.459 401.254 165.795L420.471 184.016L411.729 192.853L393.712 173.952C391.314 173.254 389.117 171.992 387.306 170.271Z" fill="#A0616A"/>
<path d="M382.079 226.771L416.851 209.8L398.863 178.859L404.495 167.418C404.495 167.418 448.271 191.823 443.914 209.582C439.558 227.34 396.138 259.965 382.27 254.749C378.06 253.165 375.621 250.34 374.266 247.172C370.957 239.436 374.518 230.461 382.079 226.771Z" fill="#E6E6E6"/>
<path d="M312.869 218.385C313.925 215.172 316.011 212.36 316.944 209.109C318.183 204.793 320.82 214.368 321.078 209.885C321.567 201.365 334.57 179.447 341.993 175.237C349.416 171.027 353.679 172.296 361.242 176.25C361.242 176.25 364.913 176.484 369.483 178.74C374.053 180.997 378.167 184.611 379.945 189.388C381.354 193.175 381.198 197.333 381.669 201.346C382.98 212.526 389.246 223.158 387.901 234.334C387.482 237.821 386.157 241.426 383.306 243.477C380.456 245.528 375.85 245.305 373.974 242.336C373.334 241.323 373.063 240.122 372.514 239.056C371.965 237.991 370.974 236.998 369.776 237.031C367.976 237.081 367.059 239.497 367.769 241.152C368.479 242.808 370.148 243.807 371.714 244.696C367.983 246.375 363.355 245.852 360.093 243.384C356.83 240.915 355.069 236.603 355.669 232.556C356.515 226.853 364.822 228.034 365.801 222.352C366.513 218.216 369.015 211.295 368.334 207.153C367.652 203.012 364.379 208.027 367.827 205.634C364.034 207.462 355.921 194.952 351.95 193.55C347.979 192.149 344.612 189.115 342.806 185.31C338.595 191.416 334.89 189.758 333.381 197.021C331.873 204.284 334.377 226.688 340.588 230.743C338.103 232.439 335.011 228.961 333.845 231.736C333.184 233.307 332.756 235.027 331.66 236.332C329.565 238.825 325.698 238.977 322.615 237.928C318.793 236.629 315.526 233.774 313.724 230.161C311.922 226.548 311.608 222.22 312.869 218.385Z" fill="#2F2E41"/>
<path d="M259.742 213.517C258.62 207.369 254.538 202.965 250.626 203.68C246.713 204.395 244.453 209.958 245.576 216.108C245.992 218.571 246.991 220.899 248.49 222.897L253.575 248.888L265.719 246.241L259.417 220.9C260.113 218.5 260.225 215.969 259.742 213.517Z" fill="#A0616A"/>
<path d="M310.242 239.38L277.281 259.648L260.799 227.88L248.123 226.504C248.123 226.504 245.268 276.546 262.595 282.384C279.921 288.221 330.73 269.039 333.758 254.534C334.677 250.131 333.598 246.557 331.65 243.715C326.893 236.776 317.408 234.974 310.242 239.38Z" fill="#E6E6E6"/>
<path d="M490.066 277.219L371.999 314.54V170.762L490.066 133.441V277.219Z" fill="white"/>
<path d="M371.204 315.625V170.181L490.86 132.357V277.801L371.204 315.625ZM372.793 171.344V313.456L489.272 276.637V134.525L372.793 171.344Z" fill="#3F3D56"/>
<path d="M200.935 309.114L295.622 339.045V223.739L200.935 193.809V309.114Z" fill="white"/>
<path d="M296.416 340.129L295.382 339.802L200.14 309.696V192.725L201.174 193.052L296.416 223.158V340.129ZM201.729 308.533L294.828 337.961V224.321L201.729 194.893V308.533Z" fill="#3F3D56"/>
<path d="M400.694 179.648C399.345 186.683 401.807 194.331 407.006 199.258C412.205 204.184 419.974 206.231 426.925 204.505C433.524 202.866 439.696 195.887 436.904 189.687C434.913 185.266 428.842 183.594 424.486 185.719C420.129 187.845 417.706 192.955 417.957 197.797C418.209 202.638 420.785 207.139 424.222 210.558C433.187 219.477 447.546 221.789 455.447 231.662C462.347 240.283 462.135 253.815 454.968 262.216C447.801 270.616 434.473 272.956 424.874 267.498C420.917 265.248 417.513 261.639 416.53 257.195C415.547 252.751 417.528 247.539 421.686 245.688C429.527 242.197 437.423 251.573 446.004 251.711C450.92 251.789 455.694 248.389 457.227 243.718C458.76 239.046 456.929 233.478 452.923 230.628" fill="#63FFBE"/>
<path d="M234.538 280.247C236.056 284.703 232.91 290.136 228.291 291.038C223.672 291.94 218.714 288.089 218.444 283.39C218.174 278.691 222.659 274.298 227.351 274.665C234.911 275.257 239.375 285.605 246.942 285.121C252.12 284.79 255.391 279.494 257.302 274.67C259.503 269.115 261.112 263.327 262.094 257.433C262.914 252.517 263.29 247.427 262.108 242.586C260.926 237.744 257.997 233.147 253.557 230.885C246.812 227.449 237.579 230.801 234.358 237.652C231.138 244.503 234.24 253.554 240.853 257.238C249.122 261.846 260.513 258.528 268.026 264.287C274.047 268.903 275.082 277.415 275.632 284.983C275.982 289.81 276.329 294.711 275.34 299.449C274.352 304.186 271.836 308.823 267.662 311.272C264.501 313.127 260.281 313.494 257.239 311.45C254.196 309.406 253.055 304.676 255.42 301.877C257.357 299.585 260.882 299.22 263.716 300.204C266.55 301.188 268.857 303.251 271.082 305.264" fill="#63FFBE"/>
<path d="M157.239 45.7499L150.628 70.9595L125.421 66.0003C125.421 66.0003 135.338 47.8162 132.859 39.5508L157.239 45.7499Z" fill="#FFB6B6"/>
<path d="M130.63 373.901L145.81 373.9L153.03 315.344L130.627 315.345L130.63 373.901Z" fill="#FFB6B6"/>
<path d="M182.637 373.558C183.109 374.354 183.359 376.923 183.359 377.849C183.359 380.695 181.052 383.001 178.207 383.001H131.198C129.257 383.001 127.683 381.428 127.683 379.486V377.529C127.683 377.529 125.358 371.646 130.146 364.395C130.146 364.395 136.096 370.073 144.988 361.18L147.61 356.43L166.59 370.312L177.11 371.607C179.412 371.891 181.453 371.563 182.637 373.558Z" fill="#2F2E41"/>
<path d="M172.778 204.437L151.861 346.788H125.619L129.108 265.53L130.945 222.805L125.619 202.468C125.619 202.468 123.19 197.947 121.145 192.467C118.839 186.283 117.018 178.87 119.721 175.355C120.716 174.059 123.303 173.099 126.818 172.385C128.965 171.946 131.465 171.605 134.164 171.339C149.683 169.803 171.758 170.763 171.758 170.763L172.319 189.284L172.63 199.626L172.778 204.437Z" fill="#2F2E41"/>
<path d="M103.891 366.94L118.909 369.146L134.57 312.263L112.405 309.006L103.891 366.94Z" fill="#FFB6B6"/>
<path d="M155.395 374.164C155.746 375.021 155.62 377.599 155.485 378.515C155.071 381.33 152.453 383.277 149.638 382.863L103.13 376.025C101.209 375.742 99.8812 373.956 100.164 372.036L100.448 370.099C100.448 370.099 99.0031 363.941 104.795 357.463C104.795 357.463 109.856 363.946 119.946 356.442L123.231 352.123L139.991 368.619L150.211 371.431C152.447 372.046 154.513 372.019 155.395 374.164Z" fill="#2F2E41"/>
<path d="M173.107 180.697L170.238 205.407L154.593 257.477L128.838 343.202L102.877 339.387L126.176 217.498L123.869 196.598C123.869 196.598 123.118 194.52 122.257 191.479C120.547 185.461 118.403 175.662 120.762 170.664C121.081 169.985 121.48 169.395 121.975 168.918C122.903 168.018 124.788 167.471 127.315 167.182C137.874 165.988 159.621 169.402 169.297 171.078L173.107 180.697Z" fill="#2F2E41"/>
<path d="M153.107 63.5195L181.62 99.4743L176.501 136.96L172.115 175.103L120.462 167.251C120.462 167.251 131.619 140.388 132.859 139.148C134.099 137.909 137.212 140.971 135.036 136.96C132.859 132.949 130.38 132.949 132.446 130.883C134.512 128.817 116.33 101.954 116.33 87.4893C116.33 73.0248 125.008 61.4531 125.008 61.4531L153.107 63.5195Z" fill="#E6E6E6"/>
<path d="M146.455 50.5092C157.063 50.5092 165.662 41.9087 165.662 31.2995C165.662 20.6903 157.063 12.0898 146.455 12.0898C135.847 12.0898 127.247 20.6903 127.247 31.2995C127.247 41.9087 135.847 50.5092 146.455 50.5092Z" fill="#FFB6B6"/>
<path d="M145.557 68.0284C145.557 68.0284 148.431 45.2839 148.94 38.6697C149.449 32.0554 158.784 21.7287 158.784 21.7287L165.397 27.071C165.397 27.071 170.993 27.071 167.178 18.9303C163.362 10.7897 156.24 9.51777 156.24 9.51777C156.24 9.51777 155.477 -1.1668 142.25 0.105182C129.023 1.37715 123.173 12.0617 123.173 12.0617C123.173 12.0617 122.41 -1.42118 114.016 8.50019C105.621 18.4216 100.789 22.4919 109.691 25.799C118.594 29.1061 125.208 26.5622 125.208 26.5622C125.208 26.5622 116.559 28.3429 118.085 34.4484C119.612 40.5539 97.9905 68.2828 107.911 71.3356C117.831 74.3883 139.961 81.7657 142.505 76.9322C145.048 72.0987 145.557 68.0284 145.557 68.0284Z" fill="#2F2E41"/>
<path d="M224.735 205.25C228.401 202.205 227.494 195.065 222.709 189.303C220.614 186.781 218.124 184.941 215.678 183.924L212.884 180.645L176.84 134.693C176.84 134.693 157.048 89.1145 151.134 84.1588C145.221 79.2032 138.193 81.6986 138.193 81.6986L132.67 88.4166L166.203 152.104L200.771 187.485L205.436 192.431C205.986 195.023 207.337 197.809 209.432 200.331C214.217 206.093 221.068 208.295 224.735 205.25Z" fill="#FFB6B6"/>
<path d="M130.578 78.166C130.578 78.166 139.401 123.961 149.442 130.712L169.451 115.108C169.451 115.108 171.201 115.033 167.943 111.352C164.684 107.67 165.518 99.7646 165.518 99.7646C165.518 99.7646 166.985 101.662 163.794 99.028C160.603 96.3939 163.574 78.2789 163.574 78.2789L130.578 78.166Z" fill="#E6E6E6"/>
</g>
<defs>
<clipPath id="clip0_310_2253">
<rect width="521" height="383" fill="white"/>
</clipPath>
</defs>
</svg>
