<svg width="453" height="311" viewBox="0 0 453 311" fill="none" xmlns="http://www.w3.org/2000/svg">
<g clip-path="url(#clip0_312_3114)">
<path d="M441.195 301.836L436.705 303.182L429.031 287.589L435.657 285.602L441.195 301.836Z" fill="#FFB6B6"/>
<path d="M443.732 305.572L429.257 309.913L429.198 309.741C428.72 308.34 428.855 306.819 429.574 305.511C430.293 304.204 431.536 303.218 433.03 302.769L435.033 300.096L440.607 300.497L441.871 300.118L443.732 305.572Z" fill="#2F2E41"/>
<path d="M398.632 306.035H393.919L391.677 288.99H398.633L398.632 306.035Z" fill="#FFB6B6"/>
<path d="M399.834 310.316L384.637 310.316V310.136C384.637 308.665 385.261 307.254 386.37 306.214C387.479 305.174 388.984 304.59 390.552 304.59L393.329 302.615L398.508 304.59L399.835 304.59L399.834 310.316Z" fill="#2F2E41"/>
<path d="M376.121 129.895C375.768 130.308 375.515 130.789 375.381 131.304C375.247 131.819 375.236 132.355 375.347 132.875C375.458 133.394 375.689 133.885 376.024 134.311C376.359 134.738 376.79 135.091 377.286 135.344L375.025 148.05L381.551 145.335L382.697 133.686C383.097 132.876 383.166 131.957 382.89 131.103C382.615 130.249 382.016 129.519 381.205 129.052C380.395 128.584 379.429 128.412 378.492 128.567C377.555 128.723 376.712 129.195 376.121 129.895Z" fill="#FFB6B6"/>
<path d="M435.615 235.289C435.615 235.289 436.715 221.867 432.818 219.375C428.922 216.882 396.799 215.627 396.799 215.627L394.805 218.086C394.805 218.086 394.624 219.235 391.599 228.592L390.367 280.82C390.245 285.912 389.298 292.309 391.566 293.617L392.668 298.786H398.732L402.082 290.096C403.526 287.91 404.141 285.331 403.828 282.776L405.657 275.105C405.529 274.985 405.439 274.833 405.397 274.668C405.19 273.525 405.464 272.351 406.161 271.393C406.323 271.169 406.501 270.957 406.694 270.756L413.396 242.649L422.436 275.528L428.016 287.206C427.467 288.43 427.832 289.54 428.831 290.569C428.46 291.526 430.065 292.198 430.755 293.436L432.91 297.235L438.974 294.134L439.525 291.033C439.892 290.113 438.905 289.504 438.178 287.594C439.535 286.242 439.461 284.926 438.153 283.64L435.86 274.372L435.834 270.124L435.805 265.583L435.615 235.289Z" fill="#2F2E41"/>
<path d="M410.261 155.493C416.079 155.493 420.795 151.071 420.795 145.616C420.795 140.162 416.079 135.74 410.261 135.74C404.444 135.74 399.728 140.162 399.728 145.616C399.728 151.071 404.444 155.493 410.261 155.493Z" fill="#FFB6B6"/>
<path d="M420.859 147.163L420.685 146.837C420.416 146.332 418.188 142.139 417.909 141.06L415.106 141.369L407.806 141.37L408.82 139.944L406.138 140.272C405.158 140.384 404.221 140.715 403.406 141.238C402.906 141.549 402.483 141.958 402.166 142.436C401.208 143.974 399.745 146.49 399.73 146.515L399.59 146.755L398.374 144.837C398.358 144.763 396.851 137.392 401.895 134.893C402.614 133.576 403.727 132.484 405.097 131.75C406.467 131.017 408.036 130.674 409.611 130.764C410.187 130.148 410.999 129.77 411.87 129.711C413.066 129.652 414.308 130.242 415.556 131.47C417.213 133.101 419.482 135.335 420.854 137.815L421.233 138.321C421.771 139.046 422.037 139.918 421.99 140.8C422.282 142.207 422.178 143.662 421.69 145.02L420.859 147.163Z" fill="#2F2E41"/>
<path d="M435.566 164.412L424.116 161.406L418.287 157.352L406.837 159.064L406.788 159.125C404.783 161.566 401.692 163.979 398.407 164.075C397.562 164.1 396.723 164.213 395.904 164.412L394.805 183.256V200.104C394.976 200.158 395.13 200.253 395.251 200.379C395.372 200.505 395.457 200.658 395.497 200.824C395.819 202.541 395.789 204.301 395.407 206.008C395.271 206.603 395.07 207.183 394.805 207.739C395.124 208.359 395.29 209.039 395.29 209.728C395.29 210.417 395.124 211.097 394.805 211.717C393.826 212.592 393.952 213.545 394.805 214.549V218.087C413.389 232.625 432.77 220.177 432.77 220.177L432.148 192.504L435.566 164.412Z" fill="#3F3D56"/>
<path d="M398.472 167.001L395.904 164.412L381.752 162.909L383.08 142.53L375.364 137.369L371.87 155.054C370.668 156.028 370.445 156.988 371.301 157.932C370.339 159.736 370.092 161.203 370.419 162.398L369.695 166.059L395.882 183.256L398.472 167.001Z" fill="#3F3D56"/>
<path d="M433.477 233.636C433.172 233.19 432.976 232.686 432.901 232.161C432.826 231.636 432.875 231.101 433.045 230.596C433.214 230.09 433.5 229.626 433.881 229.235C434.263 228.844 434.731 228.536 435.254 228.333L434.447 215.475L440.628 218.825L440.446 230.522C440.751 231.367 440.715 232.288 440.345 233.11C439.975 233.932 439.295 234.598 438.436 234.981C437.577 235.365 436.598 235.44 435.684 235.192C434.77 234.944 433.985 234.391 433.477 233.636Z" fill="#FFB6B6"/>
<path d="M431.265 167.628L435.566 164.412C435.566 164.412 439.965 166.687 441.303 170.765C442.642 174.844 444.984 198.059 444.984 198.059L445.345 206.703C445.808 208.074 445.687 209.298 444.584 210.272C446.241 211.88 445.994 213.218 443.73 214.273L441.382 227.863L434.013 226.429L434.945 199.628L428.922 182.373L431.265 167.628Z" fill="#3F3D56"/>
<path d="M136.885 61.1644H135.377V22.4227C135.377 19.4781 134.758 16.5623 133.556 13.8419C132.355 11.1215 130.593 8.6496 128.372 6.56746C126.151 4.48532 123.515 2.83368 120.613 1.70683C117.712 0.579983 114.602 2.03622e-06 111.461 0H23.9158C17.573 -1.23367e-05 11.4899 2.36236 7.0048 6.56741C2.51972 10.7725 1.46202e-05 16.4758 0 22.4226V234.963C-2.92405e-06 240.91 2.51968 246.613 7.00475 250.818C11.4898 255.023 17.5729 257.386 23.9158 257.386H111.461C114.602 257.386 117.712 256.806 120.613 255.679C123.515 254.552 126.151 252.9 128.372 250.818C130.593 248.736 132.354 246.264 133.556 243.544C134.758 240.823 135.377 237.908 135.377 234.963V88.7415H136.885V61.1644Z" fill="#3F3D56"/>
<path d="M112.426 5.83402H100.998C101.524 7.04199 101.725 8.35259 101.583 9.65038C101.441 10.9482 100.96 12.1933 100.184 13.2761C99.4081 14.3589 98.3599 15.2461 97.1319 15.8596C95.9039 16.4731 94.5338 16.794 93.1423 16.7941H42.9887C41.5973 16.794 40.2272 16.4731 38.9991 15.8596C37.7711 15.2461 36.7229 14.3589 35.9467 13.2761C35.1706 12.1933 34.6904 10.9481 34.5484 9.65036C34.4064 8.35257 34.607 7.04196 35.1325 5.83398H24.4592C19.7224 5.83398 15.1796 7.59817 11.8302 10.7385C8.48081 13.8788 6.59913 18.1379 6.59912 22.579V234.807C6.59912 237.006 7.06108 239.184 7.95863 241.215C8.85618 243.247 10.1717 245.093 11.8302 246.648C13.4887 248.203 15.4575 249.436 17.6244 250.278C19.7913 251.119 22.1137 251.552 24.4591 251.552H112.426C114.771 251.552 117.094 251.119 119.261 250.278C121.428 249.436 123.397 248.203 125.055 246.648C126.713 245.093 128.029 243.247 128.927 241.215C129.824 239.184 130.286 237.006 130.286 234.807V22.579C130.286 20.38 129.824 18.2026 128.927 16.171C128.029 14.1394 126.713 12.2934 125.055 10.7385C123.397 9.18358 121.428 7.95015 119.261 7.10864C117.094 6.26713 114.771 5.83401 112.426 5.83402Z" fill="white"/>
<path d="M111.58 85.3214C111.586 90.1423 110.669 94.9252 108.873 99.4424C108.057 101.511 107.056 103.512 105.881 105.423C102.103 111.604 96.6515 116.739 90.0776 120.311C83.5036 123.883 76.0403 125.764 68.4423 125.764C60.8443 125.764 53.3811 123.883 46.8071 120.311C40.2332 116.739 34.7816 111.604 31.0037 105.423C30.6213 104.801 30.2586 104.171 29.9158 103.53C26.9834 98.0768 25.4064 92.0714 25.303 85.9648C25.1996 79.8582 26.5726 73.8089 29.3188 68.2708C32.065 62.7327 36.1132 57.8495 41.1597 53.9877C46.2062 50.1258 52.1199 47.3856 58.4572 45.9725C64.7946 44.5594 71.3909 44.5103 77.7514 45.8286C84.1119 47.147 90.0714 49.7987 95.1828 53.5848C100.294 57.3708 104.425 62.193 107.265 67.6895C110.104 73.1859 111.58 79.214 111.58 85.3214Z" fill="#F1F1F1"/>
<path d="M70.6853 92.1499C75.24 92.1499 78.9323 88.6881 78.9323 84.4177C78.9323 80.1474 75.24 76.6855 70.6853 76.6855C66.1306 76.6855 62.4382 80.1474 62.4382 84.4177C62.4382 88.6881 66.1306 92.1499 70.6853 92.1499Z" fill="#FF6582"/>
<path d="M29.916 103.53C33.5496 99.8482 38.4071 94.003 42.9629 98.2265C45.2493 100.219 48.8276 105.156 52.253 101.928L79.0012 76.8498C79.5047 76.3837 80.1026 76.0167 80.7596 75.7702C81.4166 75.5238 82.1195 75.403 82.827 75.4149C83.5345 75.4267 84.2323 75.5711 84.8795 75.8394C85.5267 76.1077 86.1101 76.4946 86.5956 76.9773L108.873 99.4418C108.057 101.511 107.056 103.511 105.881 105.422H31.004L29.916 103.53Z" fill="#63FFBE"/>
<path d="M88.683 167.451C88.3879 167.452 88.105 167.562 87.8966 167.758C87.6881 167.954 87.571 168.219 87.571 168.496C87.571 168.773 87.6881 169.038 87.8966 169.234C88.105 169.43 88.3879 169.54 88.683 169.541H100.377C100.673 169.541 100.956 169.431 101.165 169.235C101.374 169.039 101.492 168.773 101.492 168.496C101.492 168.219 101.374 167.953 101.165 167.757C100.956 167.561 100.673 167.451 100.377 167.451H88.683Z" fill="#63FFBE"/>
<path d="M35.9963 152.104C35.7007 152.104 35.4172 152.214 35.2082 152.41C34.9992 152.606 34.8818 152.871 34.8818 153.148C34.8818 153.425 34.9992 153.691 35.2082 153.887C35.4172 154.083 35.7007 154.193 35.9963 154.193H100.889C101.185 154.193 101.468 154.083 101.677 153.887C101.886 153.691 102.003 153.425 102.003 153.148C102.003 152.871 101.886 152.606 101.677 152.41C101.468 152.214 101.185 152.104 100.889 152.104H35.9963Z" fill="#E5E5E5"/>
<path d="M35.9962 159.777C35.7011 159.778 35.4183 159.888 35.2098 160.084C35.0013 160.28 34.8843 160.545 34.8843 160.822C34.8843 161.099 35.0013 161.364 35.2098 161.56C35.4183 161.756 35.7011 161.866 35.9962 161.867H100.889C101.036 161.867 101.181 161.841 101.316 161.788C101.452 161.736 101.575 161.659 101.679 161.562C101.782 161.465 101.865 161.35 101.921 161.223C101.977 161.096 102.006 160.96 102.006 160.822C102.006 160.685 101.977 160.549 101.921 160.422C101.865 160.295 101.782 160.18 101.679 160.083C101.575 159.986 101.452 159.909 101.316 159.856C101.181 159.804 101.036 159.777 100.889 159.777H35.9962Z" fill="#E5E5E5"/>
<path d="M88.683 216.689C88.3875 216.689 88.104 216.8 87.895 216.995C87.686 217.191 87.5686 217.457 87.5686 217.734C87.5686 218.011 87.686 218.277 87.895 218.473C88.104 218.669 88.3875 218.779 88.683 218.779H100.377C100.673 218.779 100.957 218.669 101.166 218.473C101.375 218.277 101.492 218.011 101.492 217.734C101.492 217.457 101.375 217.191 101.166 216.995C100.957 216.8 100.673 216.689 100.377 216.689H88.683Z" fill="#63FFBE"/>
<path d="M35.9963 201.342C35.7007 201.342 35.4172 201.452 35.2082 201.648C34.9992 201.844 34.8818 202.11 34.8818 202.387C34.8818 202.664 34.9992 202.93 35.2082 203.125C35.4172 203.321 35.7007 203.432 35.9963 203.432H100.889C101.036 203.432 101.181 203.405 101.316 203.353C101.452 203.3 101.575 203.223 101.679 203.126C101.782 203.029 101.865 202.914 101.921 202.787C101.977 202.66 102.006 202.524 102.006 202.387C102.006 202.249 101.977 202.113 101.921 201.986C101.865 201.859 101.782 201.744 101.679 201.647C101.575 201.55 101.452 201.473 101.316 201.421C101.181 201.368 101.036 201.341 100.889 201.342H35.9963Z" fill="#E5E5E5"/>
<path d="M35.9963 209.016C35.7007 209.016 35.4172 209.126 35.2082 209.322C34.9992 209.518 34.8818 209.783 34.8818 210.06C34.8818 210.338 34.9992 210.603 35.2082 210.799C35.4172 210.995 35.7007 211.105 35.9963 211.105H100.889C101.185 211.105 101.468 210.995 101.677 210.799C101.886 210.603 102.003 210.338 102.003 210.06C102.003 209.783 101.886 209.518 101.677 209.322C101.468 209.126 101.185 209.016 100.889 209.016H35.9963Z" fill="#E5E5E5"/>
<path d="M369.937 117.781L361.033 114.006C360.989 115.121 360.652 116.209 360.054 117.173C359.456 118.137 358.614 118.949 357.602 119.536C356.59 120.124 355.44 120.469 354.253 120.541C353.065 120.613 351.877 120.411 350.793 119.951L311.714 103.384C310.629 102.924 309.682 102.222 308.956 101.338C308.23 100.454 307.746 99.4166 307.549 98.3166C307.351 97.2165 307.444 96.0876 307.821 95.0295C308.198 93.9714 308.847 93.0164 309.711 92.2488L301.394 88.723C297.703 87.1583 293.501 87.0324 289.711 88.3728C285.921 89.7133 282.854 92.4104 281.185 95.8709L201.432 261.238C200.606 262.951 200.147 264.8 200.083 266.68C200.019 268.559 200.351 270.432 201.058 272.192C201.766 273.951 202.837 275.563 204.209 276.934C205.581 278.306 207.228 279.41 209.056 280.185L277.599 309.243C281.29 310.808 285.492 310.934 289.282 309.593C293.072 308.253 296.139 305.556 297.808 302.095L377.561 136.729C378.387 135.015 378.846 133.166 378.91 131.286C378.974 129.407 378.643 127.534 377.935 125.775C377.227 124.015 376.156 122.404 374.784 121.032C373.412 119.661 371.765 118.556 369.937 117.781Z" fill="#E4E4E4"/>
<path d="M290.61 196.52C284.608 193.964 279.429 189.972 275.594 184.946C271.759 179.919 269.403 174.034 268.762 167.883C268.697 167.273 268.651 166.646 268.623 166.02C268.362 160.535 269.493 155.071 271.922 150.075C274.181 145.396 277.507 141.239 281.667 137.897C285.826 134.556 290.717 132.11 295.994 130.734C301.271 129.357 306.807 129.083 312.209 129.931C317.612 130.778 322.75 132.727 327.262 135.64C331.773 138.552 335.548 142.357 338.321 146.787C341.093 151.216 342.795 156.162 343.306 161.275C343.817 166.388 343.126 171.545 341.28 176.38C339.434 181.215 336.479 185.612 332.624 189.26C331.189 190.623 329.634 191.869 327.976 192.987C322.626 196.599 316.357 198.826 309.798 199.447C303.239 200.067 296.621 199.057 290.61 196.52ZM321.007 133.492C312.224 129.78 302.229 129.486 293.215 132.675C284.202 135.864 276.905 142.274 272.926 150.501C270.569 155.349 269.471 160.653 269.725 165.977C269.752 166.583 269.797 167.191 269.859 167.783C270.471 173.756 272.754 179.472 276.477 184.353C280.201 189.234 285.233 193.106 291.065 195.578C296.897 198.051 303.322 199.036 309.69 198.434C316.058 197.831 322.144 195.663 327.331 192.149C328.94 191.064 330.448 189.855 331.84 188.533C335.968 184.627 339.027 179.842 340.755 174.588C342.484 169.334 342.83 163.765 341.766 158.358C340.702 152.951 338.258 147.865 334.643 143.535C331.028 139.205 326.35 135.759 321.007 133.492Z" fill="white"/>
<path d="M294.301 131.728L293.271 132.098L319.468 196.215L320.497 195.846L294.301 131.728Z" fill="white"/>
<path d="M339.423 151.727L271.034 176.283L271.428 177.249L339.817 152.692L339.423 151.727Z" fill="white"/>
<path d="M305.507 246.616L240.814 219.19C240.334 218.986 239.961 218.612 239.775 218.15C239.589 217.689 239.606 217.176 239.823 216.726L245.908 204.108C246.126 203.658 246.525 203.308 247.017 203.134C247.51 202.959 248.056 202.975 248.536 203.178L313.229 230.604C313.709 230.808 314.082 231.182 314.268 231.644C314.454 232.106 314.437 232.618 314.22 233.068L308.135 245.687C307.917 246.136 307.518 246.487 307.026 246.661C306.533 246.835 305.987 246.819 305.507 246.616ZM248.082 204.12C247.868 204.03 247.625 204.023 247.406 204.1C247.187 204.178 247.01 204.334 246.913 204.534L240.827 217.152C240.731 217.352 240.723 217.58 240.806 217.786C240.889 217.991 241.055 218.158 241.268 218.248L305.961 245.674C306.175 245.765 306.418 245.772 306.637 245.694C306.856 245.617 307.033 245.461 307.13 245.261L313.216 232.642C313.312 232.442 313.32 232.214 313.237 232.009C313.154 231.803 312.988 231.637 312.775 231.546L248.082 204.12Z" fill="white"/>
<path d="M289.835 279.11L225.142 251.684C224.663 251.48 224.289 251.106 224.103 250.645C223.917 250.183 223.935 249.671 224.151 249.221L230.237 236.602C230.454 236.152 230.853 235.802 231.346 235.628C231.838 235.454 232.384 235.47 232.864 235.672L297.558 263.099C298.037 263.302 298.411 263.676 298.596 264.138C298.782 264.6 298.765 265.112 298.549 265.562L292.463 278.181C292.246 278.63 291.847 278.981 291.354 279.155C290.862 279.329 290.315 279.313 289.835 279.11ZM232.41 236.614C232.197 236.524 231.954 236.517 231.735 236.594C231.515 236.672 231.338 236.828 231.241 237.028L225.156 249.646C225.059 249.847 225.052 250.074 225.134 250.28C225.217 250.485 225.383 250.652 225.596 250.742L290.29 278.168C290.503 278.259 290.746 278.266 290.965 278.188C291.184 278.111 291.362 277.955 291.458 277.755L297.544 265.136C297.64 264.936 297.648 264.708 297.565 264.503C297.483 264.297 297.317 264.131 297.103 264.04L232.41 236.614Z" fill="white"/>
<path d="M264.832 196.891C263.502 190.678 260.628 184.846 256.444 179.869C252.191 174.815 246.996 170.526 241.112 167.208C235.031 163.745 228.407 161.199 221.484 159.663C212.878 157.724 203.992 157.093 195.16 157.173C186.265 157.253 177.398 158.034 168.557 158.905C167.434 159.015 166.31 159.127 165.187 159.24C164.139 159.345 164.128 160.896 165.187 160.79C173.897 159.919 182.62 159.062 191.38 158.798C200.068 158.536 208.821 158.857 217.372 160.411C224.493 161.65 231.363 163.928 237.733 167.161C243.666 170.174 248.987 174.142 253.454 178.884C257.83 183.518 260.995 189.045 262.697 195.025C262.903 195.779 263.081 196.539 263.237 197.303C263.437 198.282 265.032 197.867 264.832 196.891Z" fill="#2F2E41"/>
<path d="M171.093 148.144L157.884 161.317C157.796 161.402 157.73 161.504 157.69 161.616C157.65 161.728 157.637 161.847 157.653 161.964C157.669 162.081 157.714 162.193 157.783 162.292C157.851 162.391 157.943 162.474 158.051 162.535L169.968 167.875C170.924 168.304 171.764 166.967 170.803 166.537L158.886 161.196L159.053 162.413L172.263 149.24C172.991 148.514 171.824 147.415 171.093 148.144Z" fill="#2F2E41"/>
<path d="M452.344 311H200.257C200.083 311 199.916 310.935 199.793 310.82C199.67 310.705 199.601 310.548 199.601 310.385C199.601 310.222 199.67 310.065 199.793 309.95C199.916 309.834 200.083 309.77 200.257 309.77H452.344C452.518 309.77 452.685 309.834 452.808 309.95C452.931 310.065 453 310.222 453 310.385C453 310.548 452.931 310.705 452.808 310.82C452.685 310.935 452.518 311 452.344 311Z" fill="#CACACA"/>
</g>
<defs>
<clipPath id="clip0_312_3114">
<rect width="453" height="311" fill="white"/>
</clipPath>
</defs>
</svg>
