<svg width="476" height="299" viewBox="0 0 476 299" fill="none" xmlns="http://www.w3.org/2000/svg">
<g clip-path="url(#clip0_310_2438)">
<path d="M164.876 284.432C164.504 284.449 164.136 284.351 163.821 284.152C163.507 283.952 163.261 283.661 163.118 283.317C162.974 282.973 162.939 282.593 163.019 282.229C163.098 281.864 163.287 281.533 163.56 281.28L163.685 280.785C163.668 280.745 163.652 280.706 163.635 280.666C163.261 279.78 162.633 279.024 161.831 278.494C161.029 277.964 160.088 277.683 159.127 277.687C158.167 277.69 157.228 277.978 156.43 278.514C155.632 279.05 155.01 279.81 154.642 280.699C153.171 284.247 151.299 287.801 150.837 291.553C150.634 293.211 150.72 294.892 151.091 296.521C147.636 288.973 145.842 280.77 145.831 272.467C145.83 270.384 145.945 268.302 146.177 266.231C146.368 264.534 146.633 262.849 146.972 261.175C148.824 252.096 152.8 243.587 158.573 236.345C161.367 234.819 163.626 232.471 165.047 229.618C165.562 228.593 165.925 227.498 166.127 226.368C165.812 226.409 164.938 221.602 165.176 221.307C164.737 220.639 163.951 220.307 163.471 219.656C161.085 216.416 157.798 216.982 156.082 221.384C152.416 223.237 152.381 226.311 154.63 229.266C156.061 231.146 156.258 233.691 157.513 235.704C157.384 235.869 157.25 236.03 157.121 236.195C154.759 239.237 152.701 242.502 150.976 245.945C151.395 242.088 150.895 238.186 149.515 234.56C148.116 231.181 145.495 228.335 143.186 225.414C140.414 221.905 134.728 223.437 134.239 227.885C134.234 227.928 134.23 227.971 134.225 228.014C134.568 228.207 134.904 228.413 135.232 228.631C135.645 228.907 135.964 229.301 136.149 229.762C136.334 230.223 136.376 230.73 136.268 231.215C136.161 231.7 135.91 232.141 135.548 232.481C135.186 232.821 134.73 233.043 134.239 233.119L134.189 233.127C134.311 234.364 134.527 235.591 134.835 236.796C131.874 248.266 138.267 252.444 147.396 252.631C147.598 252.735 147.794 252.838 147.996 252.937C146.262 257.857 145.175 262.982 144.761 268.182C144.527 271.251 144.541 274.333 144.802 277.399L144.787 277.29C144.125 273.881 142.309 270.805 139.646 268.581C135.689 265.326 130.099 264.127 125.831 261.511C125.377 261.219 124.85 261.063 124.311 261.062C123.772 261.061 123.244 261.214 122.789 261.503C122.334 261.793 121.971 262.206 121.743 262.696C121.515 263.185 121.431 263.729 121.502 264.264C121.508 264.303 121.514 264.341 121.519 264.379C122.156 264.638 122.775 264.937 123.374 265.274C123.717 265.468 124.053 265.673 124.381 265.891C124.794 266.167 125.114 266.561 125.298 267.022C125.483 267.484 125.525 267.99 125.418 268.475C125.31 268.96 125.059 269.402 124.697 269.741C124.335 270.081 123.879 270.303 123.388 270.379L123.338 270.387C123.302 270.392 123.271 270.397 123.235 270.402C124.322 273.002 125.848 275.395 127.746 277.477C129.597 287.49 137.551 288.44 146.058 285.524H146.063C146.996 289.586 148.349 293.541 150.099 297.323H164.515C164.566 297.163 164.613 296.997 164.659 296.836C163.325 296.92 161.985 296.841 160.67 296.598C161.74 295.284 162.81 293.959 163.879 292.645C163.903 292.62 163.925 292.594 163.946 292.567C164.489 291.894 165.037 291.227 165.579 290.554L165.579 290.553C165.608 288.491 165.372 286.433 164.876 284.432Z" fill="#F2F2F2"/>
<path d="M339.93 151.249H11.0529C8.12253 151.245 5.31314 150.078 3.24106 148.003C1.16897 145.927 0.00338535 143.114 0 140.179V11.0699C0.00338535 8.13504 1.16897 5.32133 3.24106 3.24605C5.31314 1.17077 8.12253 0.00339056 11.0529 0H339.93C342.86 0.00339056 345.67 1.17077 347.742 3.24605C349.814 5.32133 350.98 8.13504 350.983 11.0699V140.179C350.98 143.114 349.814 145.927 347.742 148.003C345.67 150.078 342.86 151.245 339.93 151.249Z" fill="#F2F2F2"/>
<path d="M263.229 144.189H63.257C48.3554 144.172 34.069 138.236 23.532 127.683C12.9949 117.129 7.06784 102.821 7.05103 87.8964V63.3594C7.06782 48.4348 12.9949 34.1263 23.5319 23.573C34.0689 13.0196 48.3554 7.08334 63.257 7.06641H287.728C302.629 7.08333 316.916 13.0196 327.453 23.573C337.99 34.1263 343.917 48.4348 343.934 63.3594C343.909 84.7893 335.399 105.335 320.269 120.488C305.139 135.641 284.625 144.165 263.229 144.189Z" fill="white"/>
<path d="M211.644 44.0263H79.4604C78.7044 44.0263 77.9793 43.7255 77.4448 43.1901C76.9102 42.6547 76.6099 41.9285 76.6099 41.1713C76.6099 40.4142 76.9102 39.688 77.4448 39.1526C77.9793 38.6172 78.7044 38.3164 79.4604 38.3164H211.644C212.4 38.3164 213.125 38.6172 213.66 39.1526C214.194 39.688 214.495 40.4142 214.495 41.1713C214.495 41.9285 214.194 42.6547 213.66 43.1901C213.125 43.7255 212.4 44.0263 211.644 44.0263Z" fill="#E6E6E6"/>
<path d="M278.558 74.4853H79.4604C78.7044 74.4853 77.9793 74.1845 77.4448 73.6491C76.9102 73.1137 76.6099 72.3875 76.6099 71.6303C76.6099 70.8731 76.9102 70.147 77.4448 69.6116C77.9793 69.0762 78.7044 68.7754 79.4604 68.7754H278.558C279.314 68.7754 280.039 69.0762 280.573 69.6116C281.108 70.147 281.408 70.8731 281.408 71.6303C281.408 72.3875 281.108 73.1137 280.573 73.6491C280.039 74.1845 279.314 74.4853 278.558 74.4853Z" fill="#E6E6E6"/>
<path d="M278.558 104.946H79.4604C78.7044 104.946 77.9793 104.645 77.4448 104.11C76.9102 103.575 76.6099 102.848 76.6099 102.091C76.6099 101.334 76.9102 100.608 77.4448 100.073C77.9793 99.5371 78.7044 99.2363 79.4604 99.2363H278.558C279.314 99.2363 280.039 99.5371 280.573 100.073C281.108 100.608 281.408 101.334 281.408 102.091C281.408 102.848 281.108 103.575 280.573 104.11C280.039 104.645 279.314 104.946 278.558 104.946Z" fill="#E6E6E6"/>
<path d="M278.558 104.946H79.4604C78.7044 104.946 77.9793 104.645 77.4448 104.11C76.9102 103.575 76.6099 102.848 76.6099 102.091C76.6099 101.334 76.9102 100.608 77.4448 100.073C77.9793 99.5371 78.7044 99.2363 79.4604 99.2363H278.558C279.314 99.2363 280.039 99.5371 280.573 100.073C281.108 100.608 281.408 101.334 281.408 102.091C281.408 102.848 281.108 103.575 280.573 104.11C280.039 104.645 279.314 104.946 278.558 104.946Z" fill="#E6E6E6"/>
<path d="M259.287 52.5526C261.109 42.6032 265.37 33.8922 272.86 26.8216C273.135 26.3011 273.606 25.9113 274.168 25.7376C274.73 25.5639 275.337 25.6205 275.858 25.8951L295.26 36.1619C295.78 36.4377 296.169 36.9086 296.343 37.4714C296.516 38.0342 296.46 38.643 296.185 39.1641L282.612 64.8951C282.337 65.4155 281.866 65.8054 281.304 65.9791C280.742 66.1528 280.135 66.0961 279.614 65.8216L260.212 55.5547C259.692 55.279 259.303 54.8081 259.129 54.2453C258.956 53.6824 259.012 53.0737 259.287 52.5526Z" fill="#E6E6E6"/>
<path d="M264.875 45.5681C265.115 40.3746 268.896 34.7557 273.601 29.0258C273.859 28.5384 274.299 28.1733 274.826 28.0106C275.352 27.8479 275.921 27.901 276.408 28.1581L293.083 36.9816C293.57 37.2399 293.935 37.6809 294.097 38.208C294.259 38.7351 294.206 39.3052 293.95 39.7933L281.871 62.6904C281.613 63.1778 281.173 63.5429 280.647 63.7056C280.12 63.8682 279.551 63.8152 279.064 63.558L268.734 58.092C266.566 56.9418 264.942 54.9772 264.219 52.6293C263.495 50.2814 263.731 47.7419 264.875 45.5681Z" fill="white"/>
<path d="M284.455 48.8815L271.434 42.0376C271.228 41.9281 271.074 41.7413 271.005 41.518C270.936 41.2947 270.958 41.0531 271.066 40.8461C271.175 40.6391 271.361 40.4836 271.583 40.4136C271.806 40.3436 272.047 40.3648 272.254 40.4726L285.275 47.3165C285.482 47.426 285.636 47.6128 285.705 47.8361C285.774 48.0594 285.752 48.301 285.644 48.508C285.535 48.715 285.349 48.8705 285.127 48.9405C284.904 49.0105 284.663 48.9893 284.455 48.8815Z" fill="#63FFBE"/>
<path d="M276.547 39.2516L273.683 37.7459C273.58 37.6922 273.488 37.6187 273.413 37.5296C273.339 37.4404 273.283 37.3374 273.248 37.2264C273.213 37.1154 273.2 36.9986 273.211 36.8827C273.221 36.7669 273.254 36.6542 273.308 36.5512C273.362 36.4482 273.436 36.3568 273.525 36.2824C273.615 36.208 273.718 36.152 273.829 36.1176C273.94 36.0832 274.056 36.0711 274.172 36.082C274.288 36.0929 274.4 36.1265 274.503 36.181L277.367 37.6866C277.574 37.7961 277.728 37.9829 277.797 38.2062C277.866 38.4295 277.844 38.6711 277.735 38.8781C277.627 39.0851 277.441 39.2406 277.218 39.3106C276.996 39.3806 276.754 39.3594 276.547 39.2516Z" fill="#63FFBE"/>
<path d="M280.85 55.7608L267.829 48.9169C267.623 48.8076 267.468 48.6207 267.399 48.3973C267.33 48.1739 267.352 47.9321 267.46 47.725C267.569 47.5179 267.755 47.3623 267.978 47.2924C268.201 47.2224 268.442 47.2439 268.649 47.3519L281.67 54.1958C281.877 54.3053 282.031 54.4921 282.1 54.7154C282.169 54.9387 282.147 55.1803 282.039 55.3873C281.93 55.5943 281.744 55.7498 281.522 55.8198C281.299 55.8898 281.058 55.8686 280.85 55.7608Z" fill="#63FFBE"/>
<path d="M282.653 52.3222L269.632 45.4783C269.529 45.4247 269.437 45.3512 269.363 45.262C269.288 45.1729 269.232 45.0698 269.197 44.9588C269.162 44.8478 269.149 44.7311 269.16 44.6152C269.17 44.4993 269.203 44.3866 269.257 44.2836C269.311 44.1806 269.385 44.0893 269.474 44.0149C269.564 43.9405 269.667 43.8845 269.778 43.8501C269.889 43.8157 270.005 43.8035 270.121 43.8144C270.237 43.8253 270.349 43.8589 270.452 43.9134L283.473 50.7573C283.679 50.8667 283.834 51.0535 283.903 51.2769C283.972 51.5002 283.949 51.7418 283.841 51.9488C283.733 52.1557 283.547 52.3113 283.324 52.3813C283.101 52.4513 282.86 52.43 282.653 52.3222Z" fill="#63FFBE"/>
<path d="M399.592 227.165H392.856C392.538 227.165 392.223 227.228 391.928 227.35C391.634 227.472 391.367 227.651 391.141 227.877C390.916 228.102 390.738 228.37 390.616 228.665C390.494 228.96 390.431 229.275 390.431 229.594C390.431 230.239 390.176 230.857 389.721 231.312C389.266 231.768 388.649 232.024 388.006 232.024H365.551C365.233 232.024 364.918 231.961 364.623 231.839C364.329 231.717 364.062 231.538 363.837 231.312C363.611 231.086 363.433 230.819 363.311 230.524C363.189 230.229 363.126 229.913 363.126 229.594L362.682 227.132L358.612 221.935C358.479 221.762 358.307 221.622 358.111 221.527C357.915 221.432 357.699 221.383 357.481 221.385H349.848C349.467 221.385 349.101 221.537 348.832 221.807C348.562 222.077 348.411 222.443 348.41 222.824L348.253 227.132H345.367C344.761 227.132 344.161 227.252 343.601 227.484C343.041 227.716 342.532 228.057 342.104 228.486C341.675 228.915 341.335 229.425 341.103 229.986C340.871 230.546 340.752 231.148 340.752 231.755V261.861C340.752 262.399 340.858 262.933 341.063 263.43C341.269 263.928 341.571 264.38 341.951 264.761C342.332 265.142 342.783 265.444 343.28 265.65C343.777 265.857 344.31 265.963 344.847 265.963H399.592C400.677 265.961 401.718 265.529 402.486 264.76C403.254 263.991 403.685 262.948 403.686 261.861V231.266C403.686 230.728 403.58 230.195 403.375 229.697C403.169 229.2 402.867 228.747 402.487 228.367C402.107 227.986 401.655 227.684 401.159 227.478C400.662 227.272 400.129 227.165 399.592 227.165Z" fill="#F2F2F2"/>
<path d="M362.684 227.021H348.41V222.713C348.411 222.331 348.562 221.966 348.832 221.696C349.101 221.426 349.467 221.274 349.848 221.273H357.481C357.699 221.272 357.915 221.32 358.111 221.416C358.307 221.511 358.479 221.651 358.612 221.824L362.684 227.021Z" fill="#E6E6E6"/>
<path d="M369.993 262.65H346.159C345.405 262.649 344.681 262.349 344.148 261.815C343.614 261.28 343.314 260.556 343.313 259.8V253.272C343.314 252.516 343.614 251.792 344.148 251.258C344.681 250.723 345.405 250.423 346.159 250.422H374.765C375.52 250.423 376.243 250.723 376.777 251.258C377.31 251.792 377.61 252.516 377.611 253.272V255.02C377.609 257.043 376.806 258.983 375.377 260.413C373.949 261.843 372.013 262.648 369.993 262.65Z" fill="white"/>
<path d="M353.02 255.345H347.137C346.755 255.345 346.388 255.193 346.117 254.922C345.846 254.651 345.694 254.284 345.694 253.9C345.694 253.517 345.846 253.149 346.117 252.878C346.388 252.607 346.755 252.455 347.137 252.455H353.02C353.403 252.455 353.77 252.607 354.04 252.878C354.311 253.149 354.463 253.517 354.463 253.9C354.463 254.284 354.311 254.651 354.04 254.922C353.77 255.193 353.403 255.345 353.02 255.345Z" fill="#F2F2F2"/>
<path d="M372.999 259.904H347.137C346.947 259.904 346.759 259.867 346.584 259.795C346.409 259.722 346.249 259.616 346.115 259.482C345.981 259.348 345.874 259.188 345.801 259.013C345.729 258.837 345.691 258.649 345.691 258.459C345.691 258.269 345.729 258.081 345.801 257.905C345.874 257.73 345.981 257.57 346.115 257.436C346.249 257.302 346.409 257.195 346.584 257.123C346.759 257.05 346.947 257.013 347.137 257.014H372.999C373.382 257.014 373.749 257.166 374.019 257.437C374.29 257.708 374.442 258.076 374.442 258.459C374.442 258.842 374.29 259.21 374.019 259.481C373.749 259.752 373.382 259.904 372.999 259.904Z" fill="#F2F2F2"/>
<path d="M423.518 260.197H416.783C416.465 260.197 416.149 260.26 415.855 260.382C415.561 260.504 415.293 260.683 415.068 260.908C414.843 261.134 414.664 261.402 414.543 261.696C414.421 261.991 414.358 262.307 414.358 262.626C414.358 263.27 414.102 263.888 413.648 264.343C413.193 264.799 412.576 265.055 411.933 265.055H389.478C389.16 265.055 388.844 264.992 388.55 264.87C388.256 264.748 387.989 264.569 387.763 264.343C387.538 264.118 387.359 263.85 387.238 263.555C387.116 263.261 387.053 262.945 387.053 262.626L386.609 260.163L382.539 254.966C382.405 254.793 382.234 254.654 382.038 254.558C381.842 254.463 381.626 254.414 381.408 254.416H373.775C373.393 254.417 373.028 254.568 372.759 254.838C372.489 255.108 372.338 255.474 372.337 255.856L372.18 260.163H369.294C368.688 260.163 368.088 260.283 367.528 260.515C366.968 260.748 366.459 261.088 366.03 261.517C365.602 261.947 365.262 262.456 365.03 263.017C364.798 263.578 364.678 264.179 364.678 264.786V294.892C364.678 295.431 364.784 295.964 364.99 296.462C365.196 296.959 365.498 297.412 365.878 297.792C366.258 298.173 366.71 298.476 367.207 298.682C367.704 298.888 368.236 298.994 368.774 298.994H423.518C424.604 298.993 425.645 298.56 426.413 297.791C427.18 297.022 427.612 295.979 427.613 294.892V264.298C427.613 263.759 427.507 263.226 427.301 262.728C427.096 262.231 426.794 261.779 426.414 261.398C426.033 261.017 425.582 260.715 425.085 260.509C424.589 260.303 424.056 260.197 423.518 260.197Z" fill="#F2F2F2"/>
<path d="M386.611 260.052H372.337V255.744C372.338 255.363 372.489 254.997 372.759 254.727C373.028 254.457 373.393 254.305 373.775 254.305H381.408C381.626 254.303 381.842 254.351 382.038 254.447C382.234 254.542 382.405 254.682 382.539 254.855L386.611 260.052Z" fill="#E6E6E6"/>
<path d="M393.92 295.681H370.086C369.331 295.681 368.608 295.38 368.075 294.846C367.541 294.311 367.241 293.587 367.24 292.831V286.303C367.241 285.548 367.541 284.823 368.075 284.289C368.608 283.755 369.331 283.454 370.086 283.453H398.692C399.447 283.454 400.17 283.755 400.703 284.289C401.237 284.823 401.537 285.548 401.538 286.303V288.052C401.536 290.075 400.732 292.014 399.304 293.444C397.876 294.875 395.94 295.679 393.92 295.681Z" fill="white"/>
<path d="M376.947 288.377H371.064C370.681 288.377 370.314 288.224 370.044 287.953C369.773 287.682 369.621 287.315 369.621 286.931C369.621 286.548 369.773 286.181 370.044 285.91C370.314 285.639 370.681 285.486 371.064 285.486H376.947C377.329 285.486 377.697 285.639 377.967 285.91C378.238 286.181 378.39 286.548 378.39 286.931C378.39 287.315 378.238 287.682 377.967 287.953C377.697 288.224 377.329 288.377 376.947 288.377Z" fill="#F2F2F2"/>
<path d="M396.926 292.935H371.064C370.874 292.936 370.686 292.899 370.511 292.826C370.336 292.754 370.176 292.647 370.042 292.513C369.908 292.379 369.801 292.219 369.728 292.044C369.656 291.868 369.618 291.68 369.618 291.49C369.618 291.3 369.656 291.112 369.728 290.936C369.801 290.761 369.908 290.601 370.042 290.467C370.176 290.333 370.336 290.227 370.511 290.154C370.686 290.082 370.874 290.045 371.064 290.045H396.926C397.309 290.045 397.676 290.197 397.946 290.468C398.217 290.739 398.369 291.107 398.369 291.49C398.369 291.873 398.217 292.241 397.946 292.512C397.676 292.783 397.309 292.935 396.926 292.935Z" fill="#F2F2F2"/>
<path d="M316.525 287.658L310.963 287.658L308.318 266.174H316.526L316.525 287.658Z" fill="#FFB6B6"/>
<path d="M299.739 295.876C299.742 296.5 299.99 297.097 300.43 297.539C300.87 297.981 301.466 298.231 302.089 298.235H312.559L312.883 297.561L314.364 294.501L314.937 297.561L315.064 298.235H319.013L318.957 297.557L317.904 284.91L316.526 284.825L310.575 284.472L309.113 284.383V288.159C308.003 289.341 299.297 293.809 299.739 295.876Z" fill="#2F2E41"/>
<path d="M408.603 244.637L405.915 249.514L385.857 241.451L389.824 234.254L408.603 244.637Z" fill="#FFB6B6"/>
<path d="M407.675 263.328C408.222 263.627 408.864 263.698 409.463 263.526C410.062 263.353 410.568 262.951 410.873 262.407L415.932 253.227L415.5 252.618L413.541 249.84L416.493 250.816L417.143 251.03L419.051 247.568L418.431 247.29L406.868 242.102L406.128 243.268L402.943 248.316L402.159 249.555L405.459 251.38C405.956 252.924 405.655 262.717 407.675 263.328Z" fill="#2F2E41"/>
<path d="M325.83 146.059L346.843 154.995C346.843 154.995 353.567 169.37 348.917 171.43V209.433L396.915 237.253L382.447 261.456C382.447 261.456 363.878 256.652 364.071 252.266C364.265 247.881 366.406 246.146 360.03 245.583C353.654 245.019 350.043 245.489 350.216 241.576C350.39 237.662 327.698 217.312 327.698 217.312L325.83 146.059Z" fill="#2F2E41"/>
<path d="M330.864 153.355L325.536 147.359C325.536 147.359 313.569 167.039 313.614 171.082C313.659 175.124 303.456 195.97 303.456 195.97L290.805 270.361C290.805 270.361 315.207 276.171 317.086 276.332C318.965 276.492 322.133 277.484 320.141 273.718C318.148 269.953 320.141 269.953 320.141 269.953L321.365 212.677L330.864 173.283V153.355Z" fill="#2F2E41"/>
<path d="M328.07 95.7279L338.273 93.2754L344.173 100.523C346.866 103.061 348.874 106.239 350.009 109.763C351.145 113.287 351.371 117.041 350.668 120.677L345.211 148.864C345.211 148.864 355.006 157.857 353.781 162.762C351.796 170.717 329.895 163.692 326.126 164.249C322.357 164.805 317.459 158.697 316.643 155.211C315.827 151.726 319.156 143.36 320.316 143.551C321.476 143.742 317.115 126.245 317.115 126.245C317.115 126.245 317.459 114.53 321.54 111.26C324.043 109.219 326.08 106.664 327.514 103.768L328.07 95.7279Z" fill="#63FFBE"/>
<path d="M283.773 51.5332C283.781 52.2203 283.938 52.8976 284.233 53.5181C284.528 54.1386 284.954 54.6875 285.482 55.1269C286.009 55.5663 286.626 55.8857 287.289 56.063C287.952 56.2402 288.645 56.2712 289.321 56.1536L302.164 75.9996L308.518 73.7914L293.092 50.3317C292.81 49.2067 292.126 48.2245 291.169 47.5712C290.212 46.9178 289.049 46.6387 287.9 46.7868C286.751 46.9349 285.697 47.4999 284.936 48.3747C284.176 49.2494 283.762 50.3733 283.773 51.5332Z" fill="#FFB6B6"/>
<path d="M335.275 120.717C335.275 120.717 340.111 110.346 336.433 105.736C332.754 101.126 330.065 96.4402 328.007 95.1709C325.949 93.9016 317.743 79.2034 315.675 78.7644C313.608 78.3255 315.214 75.9427 312.327 74.6638C309.439 73.385 308.61 73.3755 308.62 72.5451C308.629 71.7148 301.579 61.7441 301.579 61.7441L294.331 66.2497L312.035 102.523L335.275 120.717Z" fill="#63FFBE"/>
<path d="M289.583 217.776C280.312 205.425 274.953 191.613 274.777 175.866C274.479 175.018 274.528 174.085 274.915 173.273C275.302 172.461 275.995 171.836 276.841 171.535L308.444 160.336C309.291 160.037 310.222 160.086 311.033 160.474C311.844 160.862 312.468 161.555 312.769 162.403L327.575 204.313C327.873 205.161 327.824 206.094 327.437 206.906C327.05 207.718 326.357 208.343 325.51 208.644L293.908 219.843C293.061 220.143 292.13 220.093 291.319 219.705C290.508 219.318 289.884 218.624 289.583 217.776Z" fill="#E6E6E6"/>
<path d="M287.535 204.259C281.959 198.612 279.572 188.54 278.017 177.315C277.737 176.521 277.783 175.647 278.146 174.887C278.508 174.126 279.157 173.541 279.95 173.259L307.109 163.634C307.903 163.354 308.775 163.4 309.534 163.763C310.294 164.126 310.878 164.776 311.16 165.57L324.335 202.864C324.615 203.659 324.569 204.532 324.206 205.293C323.844 206.053 323.195 206.639 322.402 206.921L305.577 212.883C302.042 214.131 298.158 213.924 294.776 212.307C291.393 210.69 288.789 207.796 287.535 204.259Z" fill="white"/>
<path d="M311.523 185.66L290.367 193.224C290.03 193.344 289.66 193.326 289.337 193.172C289.014 193.019 288.765 192.743 288.644 192.406C288.524 192.069 288.543 191.698 288.696 191.374C288.849 191.051 289.124 190.801 289.461 190.681L310.617 183.118C310.784 183.058 310.961 183.032 311.137 183.041C311.314 183.05 311.488 183.093 311.648 183.169C311.807 183.245 311.951 183.352 312.07 183.483C312.188 183.615 312.28 183.768 312.34 183.935C312.399 184.102 312.425 184.279 312.416 184.456C312.408 184.633 312.364 184.807 312.288 184.967C312.212 185.127 312.106 185.271 311.975 185.39C311.843 185.509 311.69 185.601 311.523 185.66Z" fill="#63FFBE"/>
<path d="M292.537 184.587L287.882 186.251C287.546 186.371 287.176 186.351 286.853 186.198C286.531 186.045 286.282 185.769 286.162 185.433C286.042 185.096 286.061 184.725 286.213 184.402C286.366 184.079 286.64 183.829 286.976 183.708L291.63 182.044C291.967 181.925 292.337 181.944 292.659 182.097C292.982 182.251 293.23 182.526 293.35 182.863C293.47 183.2 293.452 183.57 293.3 183.894C293.147 184.217 292.873 184.466 292.537 184.587Z" fill="#63FFBE"/>
<path d="M315.508 196.838L294.351 204.402C294.184 204.461 294.008 204.487 293.831 204.478C293.654 204.47 293.481 204.426 293.321 204.35C293.161 204.274 293.017 204.167 292.899 204.036C292.78 203.905 292.688 203.751 292.628 203.584C292.569 203.417 292.543 203.24 292.552 203.063C292.561 202.886 292.604 202.712 292.68 202.552C292.756 202.392 292.862 202.248 292.993 202.129C293.125 202.01 293.278 201.918 293.445 201.859L314.601 194.295C314.768 194.236 314.945 194.21 315.122 194.218C315.298 194.227 315.472 194.271 315.632 194.347C315.792 194.423 315.935 194.529 316.054 194.661C316.173 194.792 316.264 194.946 316.324 195.113C316.383 195.28 316.409 195.457 316.401 195.634C316.392 195.811 316.348 195.985 316.272 196.145C316.197 196.305 316.09 196.449 315.959 196.568C315.828 196.687 315.674 196.778 315.508 196.838Z" fill="#63FFBE"/>
<path d="M313.516 191.25L292.359 198.814C292.192 198.873 292.016 198.899 291.839 198.891C291.662 198.882 291.489 198.838 291.329 198.762C291.169 198.686 291.025 198.579 290.907 198.448C290.788 198.317 290.696 198.163 290.637 197.996C290.577 197.829 290.551 197.652 290.56 197.475C290.569 197.298 290.612 197.124 290.688 196.964C290.764 196.804 290.87 196.66 291.002 196.541C291.133 196.422 291.286 196.331 291.453 196.271L312.609 188.707C312.946 188.587 313.317 188.606 313.64 188.759C313.963 188.912 314.212 189.188 314.332 189.525C314.452 189.862 314.434 190.233 314.28 190.557C314.127 190.88 313.852 191.13 313.516 191.25Z" fill="#63FFBE"/>
<path d="M329.307 92.0319C335.357 92.0319 340.261 87.12 340.261 81.0609C340.261 75.0017 335.357 70.0898 329.307 70.0898C323.257 70.0898 318.353 75.0017 318.353 81.0609C318.353 87.12 323.257 92.0319 329.307 92.0319Z" fill="#FFB6B6"/>
<path d="M317.789 79.6288C318.371 80.017 319.064 80.2025 319.762 80.1565C319.922 79.3167 319.948 78.4566 319.838 77.6087C320.253 78.3696 320.565 79.1824 320.767 80.0258C322.715 79.5999 322.628 79.0196 324.636 79.3232C325.187 79.4396 325.709 79.6684 326.168 79.9954C326.627 80.3223 327.014 80.7405 327.305 81.2238C327.596 81.707 327.785 82.2451 327.859 82.8045C327.934 83.364 327.892 83.9327 327.738 84.4754C328.163 83.543 329.929 83.9668 330.227 85.0339C330.538 86.1568 329.854 87.2918 329.2 88.2556C326.862 91.7006 332.908 98.0506 330.57 101.496L330.245 101.885C332.289 100.82 334.222 99.5548 336.018 98.1085C335.71 96.7477 335.657 95.3417 335.86 93.9614C336.114 95.0984 336.736 96.1197 337.629 96.8667C344.243 91.6724 352.199 84.1945 350.736 82.3798L346.284 74.5198C341.605 66.2631 330.32 62.9463 323.328 69.3575C323.146 69.5285 322.732 69.4151 322.547 69.5951C320.539 70.1164 317.967 71.0608 316.655 72.6689C315.348 74.2797 316.072 78.4679 317.789 79.6288Z" fill="#2F2E41"/>
<path d="M326.359 164.588C317.447 159.829 310.452 153.119 305.999 143.826C305.587 143.405 305.359 142.838 305.365 142.249C305.37 141.66 305.608 141.097 306.027 140.684L321.684 125.284C322.104 124.872 322.67 124.643 323.258 124.649C323.846 124.654 324.408 124.893 324.821 125.312L345.18 146.075C345.592 146.496 345.82 147.063 345.815 147.652C345.81 148.241 345.571 148.804 345.152 149.217L329.496 164.617C329.076 165.029 328.509 165.258 327.921 165.252C327.333 165.247 326.771 165.008 326.359 164.588Z" fill="#E6E6E6"/>
<path d="M321.41 157.136C316.542 155.331 312.344 150.017 308.321 143.788C307.936 143.394 307.722 142.863 307.727 142.311C307.732 141.76 307.955 141.233 308.348 140.846L321.803 127.611C322.196 127.225 322.727 127.011 323.277 127.016C323.828 127.021 324.355 127.244 324.741 127.637L342.858 146.113C343.244 146.508 343.458 147.039 343.453 147.59C343.448 148.142 343.224 148.669 342.832 149.056L334.496 157.255C332.744 158.974 330.382 159.928 327.929 159.906C325.476 159.883 323.131 158.887 321.41 157.136Z" fill="white"/>
<path d="M330.505 139.456L320.042 149.805C319.96 149.887 319.862 149.951 319.755 149.995C319.648 150.039 319.533 150.061 319.417 150.06C319.301 150.059 319.186 150.036 319.079 149.991C318.973 149.946 318.876 149.88 318.794 149.797C318.713 149.715 318.648 149.617 318.605 149.509C318.561 149.402 318.539 149.287 318.54 149.171C318.541 149.055 318.564 148.94 318.609 148.833C318.654 148.726 318.72 148.629 318.802 148.547L329.265 138.199C329.348 138.117 329.446 138.052 329.553 138.009C329.66 137.965 329.775 137.943 329.891 137.943C330.007 137.944 330.122 137.968 330.228 138.013C330.335 138.058 330.432 138.124 330.514 138.206C330.595 138.289 330.659 138.387 330.703 138.494C330.747 138.602 330.769 138.717 330.768 138.833C330.767 138.949 330.744 139.064 330.699 139.171C330.654 139.278 330.588 139.375 330.505 139.456Z" fill="#63FFBE"/>
<path d="M318.944 144.08L316.642 146.357C316.476 146.522 316.251 146.613 316.017 146.612C315.783 146.61 315.559 146.516 315.395 146.349C315.23 146.182 315.139 145.957 315.14 145.723C315.142 145.488 315.236 145.264 315.403 145.099L317.704 142.823C317.787 142.741 317.884 142.676 317.992 142.632C318.099 142.588 318.214 142.566 318.33 142.566C318.446 142.567 318.561 142.591 318.668 142.636C318.775 142.681 318.872 142.746 318.954 142.829C319.035 142.912 319.1 143.01 319.143 143.117C319.187 143.225 319.209 143.34 319.208 143.457C319.207 143.573 319.183 143.688 319.138 143.795C319.093 143.902 319.027 143.999 318.944 144.08Z" fill="#63FFBE"/>
<path d="M335.957 144.985L325.494 155.334C325.411 155.416 325.313 155.48 325.206 155.524C325.099 155.568 324.984 155.59 324.868 155.589C324.752 155.589 324.637 155.565 324.531 155.52C324.424 155.475 324.327 155.409 324.245 155.327C324.164 155.244 324.1 155.146 324.056 155.039C324.012 154.931 323.99 154.816 323.991 154.7C323.992 154.584 324.015 154.469 324.06 154.362C324.105 154.255 324.171 154.158 324.254 154.077L334.717 143.728C334.799 143.646 334.897 143.582 335.004 143.538C335.111 143.494 335.226 143.472 335.342 143.473C335.458 143.473 335.573 143.497 335.68 143.542C335.786 143.587 335.883 143.653 335.965 143.735C336.046 143.818 336.111 143.916 336.154 144.023C336.198 144.131 336.22 144.246 336.219 144.362C336.218 144.478 336.195 144.593 336.15 144.7C336.105 144.807 336.039 144.904 335.957 144.985Z" fill="#63FFBE"/>
<path d="M333.231 142.221L322.768 152.57C322.686 152.652 322.588 152.717 322.48 152.761C322.373 152.805 322.258 152.827 322.142 152.826C322.026 152.826 321.911 152.802 321.804 152.757C321.697 152.712 321.6 152.646 321.519 152.564C321.437 152.481 321.373 152.383 321.329 152.275C321.285 152.168 321.263 152.052 321.264 151.936C321.265 151.82 321.289 151.705 321.334 151.598C321.379 151.491 321.445 151.394 321.528 151.313L331.991 140.964C332.158 140.799 332.383 140.707 332.616 140.709C332.85 140.711 333.074 140.805 333.239 140.972C333.403 141.138 333.495 141.364 333.493 141.598C333.492 141.832 333.397 142.056 333.231 142.221Z" fill="#63FFBE"/>
<path d="M310.801 186.093C310.671 185.418 310.689 184.723 310.854 184.056C311.018 183.389 311.326 182.765 311.755 182.229C312.183 181.692 312.724 181.256 313.338 180.949C313.951 180.642 314.625 180.473 315.311 180.452L323.919 158.43L330.586 159.317L320.171 185.398C320.12 186.557 319.646 187.657 318.839 188.489C318.032 189.321 316.949 189.828 315.794 189.914C314.639 189.999 313.493 189.658 312.572 188.954C311.652 188.249 311.022 187.231 310.801 186.093Z" fill="#FFB6B6"/>
<path d="M347.404 107.969C347.404 107.969 354.218 117.158 351.538 122.413C348.857 127.668 347.161 132.799 345.398 134.456C343.636 136.113 338.54 152.161 336.602 153.006C334.664 153.851 336.715 155.863 334.143 157.696C331.57 159.529 330.759 159.704 330.935 160.516C331.111 161.328 326.199 172.512 326.199 172.512L318.197 169.553L335.238 110.189L347.404 107.969Z" fill="#63FFBE"/>
<path d="M475.23 299.001L46.6491 298.552C46.4453 298.552 46.25 298.47 46.1061 298.325C45.9622 298.181 45.8813 297.985 45.8813 297.781C45.8813 297.577 45.9622 297.381 46.1061 297.236C46.25 297.092 46.4453 297.01 46.6491 297.01L475.23 297.458C475.331 297.458 475.432 297.478 475.525 297.516C475.619 297.555 475.704 297.612 475.776 297.683C475.848 297.755 475.904 297.84 475.943 297.934C475.982 298.028 476.002 298.128 476.002 298.23C476.002 298.331 475.982 298.431 475.943 298.525C475.904 298.619 475.848 298.704 475.776 298.776C475.704 298.847 475.619 298.904 475.525 298.943C475.432 298.981 475.331 299.001 475.23 299.001Z" fill="#CACACA"/>
<path d="M161.01 129.132C155.935 120.386 153.516 110.994 154.615 100.744C154.487 100.169 154.591 99.567 154.905 99.0691C155.219 98.5712 155.717 98.2184 156.291 98.0881L177.697 93.2512C178.271 93.1223 178.872 93.2265 179.37 93.5412C179.867 93.8558 180.219 94.3551 180.349 94.9295L186.744 123.317C186.873 123.892 186.768 124.495 186.454 124.992C186.14 125.49 185.642 125.843 185.068 125.973L163.662 130.81C163.088 130.939 162.487 130.835 161.989 130.52C161.492 130.206 161.14 129.707 161.01 129.132Z" fill="#E6E6E6"/>
<path d="M160.721 120.187C157.531 116.086 156.756 109.354 156.61 101.937C156.489 101.399 156.586 100.835 156.881 100.368C157.175 99.902 157.642 99.5716 158.179 99.4496L176.576 95.2928C177.113 95.172 177.676 95.2696 178.142 95.5642C178.608 95.8589 178.938 96.3265 179.06 96.8645L184.75 122.126C184.87 122.664 184.773 123.228 184.479 123.695C184.185 124.161 183.718 124.491 183.18 124.613L171.784 127.188C169.39 127.727 166.881 127.292 164.807 125.979C162.733 124.667 161.263 122.584 160.721 120.187Z" fill="white"/>
<path d="M167.877 106.244C168.251 105.811 168.756 105.511 169.315 105.389C169.874 105.267 170.458 105.329 170.978 105.567C171.499 105.844 171.916 106.283 172.166 106.817C172.416 107.352 172.487 107.953 172.366 108.531C172.165 109.867 171.468 111.084 171.405 112.452C171.348 113.051 171.452 113.655 171.707 114.2C171.962 114.745 172.358 115.212 172.854 115.552C173.614 116.014 174.396 114.87 173.632 114.405C172.376 113.641 172.798 111.961 173.163 110.816C173.618 109.386 174.092 107.927 173.529 106.454C173.28 105.836 172.88 105.292 172.367 104.869C171.853 104.447 171.242 104.16 170.589 104.035C169.936 103.911 169.263 103.952 168.63 104.155C167.997 104.358 167.425 104.717 166.967 105.199C166.367 105.847 167.27 106.9 167.877 106.244Z" fill="#63FFBE"/>
<path d="M173.973 119.546C174.738 119.546 175.357 118.925 175.357 118.16C175.357 117.394 174.738 116.773 173.973 116.773C173.209 116.773 172.589 117.394 172.589 118.16C172.589 118.925 173.209 119.546 173.973 119.546Z" fill="#63FFBE"/>
<path d="M38.6552 68.7551C33.5801 60.0094 31.1611 50.6168 32.2606 40.3672C32.1318 39.7925 32.2359 39.1901 32.55 38.6921C32.8642 38.1942 33.3627 37.8414 33.9362 37.7111L55.3424 32.8743C55.9162 32.7453 56.5177 32.8496 57.0149 33.1642C57.5121 33.4788 57.8643 33.9781 57.9944 34.5525L64.389 62.9405C64.5178 63.5152 64.4137 64.1176 64.0996 64.6155C63.7855 65.1135 63.2869 65.4663 62.7134 65.5966L41.3072 70.4334C40.7334 70.5624 40.1319 70.4581 39.6347 70.1435C39.1375 69.8289 38.7853 69.3296 38.6552 68.7551Z" fill="#E6E6E6"/>
<path d="M38.3657 59.8105C35.176 55.7087 34.4006 48.9773 34.2546 41.5602C34.134 41.0219 34.2314 40.4577 34.5257 39.9914C34.8199 39.5251 35.2867 39.1946 35.8239 39.0726L54.2207 34.9158C54.7581 34.795 55.3215 34.8926 55.7871 35.1873C56.2528 35.4819 56.5827 35.9495 56.7045 36.4875L62.3949 61.7489C62.5155 62.2872 62.418 62.8513 62.1237 63.3177C61.8295 63.784 61.3626 64.1145 60.8255 64.2365L49.429 66.8115C47.0352 67.3496 44.526 66.9147 42.4519 65.6022C40.3779 64.2897 38.9083 62.2068 38.3657 59.8105Z" fill="white"/>
<path d="M47.9813 61.7356C49.0527 61.7356 49.9213 60.8657 49.9213 59.7926C49.9213 58.7195 49.0527 57.8496 47.9813 57.8496C46.9098 57.8496 46.0413 58.7195 46.0413 59.7926C46.0413 60.8657 46.9098 61.7356 47.9813 61.7356Z" fill="#63FFBE"/>
<path d="M50.2996 41.3401C49.553 40.4632 48.1867 40.6026 47.0564 40.8183C45.8819 40.9893 44.7355 41.3162 43.6472 41.7904C43.1038 42.0306 42.6132 42.3762 42.2038 42.8072C41.7944 43.2382 41.4742 43.7462 41.2618 44.3017C40.8103 45.6885 41.302 47.1955 41.8917 48.5291C43.0272 51.0943 44.5344 53.4776 46.3646 55.6021L47.2895 56.0311C48.7282 54.1954 49.7856 52.09 50.3995 49.8388C51.0135 47.5875 51.1715 45.2361 50.8643 42.9228C50.8292 42.3524 50.6334 41.8036 50.2996 41.3401Z" fill="#63FFBE"/>
</g>
<defs>
<clipPath id="clip0_310_2438">
<rect width="476" height="299" fill="white"/>
</clipPath>
</defs>
</svg>
