<svg width="166" height="126" viewBox="0 0 166 126" fill="none" xmlns="http://www.w3.org/2000/svg">
<rect x="0.5" width="165" height="126" rx="10" fill="#F9F9FA"/>
<g clip-path="url(#clip0_70_2077)">
<path d="M152.837 17.2885L12.622 29.6668C12.6057 29.6683 12.5892 29.6663 12.5745 29.661C12.5592 29.6553 12.5459 29.647 12.5357 29.6369C12.524 29.6253 12.5151 29.6124 12.5095 29.5985C12.503 29.5827 12.4998 29.5662 12.5 29.5496C12.5 29.5325 12.5033 29.5154 12.5097 29.499C12.5156 29.4837 12.5247 29.4692 12.5364 29.4559C12.5467 29.444 12.5598 29.4335 12.5752 29.425C12.5891 29.4174 12.6055 29.4124 12.6228 29.4107L152.837 16.8616C152.881 16.8574 152.926 16.8591 152.969 16.8665C153.008 16.8732 153.045 16.8855 153.077 16.9026C153.108 16.9188 153.132 16.9397 153.15 16.964C153.168 16.9887 153.177 17.0163 153.177 17.0442C153.177 17.0738 153.167 17.103 153.15 17.1297C153.132 17.1575 153.107 17.1827 153.077 17.204C153.046 17.2266 153.009 17.2453 152.969 17.2594C152.928 17.2744 152.883 17.2842 152.837 17.2885Z" fill="#CACACA"/>
<path d="M153.09 114.999L12.5899 104.502C12.5736 104.501 12.5581 104.496 12.5453 104.489C12.532 104.481 12.5215 104.47 12.5147 104.459C12.5066 104.446 12.5018 104.432 12.5005 104.417C12.499 104.401 12.5008 104.384 12.5059 104.368C12.511 104.351 12.5193 104.335 12.5305 104.32C12.5409 104.306 12.554 104.293 12.5695 104.282C12.583 104.272 12.599 104.264 12.6165 104.259C12.6324 104.253 12.6498 104.251 12.6672 104.252L153.217 114.582C153.262 114.585 153.305 114.594 153.345 114.608C153.381 114.621 153.413 114.639 153.439 114.661C153.464 114.681 153.482 114.706 153.492 114.732C153.502 114.759 153.503 114.788 153.494 114.815C153.485 114.844 153.467 114.871 153.443 114.894C153.417 114.918 153.385 114.939 153.349 114.955C153.312 114.972 153.27 114.984 153.227 114.992C153.182 114.999 153.136 115.002 153.09 114.999Z" fill="#CACACA"/>
<path d="M15.4064 24.7494C15.589 24.7287 15.7759 24.7473 15.9444 24.8029C16.1178 24.8618 16.2692 24.9505 16.3859 25.0615C16.5199 25.1883 16.6211 25.3321 16.6846 25.4856C16.7588 25.6632 16.7956 25.848 16.7938 26.0337C16.7941 26.2266 16.7573 26.4186 16.6846 26.604C16.6179 26.7758 16.5173 26.9396 16.3859 27.09C16.269 27.2255 16.1194 27.3442 15.9444 27.4403C15.7866 27.527 15.6016 27.5833 15.4064 27.6039C15.2239 27.6222 15.038 27.6013 14.8712 27.5439C14.6999 27.4831 14.5508 27.3932 14.4361 27.2818C14.3049 27.1552 14.2058 27.0123 14.1436 26.86C14.0711 26.6845 14.035 26.502 14.0365 26.3186C14.0365 26.1281 14.0725 25.9385 14.1436 25.7552C14.2088 25.5848 14.3073 25.4223 14.4359 25.2726C14.5511 25.137 14.6986 25.0177 14.8712 24.9204C15.0276 24.8317 15.2115 24.773 15.4064 24.7494Z" fill="#3F3D56"/>
<path d="M20.2785 24.2129C20.4692 24.1912 20.6644 24.2098 20.8414 24.2663C21.0221 24.3255 21.1808 24.4157 21.304 24.5293C21.4438 24.6582 21.5498 24.805 21.6165 24.9623C21.6941 25.1436 21.7326 25.3327 21.7307 25.5228C21.7308 25.7204 21.6921 25.9169 21.616 26.1065C21.5461 26.2826 21.4409 26.4502 21.304 26.6037C21.181 26.743 21.0245 26.8648 20.8421 26.963C20.6764 27.0526 20.483 27.1108 20.2792 27.1325C20.0885 27.1515 19.8944 27.1306 19.7192 27.0722C19.5407 27.0108 19.3847 26.9192 19.2639 26.8049C19.1268 26.6762 19.0229 26.5303 18.9574 26.3742C18.8816 26.195 18.8438 26.0084 18.8454 25.8208C18.8454 25.6258 18.8831 25.4317 18.9574 25.2445C19.0258 25.0696 19.1289 24.9029 19.2632 24.7499C19.3843 24.6106 19.5385 24.4884 19.7185 24.389C19.8828 24.2977 20.075 24.2373 20.2785 24.2129Z" fill="#3F3D56"/>
<path d="M25.3784 23.6502C25.5778 23.6274 25.782 23.6456 25.9681 23.703C26.1564 23.7628 26.3223 23.8549 26.452 23.9716C26.5983 24.1027 26.7095 24.2528 26.7798 24.4142C26.8613 24.5992 26.9019 24.7926 26.9002 24.9871C26.9002 25.1896 26.8596 25.3909 26.7798 25.5848C26.706 25.766 26.5955 25.938 26.452 26.0951C26.3224 26.2386 26.1585 26.3636 25.9681 26.464C25.7936 26.5563 25.5913 26.6162 25.3784 26.6386C25.179 26.6586 24.976 26.6378 24.7918 26.5783C24.6057 26.5165 24.4423 26.4232 24.3148 26.306C24.172 26.175 24.0635 26.0257 23.995 25.8656C23.9158 25.6829 23.8762 25.4921 23.8777 25.3004C23.8777 25.1003 23.9172 24.9013 23.995 24.7096C24.0669 24.53 24.1747 24.3593 24.3148 24.203C24.4424 24.0594 24.604 23.9337 24.792 23.8319C24.9649 23.7379 25.1659 23.6755 25.3784 23.6502Z" fill="#3F3D56"/>
<path d="M145.281 11.8416L136.731 12.7487C136.651 12.7576 136.57 12.7554 136.491 12.7422C136.42 12.7302 136.353 12.7074 136.295 12.6754C136.239 12.6449 136.194 12.6055 136.163 12.5601C136.131 12.5128 136.114 12.4606 136.115 12.4076C136.115 12.3513 136.132 12.2956 136.163 12.2442C136.195 12.1911 136.24 12.1425 136.295 12.1006C136.352 12.057 136.418 12.0204 136.491 11.9922C136.566 11.963 136.647 11.9434 136.731 11.9342L145.28 11.0061C145.364 10.9965 145.45 10.9983 145.533 11.0114C145.608 11.023 145.678 11.0458 145.74 11.0782C145.8 11.1095 145.848 11.151 145.882 11.199C145.915 11.247 145.932 11.3002 145.931 11.354C145.93 11.4121 145.913 11.4696 145.88 11.5224C145.845 11.5774 145.798 11.6276 145.74 11.6706C145.616 11.7628 145.455 11.823 145.28 11.842L145.281 11.8416Z" fill="#3F3D56"/>
<path d="M145.28 13.4075L136.731 14.2763C136.651 14.2848 136.569 14.2822 136.491 14.2687C136.42 14.2566 136.353 14.2338 136.295 14.2018C136.239 14.1711 136.194 14.1315 136.163 14.0861C136.13 14.0381 136.114 13.9852 136.114 13.9316C136.115 13.8753 136.131 13.8197 136.163 13.7684C136.195 13.7155 136.24 13.6671 136.295 13.6255C136.352 13.5823 136.418 13.5462 136.491 13.5186C136.566 13.4897 136.647 13.4705 136.731 13.4616L145.28 12.572C145.364 12.5628 145.45 12.565 145.533 12.5785C145.608 12.5906 145.678 12.6138 145.74 12.6467C145.799 12.6778 145.846 12.7183 145.88 12.7652C145.914 12.814 145.931 12.8681 145.931 12.9228C145.93 12.9809 145.913 13.0382 145.879 13.091C145.845 13.1456 145.798 13.1954 145.74 13.238C145.616 13.3297 145.454 13.3891 145.28 13.4072L145.28 13.4075Z" fill="#3F3D56"/>
<path d="M145.28 14.9742L136.731 15.8029C136.651 15.8111 136.569 15.8082 136.491 15.7943C136.42 15.7817 136.353 15.7585 136.295 15.7261C136.238 15.6946 136.192 15.6538 136.161 15.607C136.13 15.5602 136.114 15.5087 136.114 15.4566C136.115 15.4004 136.131 15.3448 136.163 15.2936C136.195 15.2408 136.24 15.1926 136.295 15.1512C136.352 15.108 136.418 15.0719 136.491 15.0443C136.566 15.0157 136.647 14.9968 136.731 14.9884L145.28 14.1389C145.365 14.1301 145.45 14.1327 145.533 14.1466C145.608 14.1591 145.678 14.1826 145.74 14.2157C145.799 14.2471 145.846 14.2879 145.88 14.3349C145.914 14.3838 145.931 14.4379 145.931 14.4927C145.93 14.5507 145.913 14.6079 145.879 14.6605C145.845 14.7152 145.798 14.765 145.74 14.8076C145.616 14.8988 145.454 14.9575 145.28 14.9747L145.28 14.9742Z" fill="#3F3D56"/>
<path d="M104.633 29.4382L145.931 26.8711V44.9382L104.633 45.3337V29.4382Z" fill="#F0F0F0"/>
<path d="M136.815 53.106L112.288 52.7483C112.005 52.7446 111.735 52.661 111.533 52.5148C111.437 52.4448 111.359 52.3618 111.305 52.2703C111.25 52.1767 111.222 52.0757 111.222 51.9736C111.221 51.8724 111.25 51.7723 111.305 51.6796C111.359 51.5894 111.436 51.508 111.533 51.44C111.631 51.3713 111.746 51.3171 111.872 51.2804C112.005 51.242 112.146 51.2231 112.288 51.2247L136.814 51.4618C136.981 51.4632 137.145 51.4867 137.3 51.5312C137.447 51.5731 137.582 51.6343 137.698 51.7118C137.811 51.7861 137.902 51.876 137.967 51.9763C138.032 52.0771 138.066 52.1871 138.066 52.2985C138.066 52.4092 138.032 52.5185 137.967 52.6184C137.902 52.7171 137.811 52.805 137.698 52.8769C137.581 52.9517 137.446 53.0097 137.3 53.0479C137.145 53.0887 136.98 53.1082 136.814 53.1055L136.815 53.106Z" fill="#E4E4E4"/>
<path d="M132.601 50.2654L115.997 50.163C115.851 50.1623 115.706 50.1409 115.571 50.0999C115.442 50.0608 115.324 50.0042 115.224 49.933C115.125 49.8631 115.045 49.7797 114.99 49.6875C114.934 49.5932 114.904 49.4913 114.904 49.3883C114.904 49.2853 114.934 49.1835 114.99 49.0892C115.045 48.9975 115.125 48.9146 115.224 48.8454C115.324 48.7749 115.442 48.7192 115.571 48.6811C115.706 48.6411 115.851 48.6207 115.997 48.6211L132.601 48.642C132.763 48.6419 132.924 48.6638 133.075 48.7064C133.218 48.7466 133.349 48.8059 133.463 48.8813C133.573 48.9543 133.662 49.0426 133.725 49.141C133.788 49.2403 133.821 49.3485 133.821 49.4581C133.821 49.5677 133.788 49.6759 133.725 49.7751C133.662 49.873 133.573 49.9605 133.463 50.0326C133.349 50.1072 133.218 50.1656 133.075 50.2047C132.923 50.2463 132.763 50.2669 132.601 50.2657L132.601 50.2654Z" fill="#E4E4E4"/>
<path d="M104.633 58.3438L145.931 59.7257V77.7928L104.633 74.2391V58.3438Z" fill="#F0F0F0"/>
<path d="M136.815 85.0877L112.288 82.3847C112.142 82.3682 112.001 82.3324 111.872 82.2791C111.745 82.2264 111.63 82.1587 111.533 82.0786C111.437 82.0001 111.36 81.9101 111.305 81.8126C111.251 81.716 111.222 81.6125 111.222 81.508C111.221 81.4091 111.249 81.3113 111.305 81.2214C111.358 81.1374 111.436 81.0632 111.533 81.0042C111.633 80.9444 111.748 80.901 111.872 80.8771C112.008 80.8512 112.15 80.8457 112.288 80.861L136.814 83.4434C136.984 83.4615 137.149 83.5007 137.3 83.5593C137.448 83.6159 137.583 83.6897 137.698 83.7778C137.81 83.8625 137.901 83.9609 137.967 84.0685C138.031 84.1729 138.065 84.2859 138.066 84.4003C138.067 84.5081 138.033 84.6145 137.967 84.7108C137.903 84.8026 137.811 84.8823 137.698 84.9436C137.58 85.0078 137.444 85.053 137.3 85.0765C137.141 85.1025 136.976 85.1063 136.814 85.0876L136.815 85.0877Z" fill="#E4E4E4"/>
<path d="M132.601 81.8451L115.997 80.1548C115.848 80.1393 115.703 80.1041 115.571 80.0509C115.441 79.9988 115.324 79.931 115.224 79.8504C115.126 79.7719 115.047 79.6814 114.99 79.5831C114.934 79.4857 114.905 79.3811 114.904 79.2754C114.903 79.1751 114.933 79.0759 114.99 78.9849C115.045 78.8992 115.124 78.8236 115.224 78.7634C115.325 78.702 115.444 78.6573 115.571 78.6323C115.71 78.605 115.855 78.5985 115.997 78.613L132.601 80.2215C132.766 80.2378 132.927 80.2749 133.075 80.3312C133.219 80.3859 133.35 80.4575 133.463 80.5433C133.572 80.6262 133.661 80.7224 133.725 80.8278C133.787 80.9306 133.82 81.0418 133.821 81.1543C133.822 81.2609 133.789 81.3662 133.725 81.4617C133.663 81.5528 133.573 81.6323 133.463 81.6942C133.347 81.7585 133.215 81.8045 133.075 81.8292C132.92 81.8564 132.759 81.8617 132.601 81.8448V81.8451Z" fill="#E4E4E4"/>
<path d="M80.6421 74.376L15.711 68.2747C15.5342 68.2563 15.3667 68.2054 15.2238 68.1269C15.0667 68.041 14.9324 67.9346 14.8275 67.8132C14.7101 67.6787 14.6204 67.5323 14.5611 67.3787C14.4962 67.2126 14.4632 67.0406 14.4633 66.8678V36.7728C14.463 36.601 14.4959 36.43 14.5611 36.2649C14.62 36.1142 14.7098 35.9709 14.8275 35.84C14.9321 35.7221 15.0666 35.6201 15.2236 35.5394C15.3677 35.4654 15.5356 35.4201 15.7108 35.408L80.6421 31.5061C80.9202 31.4886 81.2002 31.516 81.4623 31.5864C81.7245 31.6569 81.9624 31.7686 82.1593 31.9138C82.3592 32.0607 82.5168 32.2357 82.6226 32.4283C82.7366 32.6361 82.7947 32.8581 82.7936 33.0821V72.8723C82.7952 73.0945 82.7371 73.3147 82.6226 73.5203C82.5175 73.7086 82.3597 73.8785 82.1593 74.0191C81.9645 74.1553 81.7308 74.258 81.4753 74.3199C81.2067 74.384 80.922 74.4031 80.6421 74.376Z" fill="white"/>
<path d="M54.9683 52.1842C54.7941 52.018 54.5978 51.865 54.3822 51.7274C54.1772 51.5964 53.9538 51.4818 53.7159 51.3855C53.4864 51.2926 53.2434 51.2191 52.9914 51.1664C52.7436 51.1147 52.4883 51.0849 52.2309 51.0778C51.9763 51.0708 51.7215 51.0866 51.4722 51.1247C51.2237 51.1628 50.9822 51.2223 50.7526 51.3018C50.5181 51.3831 50.2966 51.4834 50.0924 51.6008C49.8797 51.7231 49.685 51.8615 49.5116 52.0137L32.0404 67.3376C31.8386 67.5192 31.58 67.6624 31.2867 67.7549C31.0181 67.8374 30.7249 67.8676 30.4357 67.8426C30.1335 67.815 29.8442 67.7363 29.5905 67.6127C29.2994 67.4707 29.0485 67.2887 28.8514 67.0769L26.5371 64.635C26.2709 64.3455 25.9295 64.0975 25.5325 63.9049C25.1932 63.7409 24.8052 63.639 24.4012 63.6078C24.0175 63.5808 23.631 63.6288 23.2808 63.7468C22.8973 63.8797 22.5627 64.078 22.3052 64.3253L18.118 68.2217L76.6504 73.6453V72.8834L54.9683 52.1842Z" fill="#63FFBE"/>
<path d="M80.6419 74.9507L15.7109 68.7158C15.4742 68.6905 15.2498 68.6219 15.0586 68.5164C14.8484 68.4009 14.6688 68.2581 14.5286 68.0952C14.3719 67.9151 14.252 67.719 14.1728 67.5134C14.0861 67.2912 14.0421 67.0613 14.042 66.8302V36.795C14.0418 36.5653 14.0858 36.3368 14.1728 36.1162C14.2514 35.9142 14.3714 35.7221 14.5286 35.5464C14.6685 35.3884 14.8484 35.2516 15.0584 35.1432C15.2513 35.0437 15.4761 34.9825 15.7108 34.9658L80.6417 30.9292C81.0148 30.9049 81.3907 30.941 81.7428 31.035C82.0948 31.1289 82.4145 31.2784 82.6793 31.4729C82.9483 31.6699 83.1605 31.9046 83.303 32.1632C83.4565 32.4423 83.5347 32.7406 83.5332 33.0416V72.9367C83.5354 73.2352 83.4572 73.5311 83.303 73.8074C83.1614 74.0601 82.9489 74.2881 82.6793 74.4765C82.4171 74.6589 82.103 74.7963 81.7595 74.8786C81.3989 74.9636 81.017 74.9883 80.6417 74.9509L80.6419 74.9507ZM15.7109 35.8491C15.5954 35.8568 15.4845 35.8865 15.3893 35.9351C15.2855 35.9882 15.1966 36.0555 15.1274 36.1332C15.0496 36.2197 14.9901 36.3143 14.9511 36.4139C14.908 36.5229 14.8862 36.6358 14.8863 36.7493V66.9035C14.8863 67.0176 14.9082 67.1312 14.9511 67.241C14.9904 67.3425 15.0498 67.4392 15.1274 67.5279C15.1967 67.6084 15.2856 67.6789 15.3897 67.7358C15.4841 67.7874 15.5947 67.8207 15.7113 67.8327L80.6423 73.799C80.8268 73.8166 81.0144 73.8036 81.1913 73.7611C81.3595 73.7201 81.5132 73.6521 81.6414 73.5622C81.7731 73.4695 81.8768 73.3575 81.9459 73.2334C82.021 73.098 82.0591 72.9531 82.058 72.8069V33.1214C82.0588 32.974 82.0207 32.8279 81.9459 32.6912C81.8763 32.5643 81.7728 32.449 81.6414 32.3521C81.5118 32.2562 81.3553 32.1823 81.1827 32.1355C81.0101 32.0888 80.8256 32.0704 80.6423 32.0815L15.7109 35.8491Z" fill="#CBCBCB"/>
<path d="M24.8179 106.269L26.7701 106.269L27.6988 100.742L24.8176 100.742L24.8179 106.269Z" fill="#FFB6B6"/>
<path d="M24.3199 105.801L28.1646 105.801C28.8144 105.801 29.4378 105.99 29.8973 106.327C30.3567 106.665 30.6149 107.122 30.6149 107.599V107.657L24.3201 107.658L24.3199 105.801Z" fill="#2F2E41"/>
<path d="M42.812 108.16L44.7643 108.159L45.693 102.633L42.8118 102.633L42.812 108.16Z" fill="#FFB6B6"/>
<path d="M42.3141 107.692L46.1588 107.691C46.8086 107.691 47.4319 107.881 47.8914 108.218C48.3509 108.555 48.609 109.013 48.6091 109.49V109.548L42.3142 109.548L42.3141 107.692Z" fill="#2F2E41"/>
<path d="M40.455 63.7607L41.729 69.7212L29.6266 69.8381L31.2191 64.1114L40.455 63.7607Z" fill="#FFB6B6"/>
<path d="M41.3776 68.2656L45.2322 75.7982L45.7099 107.014H42.4455L34.6427 81.9339L27.4769 104.469H24.2921L26.5215 78.8953C26.5215 78.8953 25.8641 73.3828 29.2285 70.13L30.0475 68.3936L41.3776 68.2656Z" fill="#2F2E41"/>
<path d="M24.8439 74.1379C25.1809 74.0705 25.4936 73.9497 25.7601 73.784C26.0266 73.6183 26.2403 73.4117 26.3862 73.1788C26.5322 72.946 26.6068 72.6924 26.6047 72.4361C26.6027 72.1798 26.5242 71.9269 26.3746 71.6953L31.5231 59.3761L27.7361 58.8252L23.0274 70.9005C22.5138 71.1107 22.1232 71.4519 21.9295 71.8594C21.7358 72.2669 21.7525 72.7123 21.9764 73.1114C22.2003 73.5104 22.6159 73.8353 23.1444 74.0245C23.6729 74.2137 24.2776 74.254 24.8439 74.1379Z" fill="#FFB6B6"/>
<path d="M31.6342 67.0525C31.5636 67.0525 31.4931 67.0474 31.4238 67.0373C31.1908 67.003 30.9794 66.9138 30.822 66.7831C30.6646 66.6525 30.5698 66.4876 30.5521 66.3137C30.4324 65.1107 29.8392 63.0169 28.7891 60.0901C28.4346 59.0954 28.5131 58.0442 29.0136 57.0839C29.5142 56.1235 30.4116 55.3022 31.5801 54.7351C32.7487 54.1679 34.1297 53.8834 35.5297 53.9213C36.9297 53.9593 38.2784 54.3178 39.3868 54.9466C40.0965 55.3456 40.6888 55.8458 41.1281 56.4173C41.5674 56.9887 41.8445 57.6195 41.9428 58.2716C42.4647 61.6448 41.4808 65.0316 41.0336 66.3311C40.9748 66.5008 40.8419 66.6516 40.6551 66.7605C40.4684 66.8694 40.2382 66.9304 39.9998 66.9341L31.6574 67.0523C31.6497 67.0524 31.642 67.0525 31.6342 67.0525Z" fill="#3F3D56"/>
<path d="M54.9412 56.2317C54.8911 56.3142 54.85 56.3995 54.8181 56.4867L44.3758 59.091L42.3581 57.7973L39.2998 59.777L42.5686 62.322C42.8327 62.5276 43.1805 62.6648 43.5598 62.713C43.9392 62.7611 44.3296 62.7177 44.6724 62.5892L55.8463 58.4002C56.2504 58.5821 56.7204 58.6695 57.1937 58.6506C57.6671 58.6317 58.1213 58.5074 58.4961 58.2944C58.871 58.0814 59.1485 57.7897 59.2919 57.4581C59.4353 57.1265 59.4377 56.7707 59.2989 56.438C59.1601 56.1054 58.8865 55.8116 58.5147 55.5958C58.1428 55.3801 57.6902 55.2525 57.2172 55.2301C56.7441 55.2077 56.273 55.2916 55.8664 55.4705C55.4599 55.6494 55.1372 55.9149 54.9412 56.2317Z" fill="#FFB6B6"/>
<path d="M44.0119 59.2327L40.2052 61.6729C40.0969 61.7423 39.9695 61.7938 39.8316 61.8238C39.6938 61.8539 39.5487 61.8617 39.4063 61.8469C39.2639 61.8321 39.1276 61.7949 39.0065 61.7379C38.8855 61.6809 38.7826 61.6054 38.7049 61.5166L35.9821 58.4048C35.5013 57.9961 35.261 57.4642 35.3138 56.9256C35.3666 56.387 35.7082 55.8858 36.2638 55.5318C36.8193 55.1778 37.5434 54.9999 38.2774 55.0371C39.0113 55.0743 39.6952 55.3236 40.1792 55.7303L44.0027 58.1206C44.1122 58.189 44.2002 58.274 44.2609 58.3697C44.3215 58.4654 44.3534 58.5696 44.3543 58.6751C44.3551 58.7807 44.325 58.8851 44.2659 58.9813C44.2068 59.0775 44.1202 59.1633 44.0119 59.2327Z" fill="#3F3D56"/>
<path d="M30.9217 62.5302L26.2174 61.1738C26.0836 61.1352 25.9626 61.0759 25.8628 60.9999C25.763 60.9239 25.6867 60.833 25.6391 60.7334C25.5915 60.6339 25.5737 60.5279 25.5869 60.4228C25.6001 60.3177 25.644 60.2159 25.7156 60.1244L28.2255 56.9177C28.4985 56.4162 29.0312 56.0147 29.7069 55.8011C30.3826 55.5875 31.1461 55.5793 31.8301 55.7782C32.5141 55.9771 33.0627 56.3669 33.3557 56.8622C33.6486 57.3575 33.6621 57.9179 33.393 58.4204L32.2625 62.0121C32.2301 62.1149 32.1679 62.2114 32.0801 62.295C31.9923 62.3786 31.881 62.4473 31.7537 62.4965C31.6265 62.5456 31.4863 62.5741 31.3427 62.5799C31.1991 62.5857 31.0555 62.5688 30.9217 62.5302Z" fill="#3F3D56"/>
<path d="M34.4088 53.1624C37.2348 53.1624 39.5258 51.481 39.5258 49.4069C39.5258 47.3328 37.2348 45.6514 34.4088 45.6514C31.5827 45.6514 29.2917 47.3328 29.2917 49.4069C29.2917 51.481 31.5827 53.1624 34.4088 53.1624Z" fill="#FFB6B6"/>
<path d="M41.2593 48.1407H33.134V45.5413C34.9174 45.0213 36.6626 44.5791 37.7175 45.5413C38.6568 45.5413 39.5577 45.8152 40.2219 46.3027C40.8861 46.7902 41.2593 47.4513 41.2593 48.1407Z" fill="#2F2E41"/>
<path d="M32.6656 53.2973C35.8995 53.2973 38.5212 51.3732 38.5212 48.9997C38.5212 46.6262 35.8995 44.7021 32.6656 44.7021C29.4316 44.7021 26.8099 46.6262 26.8099 48.9997C26.8099 51.3732 29.4316 53.2973 32.6656 53.2973Z" fill="#2F2E41"/>
<path d="M28.4495 48.4843C30.5193 48.4843 32.1971 47.2529 32.1971 45.7339C32.1971 44.2148 30.5193 42.9834 28.4495 42.9834C26.3798 42.9834 24.7019 44.2148 24.7019 45.7339C24.7019 47.2529 26.3798 48.4843 28.4495 48.4843Z" fill="#2F2E41"/>
</g>
<defs>
<clipPath id="clip0_70_2077">
<rect width="141" height="104" fill="white" transform="translate(12.5 11)"/>
</clipPath>
</defs>
</svg>
