<svg width="165" height="126" viewBox="0 0 165 126" fill="none" xmlns="http://www.w3.org/2000/svg">
<rect width="165" height="126" rx="10" fill="#F9F9FA"/>
<g clip-path="url(#clip0_70_2314)">
<path d="M15.504 114.747C15.504 114.887 15.6264 115 15.7787 115H152.725C152.878 115 153 114.887 153 114.747C153 114.607 152.878 114.494 152.725 114.494H15.7787C15.6264 114.494 15.504 114.607 15.504 114.747Z" fill="#2F2E43"/>
<path d="M86.5185 89.7998C86.1425 91.8973 84.159 93.5026 81.775 93.5026C79.3909 93.5026 77.4074 91.8973 77.0314 89.7998H64.8955V114.003H98.6544V89.7998H86.5185Z" fill="#B6B3C5"/>
<path d="M68.821 113.913H65.4844V114.455H68.821V113.913Z" fill="#B6B3C5"/>
<path d="M98.3601 114.004H95.0234V114.546H98.3601V114.004Z" fill="#B6B3C5"/>
<path d="M98.7527 112.086H64.9937V112.928H98.7527V112.086Z" fill="#2F2E41"/>
<path d="M149.668 90.432H13.882C12.8443 90.432 12 89.6551 12 88.7001V17.3863C12 16.4313 12.8443 15.6543 13.882 15.6543H149.668C150.706 15.6543 151.55 16.4313 151.55 17.3863V88.7001C151.55 89.6551 150.706 90.432 149.668 90.432Z" fill="#2F2E41"/>
<path d="M148.311 18.7256H15.4348V87.7234H148.311V18.7256Z" fill="white"/>
<path d="M132.525 45.2231H125.275C124.645 45.2231 124.132 44.7514 124.132 44.1716C124.132 43.5918 124.645 43.1201 125.275 43.1201H132.525C133.155 43.1201 133.668 43.5918 133.668 44.1716C133.668 44.7514 133.155 45.2231 132.525 45.2231Z" fill="#D1D1D2"/>
<path d="M140.863 45.2231H137.48C136.85 45.2231 136.337 44.7514 136.337 44.1716C136.337 43.5918 136.85 43.1201 137.48 43.1201H140.863C141.493 43.1201 142.006 43.5918 142.006 44.1716C142.006 44.7514 141.493 45.2231 140.863 45.2231Z" fill="#D1D1D2"/>
<path d="M59.9326 46.0261H37.8637C36.7371 46.0261 35.8206 45.1826 35.8206 44.1459C35.8206 43.1091 36.7371 42.2656 37.8637 42.2656H59.9326C61.0592 42.2656 61.9757 43.1091 61.9757 44.1459C61.9757 45.1826 61.0592 46.0261 59.9326 46.0261Z" fill="#63FFBE"/>
<path d="M47.9675 51.0422H37.3319C36.6451 51.0422 36.0864 50.5281 36.0864 49.8962C36.0864 49.2642 36.6451 48.75 37.3319 48.75H47.9675C48.6542 48.75 49.2129 49.2642 49.2129 49.8962C49.2129 50.5281 48.6542 51.0422 47.9675 51.0422Z" fill="#D1D1D2"/>
<path d="M106.596 55.5687H37.066C36.3793 55.5687 35.8206 55.0545 35.8206 54.4225C35.8206 53.7905 36.3793 53.2764 37.066 53.2764H106.596C107.283 53.2764 107.842 53.7905 107.842 54.4225C107.842 55.0545 107.283 55.5687 106.596 55.5687Z" fill="#D1D1D2"/>
<path d="M100.614 58.6282H37.066C36.3793 58.6282 35.8206 58.114 35.8206 57.482C35.8206 56.8501 36.3793 56.3359 37.066 56.3359H100.614C101.301 56.3359 101.859 56.8501 101.859 57.482C101.859 58.114 101.301 58.6282 100.614 58.6282Z" fill="#D1D1D2"/>
<path d="M140.655 102.779L137.466 105.861L134.067 102.969L137.256 99.8867L140.655 102.779Z" fill="#ED9DA0"/>
<path d="M143.203 105.935L136.423 112.486C135.844 113.046 135.12 113.488 134.33 113.765L132.44 114.428C132.049 114.565 131.599 114.486 131.294 114.226C130.935 113.921 130.845 113.433 131.073 113.038L132.891 109.9L134.831 103.535L134.852 103.547C135.38 103.846 136.181 104.295 136.238 104.314C137.243 104.346 137.962 104.114 138.376 103.623C139.098 102.766 138.64 101.398 138.635 101.385L138.631 101.374L138.641 101.367C138.851 101.201 139.073 101.135 139.3 101.17C139.781 101.244 140.125 101.742 140.176 101.818C140.628 101.801 142.015 102.801 142.127 102.882C142.808 102.88 143.307 103.029 143.61 103.324C143.876 103.581 143.991 103.947 143.954 104.411C143.909 104.969 143.642 105.51 143.203 105.935Z" fill="#090814"/>
<path d="M136.973 106.326H132.312V110.552H136.973V106.326Z" fill="#ED9DA0"/>
<path d="M136.177 114.397H126.269C125.422 114.397 124.571 114.221 123.808 113.889L121.982 113.092C121.604 112.928 121.36 112.576 121.36 112.196C121.36 111.751 121.691 111.356 122.164 111.238L125.933 110.292L132.379 107.22L132.384 107.242C132.505 107.795 132.692 108.632 132.715 108.683C133.377 109.369 134.056 109.686 134.734 109.623C135.917 109.515 136.704 108.276 136.712 108.263L136.718 108.254L136.73 108.255C137.007 108.281 137.212 108.382 137.339 108.556C137.609 108.925 137.444 109.493 137.417 109.579C137.74 109.866 137.885 111.467 137.896 111.596C138.364 112.046 138.586 112.477 138.556 112.88C138.531 113.232 138.316 113.558 137.917 113.851C137.437 114.203 136.819 114.397 136.177 114.397Z" fill="#090814"/>
<path d="M137.526 53.0996L121.009 53.107L115.504 84.7148L132.021 102.781L137.526 98.2642L124.473 84.7148L137.526 53.0996Z" fill="#090814"/>
<path d="M127.764 57.7589L137.526 53.0996V107.297L132.021 107.436L127.764 57.7589Z" fill="#090814"/>
<path d="M117.985 65.7745L118.101 60.8408L114.971 60.7783L114.855 65.712C114.271 66.211 113.885 66.9862 113.865 67.8651C113.828 69.403 114.92 70.6721 116.303 70.6997C117.686 70.7273 118.837 69.503 118.873 67.9651C118.894 67.0862 118.545 66.2963 117.985 65.7745Z" fill="#ED9DA0"/>
<path d="M132.829 17.5917C132.829 17.5917 137.322 17.5828 135.643 13.5985C133.965 9.61419 130.839 11.3982 130.839 11.3982C130.839 11.3982 129.522 12.0384 129.794 13.4667" fill="#090814"/>
<path d="M133.278 19.5029C133.278 16.4481 130.587 13.9717 127.268 13.9717C123.948 13.9717 121.257 16.4481 121.257 19.5029C121.257 21.9803 123.027 24.0771 125.467 24.7812L126.629 31.8479L132.552 27.3054C132.552 27.3054 131.273 25.8054 130.586 24.1141C132.208 23.1236 133.278 21.4285 133.278 19.5029Z" fill="#ED9DA0"/>
<path d="M130.155 24.1756C130.155 24.1756 130.954 21.3595 129.649 20.0646C128.346 18.7727 128.178 20.7829 128.178 20.7829L127.239 20.5949C127.239 20.5949 127.402 18.64 125.564 18.3017L126.748 15.9709C126.748 15.9709 122.213 16.7813 122.088 16.3771C121.104 13.1962 130.488 10.479 133.08 15.3318C137.112 22.8796 130.155 24.1756 130.155 24.1756Z" fill="#090814"/>
<path d="M124.847 29.1025C120.483 29.8872 117.208 33.2307 116.811 37.306L114.094 65.1758H118.861L124.847 29.1025Z" fill="#63FFBE"/>
<path d="M120.34 51.3079L119.598 59.1771L139.747 53.7232L137.292 48.0356L141.864 38.3745L132.531 26.0645L125.081 26.5319L122.202 29.9601" fill="#63FFBE"/>
<path d="M136.772 58.7813L139.582 54.5784L136.916 53.0684L134.105 57.2712C133.327 57.43 132.569 57.9196 132.068 58.6683C131.192 59.9784 131.437 61.5812 132.615 62.2484C133.793 62.9156 135.459 62.3945 136.335 61.0844C136.835 60.3357 136.968 59.4919 136.772 58.7813Z" fill="#ED9DA0"/>
<path d="M131.007 26.2202L132.632 26.1582L135.41 28.0901C138.701 28.6067 139.656 28.7515 140.664 30.7523C141.088 31.5931 141.369 32.4887 141.526 33.4042L143.876 47.1006L137.969 60.1899L134.055 56.1384L138.239 45.905L137.544 43.4571" fill="#63FFBE"/>
</g>
<defs>
<clipPath id="clip0_70_2314">
<rect width="141" height="104" fill="white" transform="translate(12 11)"/>
</clipPath>
</defs>
</svg>
