<svg width="166" height="126" viewBox="0 0 166 126" fill="none" xmlns="http://www.w3.org/2000/svg">
<rect width="166" height="126" rx="10" fill="#F9F9FA"/>
<g clip-path="url(#clip0_70_2118)">
<path d="M106.766 47.5688H59.2768C58.4616 47.568 57.6801 47.3057 57.1036 46.8393C56.5272 46.3729 56.2029 45.7406 56.202 45.081V14.9036C56.2027 14.4204 56.4402 13.9572 56.8625 13.6155C57.2848 13.2738 57.8574 13.0816 58.4546 13.0811H107.55C108.157 13.0816 108.74 13.2771 109.169 13.6247C109.599 13.9723 109.841 14.4436 109.841 14.9351V45.081C109.84 45.7406 109.516 46.3729 108.94 46.8393C108.363 47.3057 107.582 47.568 106.766 47.5688Z" fill="#F2F2F2"/>
<path d="M62.2584 45.0817H103.785C104.575 45.0817 105.334 44.8275 105.893 44.3751C106.452 43.9227 106.766 43.3092 106.766 42.6694V19.5188C106.766 18.879 106.452 18.2654 105.893 17.813C105.334 17.3606 104.575 17.1064 103.785 17.1064H62.2584C61.4676 17.1064 60.7092 17.3606 60.15 17.813C59.5909 18.2654 59.2767 18.879 59.2767 19.5188V42.6694C59.2767 43.3092 59.5909 43.9227 60.15 44.3751C60.7092 44.8275 61.4676 45.0817 62.2584 45.0817Z" fill="white"/>
<path d="M109.798 14.7618H56.1588V13.4952C56.16 12.8335 56.4856 12.1991 57.0641 11.7314C57.6426 11.2636 58.4269 11.0005 59.2448 11H106.712C107.53 11.0005 108.315 11.2636 108.893 11.7313C109.472 12.1991 109.797 12.8335 109.798 13.4952V14.7618Z" fill="#CCCCCC"/>
<path d="M61.7671 13.5309C62.2079 13.5309 62.5653 13.2417 62.5653 12.8851C62.5653 12.5284 62.2079 12.2393 61.7671 12.2393C61.3262 12.2393 60.9689 12.5284 60.9689 12.8851C60.9689 13.2417 61.3262 13.5309 61.7671 13.5309Z" fill="white"/>
<path d="M64.797 13.5309C65.2378 13.5309 65.5952 13.2417 65.5952 12.8851C65.5952 12.5284 65.2378 12.2393 64.797 12.2393C64.3562 12.2393 63.9988 12.5284 63.9988 12.8851C63.9988 13.2417 64.3562 13.5309 64.797 13.5309Z" fill="white"/>
<path d="M67.8269 13.5309C68.2678 13.5309 68.6251 13.2417 68.6251 12.8851C68.6251 12.5284 68.2678 12.2393 67.8269 12.2393C67.3861 12.2393 67.0287 12.5284 67.0287 12.8851C67.0287 13.2417 67.3861 13.5309 67.8269 13.5309Z" fill="white"/>
<path d="M65.3143 27.955H63.2577C63.1462 27.9549 63.0392 27.919 62.9604 27.8552C62.8815 27.7914 62.8372 27.7048 62.837 27.6146V25.9507C62.8372 25.8605 62.8815 25.774 62.9604 25.7101C63.0392 25.6463 63.1462 25.6105 63.2577 25.6104H65.3143C65.4258 25.6105 65.5327 25.6463 65.6116 25.7101C65.6905 25.774 65.7348 25.8605 65.7349 25.9507V27.6146C65.7348 27.7048 65.6905 27.7914 65.6116 27.8552C65.5327 27.919 65.4258 27.9549 65.3143 27.955Z" fill="#63FFBE"/>
<path d="M65.3143 32.2665H63.2577C63.1462 32.2664 63.0392 32.2305 62.9604 32.1667C62.8815 32.1029 62.8372 32.0164 62.837 31.9261V30.2622C62.8372 30.172 62.8815 30.0855 62.9604 30.0217C63.0392 29.9579 63.1462 29.922 63.2577 29.9219H65.3143C65.4258 29.922 65.5327 29.9579 65.6116 30.0217C65.6905 30.0855 65.7348 30.172 65.7349 30.2622V31.9261C65.7348 32.0164 65.6905 32.1029 65.6116 32.1667C65.5327 32.2305 65.4258 32.2664 65.3143 32.2665Z" fill="#3F3D56"/>
<path d="M65.3143 36.577H63.2577C63.1462 36.5769 63.0392 36.541 62.9604 36.4772C62.8815 36.4134 62.8372 36.3269 62.837 36.2367V34.5728C62.8372 34.4825 62.8815 34.396 62.9604 34.3322C63.0392 34.2684 63.1462 34.2325 63.2577 34.2324H65.3143C65.4258 34.2325 65.5327 34.2684 65.6116 34.3322C65.6905 34.396 65.7348 34.4825 65.7349 34.5728V36.2367C65.7348 36.3269 65.6905 36.4134 65.6116 36.4772C65.5327 36.541 65.4258 36.5769 65.3143 36.577Z" fill="#CCCCCC"/>
<path d="M78.7755 27.1231H68.8665C68.7551 27.1229 68.6484 27.0869 68.5697 27.0231C68.491 26.9593 68.4468 26.8729 68.4468 26.7827C68.4468 26.6926 68.491 26.6061 68.5697 26.5423C68.6484 26.4785 68.7551 26.4426 68.8665 26.4424H78.7755C78.8308 26.4423 78.8856 26.451 78.9368 26.4681C78.9879 26.4851 79.0344 26.5102 79.0736 26.5418C79.1127 26.5734 79.1438 26.611 79.165 26.6523C79.1862 26.6937 79.1971 26.738 79.1971 26.7827C79.1971 26.8275 79.1862 26.8718 79.165 26.9131C79.1438 26.9545 79.1127 26.992 79.0736 27.0236C79.0344 27.0553 78.9879 27.0803 78.9368 27.0974C78.8856 27.1144 78.8308 27.1232 78.7755 27.1231Z" fill="#CCCCCC"/>
<path d="M78.7755 31.4346H68.8665C68.7551 31.4344 68.6484 31.3985 68.5697 31.3347C68.491 31.2709 68.4468 31.1844 68.4468 31.0943C68.4468 31.0041 68.491 30.9177 68.5697 30.8538C68.6484 30.79 68.7551 30.7541 68.8665 30.7539H78.7755C78.8871 30.7539 78.9941 30.7898 79.073 30.8536C79.1519 30.9174 79.1962 31.004 79.1962 31.0943C79.1962 31.1845 79.1519 31.2711 79.073 31.3349C78.9941 31.3987 78.8871 31.4346 78.7755 31.4346Z" fill="#CCCCCC"/>
<path d="M78.7755 35.7451H68.8665C68.7551 35.745 68.6484 35.709 68.5697 35.6452C68.491 35.5814 68.4468 35.4949 68.4468 35.4048C68.4468 35.3147 68.491 35.2282 68.5697 35.1644C68.6484 35.1006 68.7551 35.0646 68.8665 35.0645H78.7755C78.8308 35.0644 78.8856 35.0731 78.9368 35.0902C78.9879 35.1072 79.0344 35.1323 79.0736 35.1639C79.1127 35.1955 79.1438 35.233 79.165 35.2744C79.1862 35.3157 79.1971 35.36 79.1971 35.4048C79.1971 35.4496 79.1862 35.4939 79.165 35.5352C79.1438 35.5765 79.1127 35.6141 79.0736 35.6457C79.0344 35.6773 78.9879 35.7024 78.9368 35.7194C78.8856 35.7365 78.8308 35.7452 78.7755 35.7451Z" fill="#CCCCCC"/>
<path d="M103.19 31.2023C103.2 31.0592 103.206 30.9151 103.206 30.7699C103.206 28.8778 102.277 27.0632 100.624 25.7253C98.9699 24.3874 96.727 23.6357 94.3884 23.6357V31.2023H103.19Z" fill="#63FFBE"/>
<path d="M93.7204 31.8507V24.2842C91.9992 24.2841 90.3156 24.6916 88.8772 25.4565C87.4388 26.2213 86.3085 27.31 85.6258 28.5884C84.943 29.8667 84.7376 31.2788 85.0349 32.6505C85.3321 34.0221 86.1191 35.2934 87.2987 36.3076C88.4783 37.3217 89.999 38.0343 91.6732 38.3576C93.3474 38.6809 95.102 38.6006 96.7205 38.1267C98.339 37.6529 99.7508 36.8061 100.782 35.6909C101.812 34.5757 102.417 33.2407 102.522 31.8507H93.7204Z" fill="#3F3D56"/>
<path d="M153.814 115H12.1864C12.1369 115 12.0895 114.984 12.0546 114.956C12.0196 114.927 12 114.889 12 114.849C12 114.809 12.0196 114.771 12.0546 114.742C12.0895 114.714 12.1369 114.698 12.1864 114.698H153.814C153.863 114.698 153.91 114.714 153.945 114.742C153.98 114.771 154 114.809 154 114.849C154 114.889 153.98 114.927 153.945 114.956C153.91 114.984 153.863 115 153.814 115Z" fill="#CCCCCC"/>
<path d="M106.05 73.2572C106.112 73.3255 106.167 73.3977 106.216 73.473L115.554 74.3226L116.913 72.8379L119.95 74.2035L117.276 77.8098L105.835 75.3805C105.544 75.6069 105.174 75.7563 104.776 75.8087C104.377 75.8612 103.968 75.8142 103.603 75.674C103.239 75.5338 102.935 75.3071 102.734 75.024C102.532 74.7409 102.441 74.4149 102.474 74.0892C102.507 73.7635 102.662 73.4537 102.918 73.2009C103.174 72.9481 103.519 72.7643 103.907 72.674C104.295 72.5837 104.708 72.5911 105.091 72.6953C105.474 72.7995 105.808 72.9955 106.05 73.2572Z" fill="#FFB8B8"/>
<path d="M58.3992 71.3064C58.163 71.4187 57.8993 71.4878 57.6266 71.5087C57.3538 71.5297 57.0787 71.5019 56.8207 71.4276C56.5626 71.3532 56.3279 71.2339 56.1329 71.0782C55.938 70.9224 55.7877 70.734 55.6925 70.5261L49.0347 70.6385L50.8791 68.2695L56.9187 68.526C57.3608 68.4198 57.8358 68.4485 58.2536 68.6067C58.6713 68.7648 59.0029 69.0415 59.1853 69.3842C59.3678 69.7269 59.3886 70.1119 59.2437 70.4662C59.0988 70.8204 58.7983 71.1194 58.3992 71.3064Z" fill="#FFB8B8"/>
<path d="M55.4731 70.6284C55.4202 70.7712 55.3108 70.896 55.1617 70.9835C55.0126 71.0711 54.832 71.1165 54.6478 71.1129L42.4629 70.8625L31.4297 68.2195C31.1261 68.1468 30.8434 68.026 30.598 67.8641C30.3526 67.7022 30.1494 67.5025 30.0003 67.2765C29.8512 67.0505 29.7591 66.8028 29.7294 66.5477C29.6997 66.2927 29.7329 66.0354 29.8272 65.7908C29.9215 65.5463 30.0749 65.3193 30.2786 65.1232C30.4822 64.927 30.732 64.7656 31.0135 64.6483C31.295 64.5309 31.6024 64.46 31.9181 64.4397C32.2337 64.4194 32.5512 64.45 32.852 64.5298L42.8201 67.1741L54.784 68.1082C54.9936 68.1254 55.1876 68.2054 55.3279 68.3325C55.4682 68.4596 55.5446 68.6246 55.542 68.795L55.5074 70.4461C55.5062 70.5079 55.4947 70.5692 55.4731 70.6284Z" fill="#3F3D56"/>
<path d="M37.8025 113.012L40.087 113.011L41.174 105.882L37.8021 105.882L37.8025 113.012Z" fill="#FFB8B8"/>
<path d="M37.2196 112.408L41.7188 112.408H41.719C42.0956 112.408 42.4684 112.468 42.8163 112.585C43.1642 112.701 43.4803 112.872 43.7465 113.088C44.0128 113.303 44.224 113.559 44.3681 113.84C44.5122 114.122 44.5863 114.423 44.5863 114.728V114.803L37.2197 114.804L37.2196 112.408Z" fill="#2F2E41"/>
<path d="M31.0938 113.012L33.3782 113.011L34.4652 105.882L31.0934 105.882L31.0938 113.012Z" fill="#FFB8B8"/>
<path d="M30.511 112.408L35.0102 112.408H35.0104C35.3869 112.408 35.7598 112.468 36.1077 112.585C36.4556 112.701 36.7716 112.872 37.0379 113.088C37.3042 113.303 37.5154 113.559 37.6595 113.84C37.8036 114.122 37.8777 114.423 37.8777 114.728V114.803L30.5111 114.804L30.511 112.408Z" fill="#2F2E41"/>
<path d="M29.5604 84.1979L30.106 110.386C30.1077 110.469 30.1305 110.551 30.1731 110.626C30.2156 110.702 30.277 110.769 30.3533 110.824C30.4295 110.88 30.5191 110.922 30.6164 110.948C30.7137 110.974 30.8166 110.984 30.9187 110.976L33.5922 110.78C33.7675 110.767 33.9316 110.704 34.0553 110.603C34.179 110.501 34.2543 110.368 34.2679 110.226L35.833 93.8904C35.8367 93.852 35.8584 93.8162 35.8936 93.7904C35.9288 93.7645 35.9749 93.7505 36.0225 93.7513C36.07 93.7521 36.1154 93.7675 36.1494 93.7945C36.1833 93.8214 36.2032 93.8579 36.205 93.8963L36.9873 110.606C36.9946 110.762 37.0763 110.909 37.2152 111.017C37.3541 111.125 37.5394 111.186 37.7322 111.186H40.5993C40.7892 111.186 40.9718 111.127 41.1101 111.022C41.2483 110.917 41.3318 110.773 41.3434 110.62L43.3505 84.0471L31.4239 81.6348L29.5604 84.1979Z" fill="#2F2E41"/>
<path d="M38.2111 59.6083C40.7389 59.6083 42.7881 57.9504 42.7881 55.9052C42.7881 53.8601 40.7389 52.2021 38.2111 52.2021C35.6833 52.2021 33.6342 53.8601 33.6342 55.9052C33.6342 57.9504 35.6833 59.6083 38.2111 59.6083Z" fill="#FFB8B8"/>
<path d="M43.1751 85.1693C43.1706 85.1693 43.1662 85.1691 43.1617 85.1691L32.4594 85.0359C32.2537 85.0333 32.0563 84.9697 31.9048 84.857C31.7533 84.7444 31.6583 84.5906 31.6379 84.425L31.5167 83.4445C31.5144 83.4259 31.5036 83.4087 31.4865 83.3961C31.4694 83.3836 31.4471 83.3767 31.424 83.3767C31.4009 83.3767 31.3786 83.3836 31.3615 83.3961C31.3443 83.4087 31.3336 83.4259 31.3313 83.4445L31.2061 84.4572C31.1867 84.6158 31.0988 84.7637 30.958 84.8751C30.8172 84.9864 30.6323 85.054 30.436 85.0661L29.6797 85.1132C29.5464 85.1215 29.4125 85.1039 29.2894 85.0619C29.1662 85.0198 29.0572 84.9546 28.9715 84.8715C28.8859 84.7885 28.826 84.6901 28.7969 84.5845C28.7677 84.4789 28.7703 84.3693 28.8042 84.2646L29.4554 82.2557C30.803 78.0806 30.9114 73.7069 29.7718 69.4914L29.4482 68.3004C29.2042 67.4107 29.3159 66.4813 29.767 65.6462C30.2182 64.8111 30.9855 64.1136 31.9584 63.6542L34.0605 62.6573L35.0142 61.4998C35.1988 61.2764 35.4472 61.0923 35.7384 60.9631C36.0297 60.8339 36.3551 60.7634 36.6872 60.7576C38.0176 60.734 40.2998 60.9312 40.7286 62.5052C41.7913 62.7989 42.7115 63.3576 43.3571 64.101C44.0027 64.8443 44.3404 65.7341 44.3219 66.6425L44.0131 84.5002C44.01 84.6784 43.9204 84.8485 43.7636 84.9737C43.6067 85.0989 43.3954 85.1691 43.1751 85.1693Z" fill="#3F3D56"/>
<path d="M37.8531 58.0395C37.8343 58.563 37.3852 58.8658 36.8337 59.14C36.2822 59.4142 35.6375 59.5331 35.0059 59.6478C34.9211 59.6842 34.8261 59.7024 34.7301 59.7005C34.6341 59.6985 34.5403 59.6767 34.4578 59.6369C34.3753 59.5971 34.3069 59.5408 34.2591 59.4734C34.2113 59.406 34.1858 59.3298 34.185 59.2521L33.6058 57.4694C33.4009 56.9 33.2518 56.3184 33.1598 55.73C33.0203 54.5978 33.352 53.3799 34.3287 52.5613C35.3054 51.7428 36.9992 51.452 38.1697 52.0827C39.5587 50.6474 45.9076 53.8185 44.3415 54.8166C44.0629 54.9941 43.637 54.7695 43.2833 54.7477C42.9297 54.7259 42.5333 54.7762 42.3087 54.9983C42.0152 55.2884 42.143 55.7206 42.0221 56.0825C41.972 56.2098 41.8913 56.3279 41.7846 56.4299C41.6779 56.5319 41.5473 56.6157 41.4004 56.6767C41.2534 56.7376 41.093 56.7744 40.9283 56.785C40.7637 56.7955 40.5981 56.7796 40.4411 56.7381C40.1487 56.6215 39.8737 56.4784 39.6212 56.3116C39.3499 56.1654 39.0072 56.0574 38.7018 56.1496C38.2993 56.2711 38.1563 56.6698 38.1199 57.0162C38.0586 57.3616 37.9695 57.7034 37.8531 58.0395Z" fill="#2F2E41"/>
<path opacity="0.2" d="M38.9221 67.9639L39.6675 75.3517L43.5809 83.041L37.804 75.5024L38.9221 67.9639Z" fill="black"/>
<path d="M87.066 108.42L46.2232 88.816C45.5225 88.4788 45.0158 87.9305 44.8142 87.2915C44.6125 86.6524 44.7324 85.9747 45.1476 85.4071L64.1787 59.4534C64.484 59.0381 64.9805 58.7378 65.5591 58.6182C66.1378 58.4987 66.7514 58.5698 67.2654 58.8158L109.489 79.0828C110.011 79.3341 110.389 79.7427 110.539 80.219C110.689 80.6953 110.6 81.2004 110.291 81.6234L91.2793 107.55C90.8625 108.117 90.1849 108.527 89.395 108.69C88.6051 108.853 87.7675 108.756 87.066 108.42Z" fill="#F2F2F2"/>
<path d="M50.3564 87.9072L86.0706 105.05C86.7507 105.376 87.5632 105.471 88.3294 105.312C89.0956 105.154 89.7528 104.756 90.1562 104.206L104.756 84.2955C105.159 83.7453 105.276 83.0879 105.081 82.468C104.885 81.8481 104.393 81.3164 103.713 80.99L67.9988 63.8474C67.3187 63.521 66.5062 63.4265 65.74 63.5847C64.9738 63.743 64.3167 64.141 63.9132 64.6913L49.3134 84.6016C48.91 85.1519 48.7932 85.8092 48.9888 86.4292C49.1844 87.0491 49.6763 87.5807 50.3564 87.9072Z" fill="white"/>
<path d="M110.363 81.456L64.2314 59.313L65.0302 58.2237C65.4485 57.655 66.1286 57.2439 66.9211 57.0804C67.7137 56.9169 68.5541 57.0145 69.2578 57.3516L110.082 76.9468C110.785 77.2849 111.293 77.8349 111.496 78.476C111.699 79.1172 111.578 79.7971 111.162 80.3667L110.363 81.456Z" fill="#CCCCCC"/>
<path d="M70.2385 60.6598C70.6794 60.6598 71.0368 60.3707 71.0368 60.014C71.0368 59.6573 70.6794 59.3682 70.2385 59.3682C69.7977 59.3682 69.4403 59.6573 69.4403 60.014C69.4403 60.3707 69.7977 60.6598 70.2385 60.6598Z" fill="white"/>
<path d="M72.8444 61.9108C73.2852 61.9108 73.6426 61.6216 73.6426 61.265C73.6426 60.9083 73.2852 60.6191 72.8444 60.6191C72.4035 60.6191 72.0461 60.9083 72.0461 61.265C72.0461 61.6216 72.4035 61.9108 72.8444 61.9108Z" fill="white"/>
<path d="M75.4502 63.1617C75.8911 63.1617 76.2484 62.8726 76.2484 62.5159C76.2484 62.1593 75.8911 61.8701 75.4502 61.8701C75.0094 61.8701 74.652 62.1593 74.652 62.5159C74.652 62.8726 75.0094 63.1617 75.4502 63.1617Z" fill="white"/>
<path d="M100.099 85.2358L100.047 85.3066L100.572 85.5587L100.624 85.4879L100.099 85.2358Z" fill="#E6E6E6"/>
<path d="M98.9864 84.7979L97.9257 84.2888L97.9776 84.218L99.0383 84.7271L98.9864 84.7979ZM96.8649 83.7796L95.8041 83.2705L95.8561 83.1997L96.9168 83.7088L96.8649 83.7796ZM94.7434 82.7613L93.6826 82.2522L93.7346 82.1814L94.7953 82.6905L94.7434 82.7613ZM92.6219 81.743L91.5611 81.2339L91.6131 81.1631L92.6738 81.6722L92.6219 81.743ZM90.5004 80.7247L89.4396 80.2156L89.4915 80.1448L90.5523 80.6539L90.5004 80.7247ZM88.3789 79.7064L87.3181 79.1973L87.37 79.1264L88.4308 79.6356L88.3789 79.7064ZM86.2573 78.6881L85.1966 78.1789L85.2485 78.1081L86.3093 78.6173L86.2573 78.6881ZM84.1358 77.6698L83.0751 77.1606L83.127 77.0898L84.1878 77.599L84.1358 77.6698ZM82.0143 76.6515L80.9536 76.1423L81.0055 76.0715L82.0663 76.5807L82.0143 76.6515ZM79.8928 75.6332L78.8321 75.124L78.884 75.0532L79.9448 75.5624L79.8928 75.6332ZM77.7713 74.6149L76.7106 74.1057L76.7625 74.0349L77.8232 74.5441L77.7713 74.6149ZM75.6498 73.5965L74.5891 73.0874L74.641 73.0166L75.7017 73.5257L75.6498 73.5965ZM73.5283 72.5782L72.4676 72.0691L72.5195 71.9983L73.5802 72.5074L73.5283 72.5782ZM71.4068 71.5599L70.346 71.0508L70.398 70.98L71.4587 71.4891L71.4068 71.5599ZM69.2853 70.5416L68.2246 70.0325L68.2765 69.9617L69.3372 70.4708L69.2853 70.5416ZM67.1638 69.5233L66.103 69.0142L66.1549 68.9434L67.2157 69.4525L67.1638 69.5233Z" fill="#E6E6E6"/>
<path d="M64.5691 68.1821L64.5172 68.2529L65.0423 68.505L65.0942 68.4342L64.5691 68.1821Z" fill="#E6E6E6"/>
<path d="M78.0308 83.5454L77.9789 83.6162L78.504 83.8682L78.5559 83.7974L78.0308 83.5454Z" fill="#E6E6E6"/>
<path d="M76.9338 83.1152L75.8888 82.6136L75.9407 82.5428L76.9857 83.0444L76.9338 83.1152ZM74.8438 82.112L73.7988 81.6104L73.8507 81.5396L74.8957 82.0412L74.8438 82.112ZM72.7538 81.1088L71.7088 80.6072L71.7607 80.5364L72.8057 81.038L72.7538 81.1088ZM70.6638 80.1056L69.6188 79.6041L69.6707 79.5333L70.7157 80.0348L70.6638 80.1056ZM68.5738 79.1025L67.5288 78.6009L67.5807 78.5301L68.6257 79.0317L68.5738 79.1025ZM66.4838 78.0993L65.4388 77.5977L65.4907 77.5269L66.5357 78.0285L66.4838 78.0993ZM64.3938 77.0961L63.3488 76.5945L63.4007 76.5237L64.4457 77.0253L64.3938 77.0961ZM62.3038 76.0929L61.2588 75.5913L61.3107 75.5205L62.3557 76.0221L62.3038 76.0929Z" fill="#E6E6E6"/>
<path d="M59.7408 74.7671L59.6888 74.8379L60.2139 75.0899L60.2658 75.0191L59.7408 74.7671Z" fill="#E6E6E6"/>
<path d="M65.5075 81.7466L65.4556 81.8174L65.9806 82.0694L66.0326 81.9986L65.5075 81.7466Z" fill="#E6E6E6"/>
<path d="M64.3804 81.3015L63.3052 80.7855L63.3572 80.7147L64.4323 81.2307L64.3804 81.3015ZM62.2301 80.2694L61.1549 79.7533L61.2068 79.6825L62.282 80.1986L62.2301 80.2694ZM60.0798 79.2373L59.0046 78.7212L59.0566 78.6504L60.1317 79.1664L60.0798 79.2373Z" fill="#E6E6E6"/>
<path d="M57.4563 77.8823L57.4044 77.9531L57.9295 78.2052L57.9814 78.1344L57.4563 77.8823Z" fill="#E6E6E6"/>
<path d="M61.609 87.063L61.5571 87.1338L62.0822 87.3858L62.1341 87.315L61.609 87.063Z" fill="#E6E6E6"/>
<path d="M60.4819 86.6179L59.4068 86.1019L59.4587 86.0311L60.5339 86.5471L60.4819 86.6179ZM58.3316 85.5858L57.2565 85.0697L57.3084 84.9989L58.3835 85.515L58.3316 85.5858ZM56.1813 84.5537L55.1062 84.0376L55.1581 83.9668L56.2333 84.4829L56.1813 84.5537Z" fill="#E6E6E6"/>
<path d="M53.5579 83.1987L53.506 83.2695L54.0311 83.5216L54.083 83.4508L53.5579 83.1987Z" fill="#E6E6E6"/>
<path d="M56.4265 84.7447L86.6919 99.2719C87.4252 99.623 88.3007 99.7244 89.1262 99.5539C89.9518 99.3833 90.6601 98.9548 91.0957 98.3623L99.9387 86.3027L99.8778 86.2754L79.8142 90.4188L78.2249 85.384C78.1959 85.2909 78.1406 85.2045 78.0634 85.1316C77.9862 85.0587 77.8892 85.0013 77.78 84.9638C77.613 84.9093 77.4284 84.901 77.2549 84.94L66.7407 87.1109L65.5785 83.4299C65.5534 83.3505 65.5093 83.2758 65.4486 83.2101C65.3878 83.1445 65.3117 83.0892 65.2246 83.0473C65.1374 83.0055 65.0409 82.978 64.9406 82.9663C64.8403 82.9546 64.7381 82.9591 64.6399 82.9794C64.5689 82.9946 57.7271 84.4613 56.4265 84.7447Z" fill="#63FFBE"/>
<path d="M56.2456 84.7532L56.2205 84.6734L64.6341 82.9357C64.8564 82.8899 65.092 82.9174 65.2892 83.0121C65.4864 83.1068 65.6291 83.2609 65.6861 83.4406L66.8247 87.0493L77.2806 84.8897C77.5028 84.844 77.7384 84.8715 77.9356 84.9662C78.1328 85.0609 78.2756 85.2149 78.3325 85.3947L79.8983 90.3571L100.066 86.1916L100.092 86.2713L79.8248 90.4572L78.2339 85.415C78.2091 85.3365 78.1655 85.2626 78.1054 85.1977C78.0453 85.1328 77.9701 85.0781 77.8839 85.0367C77.7977 84.9953 77.7023 84.9681 77.6031 84.9566C77.5039 84.9451 77.4028 84.9494 77.3057 84.9695L66.7513 87.1494L65.5875 83.4609C65.5372 83.3024 65.4112 83.1664 65.2372 83.0829C65.0632 82.9994 64.8554 82.9751 64.6593 83.0154L56.2456 84.7532Z" fill="#3F3D56"/>
<path d="M66.0066 82.6106C66.4 82.6106 66.7189 82.3526 66.7189 82.0343C66.7189 81.716 66.4 81.458 66.0066 81.458C65.6132 81.458 65.2943 81.716 65.2943 82.0343C65.2943 82.3526 65.6132 82.6106 66.0066 82.6106Z" fill="#3F3D56"/>
<path d="M78.5299 84.4094C78.9233 84.4094 79.2422 84.1514 79.2422 83.8331C79.2422 83.5148 78.9233 83.2568 78.5299 83.2568C78.1365 83.2568 77.8176 83.5148 77.8176 83.8331C77.8176 84.1514 78.1365 84.4094 78.5299 84.4094Z" fill="#3F3D56"/>
<path d="M100.348 85.7971C100.741 85.7971 101.06 85.5391 101.06 85.2208C101.06 84.9025 100.741 84.6445 100.348 84.6445C99.9544 84.6445 99.6355 84.9025 99.6355 85.2208C99.6355 85.5391 99.9544 85.7971 100.348 85.7971Z" fill="#3F3D56"/>
<path d="M44.4959 85.9052C44.2823 85.7664 44.1089 85.5915 43.9879 85.3926C43.8669 85.1937 43.8013 84.9758 43.7956 84.7542C43.79 84.5326 43.8445 84.3127 43.9552 84.11C44.066 83.9073 44.2304 83.7267 44.4367 83.5809L41.9436 78.585L45.3356 79.1392L47.1831 83.7984C47.4628 84.0952 47.5982 84.4646 47.5638 84.8367C47.5293 85.2088 47.3273 85.5578 46.9961 85.8175C46.6649 86.0772 46.2274 86.2295 45.7666 86.2457C45.3058 86.2619 44.8537 86.1407 44.4959 85.9052Z" fill="#FFB8B8"/>
<path d="M44.4546 83.74C44.2708 83.7507 44.0878 83.7122 43.9338 83.6305C43.7797 83.5488 43.663 83.4284 43.6018 83.2878L39.5659 73.9824L38.7034 64.699C38.6796 64.4435 38.7189 64.1868 38.8188 63.9437C38.9188 63.7006 39.0775 63.476 39.2857 63.283C39.4939 63.09 39.7474 62.9324 40.0316 62.8193C40.3158 62.7063 40.6249 62.6401 40.9409 62.6246C41.257 62.6091 41.5737 62.6446 41.8727 62.729C42.1716 62.8135 42.4468 62.9451 42.6823 63.1164C42.9178 63.2876 43.1089 63.4951 43.2444 63.7266C43.38 63.9581 43.4572 64.2092 43.4718 64.4651L43.9547 72.9433L47.1222 82.3242C47.1767 82.4888 47.1531 82.6639 47.056 82.8152C46.9589 82.9664 46.7954 83.0827 46.5976 83.1413L44.6775 83.7012C44.6057 83.7222 44.5307 83.7353 44.4546 83.74Z" fill="#3F3D56"/>
<path d="M119.286 75.4953C119.211 75.4685 119.141 75.4332 119.078 75.3903L115.325 72.8322C115.235 72.7707 115.161 72.6947 115.109 72.6091C115.057 72.5235 115.027 72.43 115.022 72.3347C115.017 72.2393 115.037 72.1442 115.079 72.0552C115.122 71.9662 115.187 71.8854 115.27 71.8177L118.676 69.0507C118.819 68.9336 119.009 68.8619 119.212 68.8488C119.415 68.8358 119.617 68.8822 119.781 68.9795L122.357 70.4928C122.518 70.5873 122.632 70.7242 122.682 70.88C122.731 71.0357 122.711 71.2005 122.627 71.3459L120.398 75.1576C120.304 75.3197 120.134 75.4456 119.927 75.5087C119.719 75.5717 119.489 75.5669 119.286 75.4953Z" fill="#63FFBE"/>
<path d="M133.925 111.674L131.684 112.168L128.264 105.407L131.573 104.679L133.925 111.674Z" fill="#FFB8B8"/>
<path d="M129.863 112.012L134.232 111.051L134.972 113.253L127.927 114.804L127.915 114.767C127.722 114.193 127.818 113.58 128.184 113.063C128.549 112.547 129.153 112.169 129.863 112.012Z" fill="#2F2E41"/>
<path d="M114.762 113.059L112.439 113.058L111.334 105.809L114.762 105.809L114.762 113.059Z" fill="#FFB8B8"/>
<path d="M110.733 112.521H115.26V114.804H107.958V114.766C107.958 114.171 108.251 113.6 108.771 113.179C109.291 112.758 109.997 112.521 110.733 112.521Z" fill="#2F2E41"/>
<path d="M118.262 65.1912C120.832 65.1912 122.916 63.5053 122.916 61.4257C122.916 59.346 120.832 57.6602 118.262 57.6602C115.691 57.6602 113.608 59.346 113.608 61.4257C113.608 63.5053 115.691 65.1912 118.262 65.1912Z" fill="#FFB8B8"/>
<path d="M114.62 107.889H111.445C111.228 107.889 111.019 107.822 110.861 107.702C110.703 107.581 110.607 107.417 110.593 107.242C109.647 95.0747 110.201 86.3469 112.335 79.7753C112.344 79.7466 112.355 79.7183 112.369 79.6907L112.539 79.3468C112.602 79.2185 112.711 79.1085 112.852 79.0312C112.994 78.9538 113.16 78.9126 113.331 78.9131H119.859C119.982 78.913 120.104 78.9345 120.216 78.9761C120.327 79.0177 120.427 79.0784 120.507 79.154L121.393 79.9911C121.411 80.0074 121.427 80.024 121.443 80.0415C125.441 84.5529 129.024 93.3727 133.174 105.227C133.236 105.4 133.211 105.585 133.107 105.743C133.002 105.9 132.825 106.019 132.614 106.073L129.202 106.957C129.006 107.006 128.795 106.998 128.606 106.932C128.417 106.867 128.264 106.748 128.174 106.599L119.32 91.7419C119.259 91.6381 119.157 91.5531 119.031 91.4997C118.905 91.4462 118.76 91.427 118.62 91.445C118.479 91.463 118.349 91.5172 118.249 91.5995C118.15 91.6819 118.085 91.788 118.066 91.9023L115.465 107.293C115.436 107.458 115.335 107.609 115.18 107.718C115.025 107.828 114.826 107.889 114.62 107.889Z" fill="#2F2E41"/>
<path d="M121.036 80.0527C121.027 80.0527 121.018 80.0526 121.009 80.0524L113.079 79.8498C112.875 79.8452 112.68 79.7814 112.529 79.6702C112.379 79.5589 112.283 79.4075 112.259 79.2436C111.253 72.6602 114.01 70.8965 115.242 70.4439C115.345 70.4063 115.434 70.3478 115.501 70.2742C115.568 70.2005 115.61 70.1141 115.624 70.0233L115.73 69.3333C115.748 69.2114 115.807 69.0957 115.899 68.9982C117.83 66.9737 120.468 66.3254 121.868 66.1193C121.982 66.1027 122.098 66.1051 122.211 66.1261C122.323 66.1472 122.429 66.1865 122.522 66.2417C122.615 66.2969 122.693 66.3668 122.752 66.4472C122.811 66.5276 122.849 66.6169 122.863 66.7095L123.023 67.7003C123.039 67.7948 123.086 67.8842 123.158 67.9596C127.187 72.2205 122.699 78.5117 121.758 79.7295C121.681 79.8284 121.575 79.9099 121.448 79.9664C121.322 80.0229 121.18 80.0526 121.036 80.0527Z" fill="#63FFBE"/>
<path d="M123.382 59.0838C123.037 58.236 122.782 57.3657 122.62 56.4826C122.569 55.9685 122.732 55.4153 123.194 55.0606C124.06 54.3967 125.532 54.7129 126.438 55.3412C127.747 56.2492 128.399 57.6447 128.646 59.0253C128.893 60.406 128.784 61.81 128.844 63.2042C128.903 64.5984 129.15 66.032 130.028 67.2324C130.907 68.4327 132.537 69.3541 134.257 69.252C134.951 69.2216 135.61 68.9956 136.119 68.6132C136.37 68.4207 136.559 68.1824 136.672 67.9183C136.785 67.6543 136.818 67.3722 136.768 67.0957C137.647 68.369 137.201 70.0948 135.89 71.0958C134.58 72.0968 132.563 72.3797 130.84 71.9524C129.116 71.525 127.698 70.4533 126.85 69.1661C126.003 67.8788 125.693 66.3917 125.738 64.9338C125.772 63.8142 126.007 62.6854 125.774 61.5815C125.54 60.4777 124.686 59.3569 123.339 59.0969L123.382 59.0838Z" fill="#2F2E41"/>
<path d="M117.336 60.535C117.106 61.1554 116.228 61.538 115.438 61.4331C115.045 61.3669 114.681 61.2158 114.386 60.9959C114.09 60.776 113.873 60.4954 113.759 60.184C113.542 59.5529 113.631 58.8787 114.007 58.2988C114.215 57.9512 114.505 57.6402 114.861 57.3835C115.217 57.1267 115.633 56.9294 116.083 56.8027C116.536 56.6811 117.019 56.6495 117.49 56.7105C117.962 56.7714 118.408 56.9231 118.792 57.1529C118.833 57.0135 118.919 56.8854 119.041 56.7819C119.164 56.6784 119.318 56.6031 119.488 56.5638C119.831 56.489 120.193 56.4934 120.533 56.5763C121.513 56.8022 122.362 57.3019 122.929 57.9865C123.489 58.669 123.86 59.4416 124.015 60.2512C124.282 61.4652 124.184 62.7917 123.341 63.8192C122.498 64.8466 120.774 65.4533 119.375 64.9635C119.288 64.6027 119.495 64.2395 119.734 63.9269C119.973 63.6144 120.256 63.3098 120.348 62.9499C120.44 62.5899 120.264 62.1495 119.833 62.0318C119.466 61.9314 119.075 62.0941 118.688 62.1137C118.468 62.1249 118.249 62.0891 118.052 62.01C117.854 61.9309 117.686 61.8112 117.564 61.663C117.443 61.5147 117.371 61.3432 117.357 61.1655C117.343 60.9877 117.386 60.8101 117.484 60.6505L117.336 60.535Z" fill="#2F2E41"/>
<path d="M105.54 76.048C105.617 76.1056 105.688 76.168 105.753 76.2347L115.123 75.6447L116.11 73.9795L119.412 74.8573L117.626 78.8068L105.824 78.166C105.591 78.4328 105.263 78.6358 104.884 78.7481C104.504 78.8604 104.092 78.8766 103.701 78.7946C103.31 78.7126 102.959 78.5362 102.695 78.2889C102.431 78.0417 102.266 77.7352 102.223 77.4104C102.179 77.0855 102.259 76.7577 102.451 76.4704C102.644 76.1831 102.94 75.95 103.3 75.8021C103.66 75.6542 104.067 75.5985 104.467 75.6424C104.868 75.6864 105.242 75.8278 105.54 76.048Z" fill="#FFB8B8"/>
<path d="M119.361 77.4877C119.282 77.4695 119.206 77.4422 119.137 77.4066L114.988 75.2863C114.888 75.2353 114.803 75.1682 114.736 75.0891C114.67 75.01 114.625 74.9207 114.604 74.8268C114.583 74.7329 114.586 74.6365 114.614 74.5436C114.641 74.4508 114.692 74.3635 114.763 74.2873L117.671 71.1706C117.793 71.0388 117.969 70.9468 118.168 70.9115C118.367 70.8762 118.575 70.8998 118.754 70.9782L121.56 72.1933C121.735 72.2693 121.872 72.3923 121.947 72.5411C122.022 72.69 122.031 72.8554 121.971 73.0087L120.406 77.0305C120.339 77.2016 120.193 77.345 119.998 77.4304C119.803 77.5157 119.574 77.5363 119.361 77.4877Z" fill="#63FFBE"/>
</g>
<defs>
<clipPath id="clip0_70_2118">
<rect width="142" height="104" fill="white" transform="translate(12 11)"/>
</clipPath>
</defs>
</svg>
