<svg width="144" height="126" viewBox="0 0 144 126" fill="none" xmlns="http://www.w3.org/2000/svg">
<rect width="144" height="126" rx="10" fill="#F9F9FA"/>
<g clip-path="url(#clip0_70_2030)">
<path d="M44.4288 20.5883C44.9151 19.396 45.9637 18.6891 46.77 19.0083C47.5764 19.3274 47.8363 20.554 47.35 21.7464C47.1626 22.2251 46.8567 22.6505 46.4553 22.9868L44.3262 28.0102L41.8383 26.931L44.2007 22.093C44.1476 21.5766 44.2255 21.0601 44.427 20.5866L44.4288 20.5883Z" fill="#A0616A"/>
<path d="M35.5077 52.6589C35.5077 52.6589 31.9375 50.981 32.185 49.7766C32.4326 48.5705 43.0689 22.8857 43.0689 22.8857L47.9936 26.0254L35.5077 52.6606V52.6589Z" fill="#E6E6E6"/>
<path d="M89.0552 115H54.9059C49.9387 115 45.8982 111.08 45.8982 106.261V19.7394C45.8982 14.9202 49.9387 11 54.9059 11H89.0552C94.0223 11 98.0629 14.9202 98.0629 19.7394V106.261C98.0629 111.08 94.0223 115 89.0552 115Z" fill="#D7D7D8"/>
<path d="M89.0799 112.634H54.8811C51.2048 112.634 48.2129 109.732 48.2129 106.165V19.6659C48.2129 16.0991 51.2048 13.1963 54.8811 13.1963H89.0799C92.7562 13.1963 95.7482 16.0991 95.7482 19.6659V106.165C95.7482 109.732 92.7562 112.634 89.0799 112.634Z" fill="white"/>
<path d="M76.8168 18.9534H67.146C65.8693 18.9534 64.8313 17.9464 64.8313 16.7077C64.8313 15.469 65.8693 14.4619 67.146 14.4619H76.8168C78.0935 14.4619 79.1315 15.469 79.1315 16.7077C79.1315 17.9464 78.0935 18.9534 76.8168 18.9534Z" fill="#D7D7D8"/>
<path d="M88.1445 45.6201H55.8183C54.3554 45.6201 53.1694 46.7704 53.1694 48.1893C53.1694 49.6082 54.3554 50.7584 55.8183 50.7584H88.1445C89.6075 50.7584 90.7934 49.6082 90.7934 48.1893C90.7934 46.7704 89.6075 45.6201 88.1445 45.6201Z" fill="#63FFBE"/>
<path d="M65.109 41.3496H54.4126C54.1577 41.3496 53.951 41.5501 53.951 41.7974C53.951 42.0447 54.1577 42.2452 54.4126 42.2452H65.109C65.3639 42.2452 65.5705 42.0447 65.5705 41.7974C65.5705 41.5501 65.3639 41.3496 65.109 41.3496Z" fill="#63FFBE"/>
<path d="M88.1445 63.0146H55.8183C54.3554 63.0146 53.1694 64.1649 53.1694 65.5838C53.1694 67.0027 54.3554 68.153 55.8183 68.153H88.1445C89.6075 68.153 90.7934 67.0027 90.7934 65.5838C90.7934 64.1649 89.6075 63.0146 88.1445 63.0146Z" fill="#D7D7D8"/>
<path d="M65.109 58.7422H54.4126C54.1577 58.7422 53.951 58.9427 53.951 59.19C53.951 59.4373 54.1577 59.6377 54.4126 59.6377H65.109C65.3639 59.6377 65.5705 59.4373 65.5705 59.19C65.5705 58.9427 65.3639 58.7422 65.109 58.7422Z" fill="#D7D7D8"/>
<path d="M88.1445 80.4072H55.8183C54.3554 80.4072 53.1694 81.5575 53.1694 82.9764C53.1694 84.3953 54.3554 85.5456 55.8183 85.5456H88.1445C89.6075 85.5456 90.7934 84.3953 90.7934 82.9764C90.7934 81.5575 89.6075 80.4072 88.1445 80.4072Z" fill="#D7D7D8"/>
<path d="M65.109 76.1377H54.4126C54.1577 76.1377 53.951 76.3382 53.951 76.5855C53.951 76.8328 54.1577 77.0333 54.4126 77.0333H65.109C65.3639 77.0333 65.5705 76.8328 65.5705 76.5855C65.5705 76.3382 65.3639 76.1377 65.109 76.1377Z" fill="#D7D7D8"/>
<path d="M107.125 32.1707C107.125 32.1707 103.479 32.5705 103.244 38.0468C103.048 42.6104 102.648 45.1547 104.561 46.1068C105.246 46.4465 106.05 46.4774 106.781 46.2441L114.593 43.7513C114.593 43.7513 114.711 35.5351 112.006 33.5398C109.3 31.5428 107.125 32.1707 107.125 32.1707Z" fill="#2F2E41"/>
<path d="M111.433 44.7599L107.479 46.0209V40.5H111.065L111.433 44.7599Z" fill="#FFB6B6"/>
<path d="M99.3466 76.1063C99.1327 77.3707 98.2627 78.2783 97.405 78.1325C96.5474 77.9867 96.024 76.8423 96.2397 75.5762C96.3175 75.0701 96.5244 74.5897 96.8427 74.1797L97.8223 68.832L100.489 69.3742L99.2388 74.588C99.4032 75.0821 99.4403 75.6019 99.3466 76.1063Z" fill="#FFB6B6"/>
<path d="M120.9 75.4922C121.164 76.7481 120.681 77.8958 119.825 78.0554C118.969 78.2149 118.062 77.3245 117.801 76.0687C117.689 75.5677 117.707 75.0496 117.852 74.5555L116.81 69.2182L119.502 68.8047L120.243 74.1094C120.577 74.5143 120.801 74.9878 120.9 75.4922Z" fill="#FFB6B6"/>
<path d="M109.946 106.573H106.243V111.67H109.946V106.573Z" fill="#FFB6B6"/>
<path d="M102.637 114.756C102.248 114.756 101.902 114.747 101.64 114.723C100.657 114.636 99.718 113.931 99.2459 113.519C99.0337 113.334 98.9665 113.039 99.0761 112.785C99.1557 112.603 99.3131 112.466 99.5094 112.412L102.109 111.692L106.317 108.937L106.365 109.019C106.383 109.05 106.797 109.772 106.934 110.259C106.987 110.445 106.973 110.599 106.894 110.719C106.839 110.801 106.761 110.849 106.699 110.877C106.775 110.954 107.014 111.112 107.75 111.225C108.823 111.39 109.049 110.311 109.058 110.266L109.065 110.23L109.097 110.21C109.608 109.89 109.923 109.745 110.031 109.775C110.098 109.794 110.211 109.829 110.517 112.768C110.547 112.86 110.761 113.536 110.616 114.183C110.459 114.886 107.29 114.644 106.655 114.59C106.637 114.591 104.264 114.756 102.639 114.756H102.637Z" fill="#2F2E41"/>
<path d="M120.489 102.569L117.347 104.47L120.127 108.795L123.269 106.894L120.489 102.569Z" fill="#FFB6B6"/>
<path d="M116.317 114.059C115.882 114.059 115.482 114.007 115.198 113.959C114.918 113.911 114.699 113.695 114.653 113.424C114.621 113.228 114.68 113.031 114.817 112.885L116.63 110.94L118.699 106.441L118.784 106.486C118.816 106.503 119.56 106.903 119.944 107.246C120.091 107.376 120.163 107.515 120.159 107.657C120.158 107.757 120.119 107.836 120.08 107.893C120.186 107.92 120.474 107.93 121.16 107.649C122.161 107.239 121.765 106.206 121.747 106.163L121.733 106.129L121.749 106.096C122.009 105.563 122.195 105.278 122.304 105.249C122.373 105.23 122.487 105.201 124.349 107.539C124.425 107.601 124.975 108.066 125.204 108.689C125.454 109.366 122.633 110.789 122.066 111.066C122.048 111.08 119.097 113.161 117.884 113.753C117.403 113.988 116.833 114.06 116.315 114.06L116.317 114.059Z" fill="#2F2E41"/>
<path d="M112.673 63.9482H102.305L101.364 73.3053L105.481 107.879H110.773L108.657 87.9105L117.242 105.938L121.945 102.744L115.242 85.9135C115.242 85.9135 117.636 71.2517 115.755 67.5991C113.873 63.9482 112.673 63.9482 112.673 63.9482Z" fill="#2F2E41"/>
<path d="M117.829 64.519H99.8364L106.305 43.8662H113.479L117.829 64.519Z" fill="#63FFBE"/>
<path d="M107.437 43.8694C107.437 43.8694 102.968 43.7545 102.498 44.8971C102.027 46.038 96.4998 73.1948 96.4998 73.1948H100.146L107.438 43.8694H107.437Z" fill="#63FFBE"/>
<path d="M110.344 43.8939C110.344 43.8939 114.28 43.4101 114.75 44.551C115.221 45.6919 120.748 72.8486 120.748 72.8486H117.102L110.344 43.8939Z" fill="#63FFBE"/>
<path d="M107.969 42.0287C110.145 42.0287 111.909 40.3173 111.909 38.2062C111.909 36.0951 110.145 34.3838 107.969 34.3838C105.793 34.3838 104.029 36.0951 104.029 38.2062C104.029 40.3173 105.793 42.0287 107.969 42.0287Z" fill="#FFB6B6"/>
<path d="M106.89 33.5964C106.89 33.5964 104.722 42.1386 107.132 46.1309L103.737 45.4309C103.737 45.4309 102.422 36.0824 105.067 34.3822L106.89 33.5947V33.5964Z" fill="#2F2E41"/>
<path d="M132 114.552C132 114.695 131.882 114.81 131.735 114.81H12.2652C12.1185 114.81 12 114.695 12 114.552C12 114.41 12.1185 114.295 12.2652 114.295H131.735C131.882 114.295 132 114.41 132 114.552Z" fill="#2E2E41"/>
<path d="M32.353 40.9777L36.8816 42.4222V36.0967H32.7721L32.353 40.9777Z" fill="#A0616A"/>
<path d="M36.3212 37.8464C38.8134 37.8464 40.8338 35.8862 40.8338 33.4681C40.8338 31.0501 38.8134 29.0898 36.3212 29.0898C33.8289 29.0898 31.8085 31.0501 31.8085 33.4681C31.8085 35.8862 33.8289 37.8464 36.3212 37.8464Z" fill="#A0616A"/>
<path d="M35.1717 33.8114L35.7942 34.544L36.9188 32.6328C36.9188 32.6328 38.3546 32.7048 38.3546 31.6703C38.3546 30.6358 39.672 30.6066 39.672 30.6066C39.672 30.6066 41.5376 27.4464 37.6739 28.2785C37.6739 28.2785 34.9931 26.4977 33.6616 28.0194C33.6616 28.0194 29.5751 30.0164 30.7439 33.4923L32.6873 37.0763L33.1276 36.2648C33.1276 36.2648 32.8606 32.8592 35.1717 33.808V33.8114Z" fill="#2F2E41"/>
<path d="M30.9932 111.725H34.696V106.627H30.9932V111.725Z" fill="#A0616A"/>
<path d="M34.2876 114.645C33.6546 114.7 30.4858 114.944 30.3267 114.239C30.1817 113.592 30.3956 112.916 30.4257 112.823C30.7298 109.883 30.843 109.85 30.912 109.831C31.0198 109.8 31.3346 109.946 31.8456 110.265L31.8775 110.286L31.8845 110.322C31.8934 110.368 32.1197 111.447 33.1931 111.281C33.9287 111.168 34.1674 111.01 34.2434 110.933C34.1815 110.905 34.1037 110.857 34.0489 110.775C33.9693 110.655 33.9552 110.5 34.0083 110.315C34.1462 109.826 34.56 109.104 34.5776 109.075L34.6254 108.992L38.8339 111.747L41.4333 112.468C41.6296 112.523 41.787 112.658 41.8666 112.84C41.9762 113.094 41.909 113.389 41.6968 113.575C41.2247 113.986 40.2875 114.692 39.3025 114.779C39.0408 114.803 38.6942 114.812 38.3052 114.812C36.6801 114.812 34.3071 114.649 34.2894 114.645H34.2876Z" fill="#2F2E41"/>
<path d="M39.4263 62.6833L29.7131 62.2012C29.7131 62.2012 28.2242 67.6775 30.1056 73.3837L30.332 107.746H35.8208L40.9948 72.2994L39.4263 62.6833Z" fill="#2F2E41"/>
<path d="M37.787 39.7626L32.4556 37.0176C32.4556 37.0176 26.7104 45.1634 27.5044 49.576C28.3001 53.9886 29.7112 62.2031 29.7112 62.2031L41.4721 62.6852L39.4192 46.5085L37.787 39.7626Z" fill="#E6E6E6"/>
<path d="M33.628 111.725H37.3308V106.627H33.628V111.725Z" fill="#A0616A"/>
<path d="M36.9223 114.645C36.2892 114.7 33.1205 114.944 32.9613 114.239C32.8163 113.592 33.0303 112.916 33.0603 112.823C33.3645 109.883 33.4776 109.85 33.5466 109.831C33.6545 109.8 33.9692 109.946 34.4803 110.265L34.5121 110.286L34.5192 110.322C34.528 110.368 34.7544 111.447 35.8277 111.281C36.5633 111.168 36.802 111.01 36.8781 110.933C36.8162 110.905 36.7384 110.857 36.6836 110.775C36.604 110.655 36.5898 110.5 36.6429 110.315C36.7808 109.826 37.1946 109.104 37.2123 109.075L37.26 108.992L41.4686 111.747L44.068 112.468C44.2642 112.523 44.4216 112.658 44.5012 112.84C44.6108 113.094 44.5436 113.389 44.3314 113.575C43.8593 113.986 42.9221 114.692 41.9372 114.779C41.6755 114.803 41.3289 114.812 40.9398 114.812C39.3148 114.812 36.9417 114.649 36.9241 114.645H36.9223Z" fill="#2F2E41"/>
<path d="M41.4722 62.6833L29.7112 62.2012C29.7112 62.2012 28.2223 67.6775 30.1038 73.3837L32.3778 107.746H37.8666L43.0406 72.2994L41.4722 62.6833Z" fill="#2F2E41"/>
<path d="M45.9901 71.6563C46.4234 72.8676 46.1033 74.0668 45.2775 74.3362C44.4517 74.6038 43.4314 73.8403 42.9982 72.6274C42.8178 72.1453 42.7648 71.6289 42.8426 71.1211L41.0796 65.9656L43.6896 65.209L45.152 70.3713C45.5392 70.7299 45.8275 71.1708 45.9919 71.6563H45.9901Z" fill="#A0616A"/>
<path d="M31.1931 41.7009C31.1931 41.7009 35.0268 40.7127 35.651 41.7833C36.2734 42.8538 45.4774 69.055 45.4774 69.055L39.635 69.7927L31.1949 41.7009H31.1931Z" fill="#E6E6E6"/>
</g>
<defs>
<clipPath id="clip0_70_2030">
<rect width="120" height="104" fill="white" transform="translate(12 11)"/>
</clipPath>
</defs>
</svg>
