<svg width="165" height="126" viewBox="0 0 165 126" fill="none" xmlns="http://www.w3.org/2000/svg">
<rect width="165" height="126" rx="10" fill="#F9F9FA"/>
<g clip-path="url(#clip0_70_2192)">
<path d="M115.449 11.0605H12.0441V79.0632H115.449V11.0605Z" fill="#E6E6E6"/>
<path d="M112.493 19.5889H15.001V75.0393H112.493V19.5889Z" fill="white"/>
<path d="M115.405 11H12V15.5109H115.405V11Z" fill="#63FFBE"/>
<path d="M15.2647 14.142C15.7144 14.142 16.079 13.7677 16.079 13.3059C16.079 12.8441 15.7144 12.4697 15.2647 12.4697C14.815 12.4697 14.4504 12.8441 14.4504 13.3059C14.4504 13.7677 14.815 14.142 15.2647 14.142Z" fill="white"/>
<path d="M18.3552 14.142C18.8049 14.142 19.1695 13.7677 19.1695 13.3059C19.1695 12.8441 18.8049 12.4697 18.3552 12.4697C17.9055 12.4697 17.5409 12.8441 17.5409 13.3059C17.5409 13.7677 17.9055 14.142 18.3552 14.142Z" fill="white"/>
<path d="M21.4456 14.142C21.8953 14.142 22.2599 13.7677 22.2599 13.3059C22.2599 12.8441 21.8953 12.4697 21.4456 12.4697C20.9959 12.4697 20.6313 12.8441 20.6313 13.3059C20.6313 13.7677 20.9959 14.142 21.4456 14.142Z" fill="white"/>
<path d="M46.0641 24.1504H26.9962V45.3926H46.0641V24.1504Z" fill="#E6E6E6"/>
<path d="M73.2805 24.1504H54.2126V45.3926H73.2805V24.1504Z" fill="#E6E6E6"/>
<path d="M100.497 24.1504H81.4291V45.3926H100.497V24.1504Z" fill="#E6E6E6"/>
<path d="M46.0641 49.2373H26.9962V70.4795H46.0641V49.2373Z" fill="#E6E6E6"/>
<path d="M73.2805 49.2373H54.2126V70.4795H73.2805V49.2373Z" fill="#E6E6E6"/>
<path d="M100.497 49.2373H81.4291V70.4795H100.497V49.2373Z" fill="#E6E6E6"/>
<path d="M58.8214 54.6966L62.3053 53.2822L62.7104 60.3539C62.7104 60.3539 63.4395 62.517 63.1966 63.349C63.1966 63.349 63.3585 64.7633 62.9534 64.8465C62.5483 64.9297 61.4137 65.0962 61.3335 65.0129C61.2533 64.9295 61.2525 64.68 61.2525 64.68C61.2525 64.68 60.4422 65.2624 60.3612 65.9279C60.3612 65.9279 56.9583 67.0094 56.8773 66.0111C56.7963 65.0127 58.5787 64.1807 58.5787 64.1807L59.9561 62.0176L58.8214 54.6966Z" fill="white"/>
<path d="M66.1946 54.6966L69.6781 53.2822L70.0832 60.3539C70.0832 60.3539 70.8123 62.517 70.5693 63.349C70.5693 63.349 70.7313 64.7633 70.3262 64.8465C69.9211 64.9297 68.7865 65.0962 68.7063 65.0129C68.6261 64.9295 68.6253 64.68 68.6253 64.68C68.6253 64.68 67.815 65.2624 67.734 65.9279C67.734 65.9279 64.3311 67.0094 64.2501 66.0111C64.1691 65.0127 65.9515 64.1807 65.9515 64.1807L67.3289 62.0176L66.1946 54.6966Z" fill="white"/>
<path d="M66.5351 27.3889C66.5351 27.3889 65.7933 29.5174 66.6528 30.4772L65.9362 33.0057C65.9362 33.0057 68.4822 40.8486 67.7548 41.9442C67.7548 41.9442 65.0392 43.3384 59.6072 41.4461L61.8136 32.657L61.4985 28.9472L61.9349 27.2043L62.9047 27.1055C62.9047 27.1055 62.3228 29.3463 63.3897 29.6949C64.4566 30.0436 65.4974 27.1615 65.4974 27.1615L66.5351 27.3889Z" fill="#3F3D56"/>
<path d="M32.2762 41.1277L33.2124 41.521L37.6805 35.4912L39.0847 42.5696L40.0208 42.3949C40.6213 36.2922 41.1115 30.0677 40.5102 27.1237L37.0421 26.9707L35.4678 32.1273L34.7018 35.6229L32.2762 41.1277Z" fill="white"/>
<path d="M89.0944 27.0762C89.0944 27.0762 87.8168 28.9 87.8792 29.636C87.9416 30.372 88.7517 42.3711 88.7517 42.3711L90.6526 42.4671L90.0912 33.8277L90.5586 31.4919L91.7116 42.3711L94.0488 42.4351L91.961 28.3242L91.5559 27.0763L89.0944 27.0762Z" fill="white"/>
<path d="M96.3153 56.4575C95.9761 56.0395 95.3929 55.8136 94.833 55.6914C94.849 55.6392 93.13 55.2744 93.1008 55.3495L92.4527 54.8193L90.4612 55.8811L89.3421 55.0988L88.8223 55.2882C88.8435 55.194 87.2087 55.4849 87.2087 55.4849C86.8964 55.4964 86.4975 55.5165 86.051 55.5517C84.4874 55.6752 84.3669 59.8337 84.3669 59.8337C85.0864 59.5315 85.8534 59.3666 86.6305 59.347L87.0531 64.3207C89.2268 64.1293 91.5066 64.352 93.8695 64.8971L94.9776 60.9874L97.5581 59.9569C97.5581 59.9569 97.1172 57.4455 96.3153 56.4575Z" fill="#3F3D56"/>
<path d="M40.9404 54.0889C40.6609 53.7445 40.1805 53.5583 39.7191 53.4576C39.7328 53.4145 38.3158 53.1141 38.2916 53.176L37.7575 52.7393L36.1169 53.6141L35.1949 52.9697L34.7666 53.1258C34.7841 53.0482 33.437 53.2877 33.437 53.2877C33.1804 53.2972 32.851 53.3137 32.4832 53.3428C31.1948 53.4446 31.0957 56.8707 31.0957 56.8707C31.6885 56.6217 32.3206 56.4858 32.9608 56.4697L33.309 66.5017C35.1001 66.3439 36.9785 66.5275 38.925 66.9767L39.8379 57.8215L41.9642 56.9725C41.9642 56.9725 41.601 54.9033 40.9404 54.0889Z" fill="white"/>
<path d="M132.202 56.7598H141.344V51.7367C141.344 50.4918 140.862 49.298 140.005 48.4177C139.148 47.5375 137.985 47.043 136.773 47.043C135.561 47.043 134.398 47.5375 133.541 48.4177C132.683 49.298 132.202 50.4918 132.202 51.7367V56.7598Z" fill="#2F2E41"/>
<path d="M128.121 112.647H126.155L125.219 104.858H128.121L128.121 112.647Z" fill="#FFB6B6"/>
<path d="M128.622 111.987H124.75C124.095 111.987 123.468 112.254 123.005 112.729C122.542 113.205 122.282 113.849 122.282 114.521V114.603H128.622V111.987Z" fill="#2F2E41"/>
<path d="M151.626 109.952L149.914 110.944L145.37 104.635L147.898 103.17L151.626 109.952Z" fill="#FFB6B6"/>
<path d="M151.747 109.125L148.375 111.079C147.805 111.41 147.386 111.959 147.211 112.606C147.035 113.254 147.118 113.946 147.439 114.532L147.479 114.603L153 111.403L151.747 109.125Z" fill="#2F2E41"/>
<path d="M139.059 77.6211L139.211 78.4001C139.211 78.4001 139.666 78.8675 139.438 79.1012C139.211 79.3349 139.287 80.4256 139.287 80.4256C139.414 82.4144 141.945 93.5904 142.397 95.773C142.397 95.773 145.887 98.1102 148.619 102.707C151.35 107.303 151.425 108.472 151.425 108.472L148.391 109.796L140.805 100.37C140.805 100.37 138.681 99.0451 137.922 97.8766C137.163 96.7081 132.458 84.6325 132.458 84.6325L129.802 97.2533C129.802 97.2533 129.954 101.85 129.271 104.81C128.852 106.678 128.598 108.582 128.513 110.497L124.947 110.108C124.947 110.108 125.174 99.0451 125.554 97.8765C125.554 97.8765 123.961 84.3988 127.147 79.0233L129.715 71.9931L132.23 70.999L139.059 77.6211Z" fill="#2F2E41"/>
<path d="M136.82 48.2705C132.033 48.3545 132.034 55.6663 136.82 55.7495C141.607 55.6655 141.606 48.3537 136.82 48.2705Z" fill="#FFB8B8"/>
<path d="M133.136 51.8158H133.949L134.171 51.247L134.06 51.8158H138.51L138.366 50.6256L139.447 51.8158H140.526V51.1709C140.527 50.6726 140.431 50.1792 140.246 49.7187C140.061 49.2582 139.789 48.8398 139.446 48.4872C139.103 48.1346 138.696 47.8549 138.248 47.6639C137.799 47.4729 137.319 47.3744 136.834 47.374C136.349 47.3737 135.868 47.4715 135.42 47.6618C134.971 47.8522 134.564 48.1313 134.22 48.4834C133.877 48.8355 133.604 49.2535 133.418 49.7137C133.232 50.1739 133.137 50.6672 133.136 51.1655V51.1709L133.136 51.8158Z" fill="#2F2E41"/>
<path d="M131.884 57.9336L140.929 58.0089L139.018 77.9228C139.018 77.9228 128.439 77.3495 128.433 74.0338L129.424 71.0873L131.884 57.9336Z" fill="#3F3D56"/>
<path d="M141.318 79.8475C141.179 79.6727 141.079 79.4686 141.025 79.2498C140.971 79.0309 140.965 78.8026 141.006 78.5808C141.047 78.3591 141.135 78.1494 141.264 77.9664C141.393 77.7834 141.559 77.6316 141.751 77.5218L141.358 74.016L143.375 73.251L143.862 78.21C144.019 78.5534 144.049 78.9442 143.945 79.3084C143.841 79.6726 143.61 79.985 143.297 80.1866C142.984 80.3882 142.61 80.465 142.245 80.4025C141.88 80.34 141.551 80.1426 141.318 79.8475Z" fill="#FFB6B6"/>
<path d="M139.74 59.7242L140.93 58.0159C140.93 58.0159 141.745 57.8303 142.707 58.9831C143.669 60.136 144.231 74.5464 144.231 74.5464L140.702 75.3699L138.617 65.1591L139.74 59.7242Z" fill="#3F3D56"/>
<path d="M119.802 75.3512L120.064 88.1538L128.135 92.5338L142.834 89.8384L143.196 76.5304L133.877 73.1611L119.802 75.3512Z" fill="white"/>
<path d="M128.114 92.672L119.937 88.2344L119.67 75.2377L133.89 73.0254L133.92 73.0363L143.327 76.4375L142.96 89.9497L128.114 92.672ZM120.191 88.0731L128.156 92.3954L142.709 89.727L143.064 76.6231L133.865 73.2969L119.933 75.4645L120.191 88.0731Z" fill="#CACACA"/>
<path d="M127.955 78.8227L127.924 78.8099L119.754 75.4744L119.849 75.2285L127.987 78.551L143.178 76.3996L143.213 76.6618L127.955 78.8227Z" fill="#CACACA"/>
<path d="M128.1 78.6853L127.842 78.6885L128.006 92.5356L128.264 92.5324L128.1 78.6853Z" fill="#CACACA"/>
<path d="M126.923 78.1599L123.978 76.9339L138.155 74.6143L141.1 75.8401L126.923 78.1599Z" fill="#CACACA"/>
<path d="M119.852 79.0655L119.75 79.3086L123.166 80.8187L123.268 80.5756L119.852 79.0655Z" fill="#CACACA"/>
<path d="M121.399 83.4327L121.297 83.6758L124.713 85.1859L124.815 84.9428L121.399 83.4327Z" fill="#63FFBE"/>
<path d="M74.8933 93.1383L75.1557 105.941L83.2272 110.321L97.9263 107.626L98.2873 94.3175L88.969 90.9482L74.8933 93.1383Z" fill="white"/>
<path d="M83.2061 110.459L75.0284 106.022L74.762 93.0248L88.9815 90.8125L89.0118 90.8234L98.4187 94.2246L98.0523 107.737L83.2061 110.459ZM75.283 105.86L83.2482 110.183L97.8004 107.514L98.1558 94.4102L88.9566 91.0841L75.0245 93.2516L75.283 105.86Z" fill="#CACACA"/>
<path d="M83.047 96.6089L83.0154 96.596L74.8456 93.2605L74.9407 93.0146L83.079 96.3371L98.2696 94.1858L98.3049 94.448L83.047 96.6089Z" fill="#CACACA"/>
<path d="M83.192 96.4714L82.9342 96.4746L83.0982 110.322L83.356 110.319L83.192 96.4714Z" fill="#CACACA"/>
<path d="M81.3012 95.6446L79.0696 94.7201L93.247 92.4004L95.4784 93.325L81.3012 95.6446Z" fill="#CACACA"/>
<path d="M74.9441 96.8516L74.8422 97.0947L78.2578 98.6048L78.3598 98.3617L74.9441 96.8516Z" fill="#CACACA"/>
<path d="M76.4909 101.22L76.3889 101.463L79.8046 102.973L79.9065 102.73L76.4909 101.22Z" fill="#63FFBE"/>
<path d="M88.9155 94.8928L89.2203 109.755L98.5899 114.839L115.653 111.71L116.072 96.2617L105.255 92.3506L88.9155 94.8928Z" fill="#63FFBE"/>
<path d="M98.5655 115L89.0725 109.849L88.7632 94.7615L105.27 92.1934L105.305 92.206L116.225 96.1543L115.799 111.84L98.5655 115ZM89.368 109.661L98.6143 114.679L115.507 111.581L115.92 96.3698L105.241 92.5086L89.0679 95.0248L89.368 109.661Z" fill="#3F3D56"/>
<path d="M98.3808 98.9225L98.3442 98.9075L88.8602 95.0356L88.9707 94.75L98.418 98.6069L116.052 96.1095L116.093 96.4139L98.3808 98.9225Z" fill="#3F3D56"/>
<path d="M98.549 98.7629L98.2498 98.7666L98.4402 114.841L98.7394 114.837L98.549 98.7629Z" fill="#3F3D56"/>
<path d="M96.5058 97.8112L93.7635 96.731L110.221 94.0381L112.964 95.1183L96.5058 97.8112Z" fill="#3F3D56"/>
<path d="M88.9747 99.2041L88.8563 99.4863L92.8214 101.239L92.9397 100.957L88.9747 99.2041Z" fill="#3F3D56"/>
<path d="M90.7702 104.274L90.6519 104.557L94.6169 106.31L94.7352 106.027L90.7702 104.274Z" fill="white"/>
<path d="M124.378 77.4681C124.577 77.3722 124.753 77.2326 124.894 77.0593C125.035 76.8859 125.137 76.683 125.193 76.4647C125.249 76.2465 125.258 76.0182 125.219 75.7961C125.18 75.5739 125.094 75.3633 124.967 75.1789L126.799 72.1931L125.304 70.6074L122.774 74.8612C122.487 75.1007 122.295 75.4401 122.235 75.8152C122.175 76.1902 122.251 76.5748 122.449 76.8961C122.646 77.2174 122.952 77.4531 123.307 77.5586C123.663 77.664 124.044 77.6319 124.378 77.4683V77.4681Z" fill="#FFB6B6"/>
<path d="M133.274 58.7181L131.961 57.8301C131.961 57.8301 130.948 58.0633 129.871 60.1908C128.794 62.3182 124.45 71.8298 124.45 71.8298L126.236 73.6908L130.999 66.2288L133.274 58.7181Z" fill="#3F3D56"/>
</g>
<defs>
<clipPath id="clip0_70_2192">
<rect width="141" height="104" fill="white" transform="translate(12 11)"/>
</clipPath>
</defs>
</svg>
