<svg width="166" height="126" viewBox="0 0 166 126" fill="none" xmlns="http://www.w3.org/2000/svg">
<rect x="0.5" width="165" height="126" rx="10" fill="#F9F9FA"/>
<g clip-path="url(#clip0_70_2254)">
<path d="M40.436 95.1655C40.3599 94.9318 39.7829 95.0347 39.7275 94.8256C39.6723 94.6172 40.2259 94.4426 40.6506 93.8554C40.7272 93.7496 41.2097 93.0823 41.0246 92.8017C40.6738 92.2698 38.233 93.5946 37.6471 92.8512C37.5185 92.688 37.4656 92.4079 37.0826 91.8866C36.9302 91.6793 36.8324 91.5791 36.7156 91.5821C36.5498 91.5863 36.4905 91.7944 36.23 92.1713C35.8394 92.7365 35.6984 92.6656 35.441 93.1287C35.25 93.4725 35.2273 93.6922 35.0896 93.7051C34.8946 93.7234 34.814 93.2954 34.5758 93.2788C34.3327 93.2618 34.0895 93.6848 33.9689 94.0152C33.7426 94.6354 33.8827 95.1093 33.9138 95.5817C33.9475 96.095 33.8683 96.8465 33.3124 97.811L28.0697 106.193C29.1956 104.484 32.3917 99.8246 33.6794 98.1155C34.0511 97.6221 34.4506 97.1267 35.0654 97.0335C35.6574 96.9437 36.3777 97.2376 37.383 97.2205C37.5004 97.2185 37.8272 97.2088 37.9067 97.035C37.9724 96.8913 37.8092 96.7664 37.8686 96.6313C37.9482 96.4502 38.3063 96.5279 38.7945 96.4076C39.1387 96.3227 39.3725 96.1826 39.5736 96.062C39.6342 96.0257 40.5373 95.4767 40.436 95.1655Z" fill="#F2F2F2"/>
<path d="M26.7043 97.1225C26.568 97.0926 26.4519 97.4064 26.3336 97.3734C26.2158 97.3405 26.2901 97.0174 26.1255 96.6388C26.0958 96.5706 25.9087 96.1404 25.718 96.1506C25.3566 96.1699 25.3003 97.7543 24.7676 97.8283C24.6507 97.8446 24.4985 97.7898 24.133 97.828C23.9876 97.8433 23.9104 97.8625 23.8782 97.9209C23.8324 98.0038 23.9171 98.093 24.0262 98.33C24.19 98.6855 24.1146 98.7345 24.2669 98.9949C24.3799 99.1882 24.4808 99.2627 24.4474 99.3343C24.4001 99.4356 24.1675 99.3518 24.0906 99.4643C24.0122 99.5792 24.1489 99.821 24.2757 99.9757C24.5137 100.266 24.786 100.334 25.026 100.455C25.2868 100.586 25.6315 100.842 25.9428 101.394L28.5298 106.395C28.0189 105.347 26.6621 102.429 26.1977 101.301C26.0636 100.976 25.9365 100.636 26.0684 100.307C26.1953 99.9891 26.5468 99.7191 26.8285 99.2191C26.8614 99.1606 26.951 98.9969 26.8889 98.9076C26.8376 98.8338 26.7294 98.8781 26.6805 98.8099C26.6148 98.7184 26.7562 98.5645 26.8382 98.2893C26.896 98.0953 26.8949 97.9397 26.894 97.8059C26.8937 97.7656 26.8858 97.1624 26.7043 97.1225Z" fill="#F2F2F2"/>
<path d="M29.2853 98.3423L29.3666 97.589L29.4165 97.5417C29.6472 97.3228 29.7916 97.091 29.8457 96.8524C29.8543 96.8145 29.861 96.7761 29.8678 96.737C29.8948 96.5821 29.9284 96.3895 30.0768 96.1895C30.1598 96.0781 30.3795 95.8263 30.6061 95.9142C30.6673 95.9372 30.7086 95.977 30.7372 96.0192C30.7444 96.0119 30.7518 96.0046 30.7597 95.9967C30.8576 95.9012 30.9261 95.8662 30.992 95.8326C31.0427 95.8067 31.095 95.78 31.1836 95.7089C31.2224 95.6778 31.2536 95.6497 31.2798 95.6261C31.3593 95.5549 31.461 95.4715 31.6003 95.5045C31.748 95.545 31.7986 95.6864 31.8322 95.78C31.8922 95.9469 31.9107 96.0617 31.9229 96.1378C31.9273 96.1656 31.9324 96.1969 31.9362 96.2071C31.9686 96.2888 32.3743 96.31 32.527 96.3188C32.8701 96.3375 33.1671 96.3537 33.2385 96.5894C33.2897 96.7581 33.1829 96.9421 32.9119 97.1508C32.8275 97.2158 32.7431 97.2606 32.6696 97.294C32.7148 97.3369 32.7509 97.3953 32.7531 97.4748C32.758 97.6629 32.5657 97.8073 32.1816 97.9046C32.0861 97.929 31.9577 97.9614 31.7896 97.9532C31.7105 97.9493 31.6412 97.9371 31.5821 97.9258C31.5733 97.9596 31.5571 97.9947 31.528 98.028C31.4425 98.1263 31.3044 98.1512 31.117 98.0959C30.91 98.038 30.7465 97.9593 30.6023 97.8901C30.4762 97.8299 30.3676 97.7784 30.2764 97.7643C30.1068 97.7405 29.9487 97.8456 29.7595 97.9854L29.2853 98.3423Z" fill="#F2F2F2"/>
<path d="M30.6385 94.0516L29.8917 94.1638L29.8334 94.1274C29.564 93.9589 29.3039 93.8776 29.0601 93.8856C29.0214 93.8868 28.9827 93.8901 28.9433 93.8934C28.7871 93.9064 28.593 93.9227 28.3626 93.8294C28.2341 93.7771 27.9356 93.6277 27.9629 93.3854C27.9696 93.3202 27.9975 93.2701 28.0308 93.2315C28.022 93.2264 28.0131 93.2211 28.0034 93.2155C27.8866 93.1447 27.8355 93.0871 27.7863 93.0316C27.7485 92.9889 27.7095 92.9449 27.6185 92.877C27.5786 92.8472 27.5437 92.8241 27.5143 92.8046C27.4255 92.7455 27.3193 92.668 27.3158 92.5244C27.3174 92.3707 27.4408 92.2858 27.5225 92.2294C27.6682 92.1288 27.7741 92.0818 27.8444 92.0506C27.8701 92.0393 27.899 92.0264 27.9078 92.0201C27.9784 91.9679 27.8959 91.5688 27.8657 91.4183C27.7967 91.0805 27.7369 90.7882 27.9461 90.659C28.0957 90.5665 28.3001 90.6235 28.5701 90.8336C28.6541 90.8991 28.7187 90.9697 28.7696 91.0325C28.7995 90.9778 28.8466 90.928 28.9227 90.9057C29.1027 90.8531 29.2907 91.0032 29.4819 91.3514C29.5297 91.4378 29.5935 91.5543 29.6282 91.7195C29.6445 91.7973 29.6504 91.8676 29.6544 91.9279C29.6892 91.9279 29.7272 91.9346 29.7667 91.9545C29.8831 92.0125 29.9422 92.1402 29.9363 92.3362C29.9331 92.5518 29.8987 92.7304 29.8686 92.888C29.8425 93.0256 29.8204 93.1441 29.8299 93.2362C29.85 93.4068 29.9914 93.5337 30.1742 93.6819L30.6385 94.0516Z" fill="#F2F2F2"/>
<path d="M30.7393 91.8013L30.8206 91.048L30.8704 91.0006C31.1012 90.7818 31.2455 90.55 31.2997 90.3114C31.3083 90.2734 31.315 90.2351 31.3218 90.196C31.3488 90.0411 31.3823 89.8485 31.5307 89.6485C31.6138 89.5371 31.8335 89.2852 32.0601 89.3732C32.1213 89.3962 32.1625 89.436 32.1912 89.4782C32.1984 89.4709 32.2058 89.4636 32.2137 89.4557C32.3116 89.3602 32.38 89.3252 32.446 89.2916C32.4967 89.2657 32.549 89.239 32.6376 89.1679C32.6764 89.1367 32.7075 89.1087 32.7338 89.0851C32.8133 89.0139 32.915 88.9305 33.0543 88.9635C33.2019 89.004 33.2526 89.1454 33.2862 89.2389C33.3462 89.4059 33.3646 89.5206 33.3769 89.5968C33.3813 89.6246 33.3864 89.6559 33.3902 89.6661C33.4225 89.7478 33.8283 89.769 33.981 89.7778C34.3241 89.7965 34.6211 89.8127 34.6925 90.0484C34.7437 90.2171 34.6369 90.4011 34.3659 90.6098C34.2815 90.6747 34.1971 90.7196 34.1236 90.753C34.1688 90.7959 34.2048 90.8543 34.207 90.9338C34.212 91.1219 34.0197 91.2663 33.6355 91.3636C33.5401 91.388 33.4117 91.4204 33.2436 91.4122C33.1645 91.4083 33.0952 91.3961 33.0361 91.3848C33.0273 91.4186 33.0111 91.4537 32.982 91.487C32.8965 91.5852 32.7584 91.6102 32.5709 91.5548C32.364 91.497 32.2005 91.4183 32.0562 91.3491C31.9302 91.2889 31.8216 91.2374 31.7304 91.2233C31.5608 91.1995 31.4027 91.3046 31.2134 91.4444L30.7393 91.8013Z" fill="#F2F2F2"/>
<path d="M28.3175 106.236L28.1855 106.105L28.002 106.086C28.0028 106.068 28.0016 106.028 28.0003 105.965C27.9932 105.618 27.9713 104.563 28.1177 102.943C28.2199 101.811 28.3907 100.663 28.6253 99.5289C28.8603 98.3931 29.1042 97.548 29.3001 96.8687C29.448 96.3564 29.5972 95.8704 29.7429 95.3971C30.1316 94.1325 30.4987 92.9379 30.726 91.5753C30.7769 91.2712 30.8825 90.638 30.6662 89.8907C30.5407 89.4572 30.3259 89.0493 30.0274 88.6785L30.3163 88.4443C30.6457 88.8541 30.8833 89.3059 31.0226 89.7872C31.2625 90.6157 31.1474 91.3057 31.092 91.6371C30.8607 93.0238 30.49 94.2298 30.0974 95.5066C29.9525 95.9783 29.8037 96.4621 29.6565 96.9723C29.4624 97.6453 29.2207 98.4831 28.9887 99.6043C28.7567 100.725 28.5881 101.859 28.4871 102.976C28.3427 104.576 28.3643 105.615 28.3715 105.957C28.3751 106.139 28.3759 106.177 28.3175 106.236Z" fill="#F2F2F2"/>
<path d="M29.2348 89.1068C29.2199 89.1034 29.205 89.0997 29.19 89.0953C28.8853 89.0096 28.6409 88.7604 28.4633 88.3548C28.3802 88.1641 28.3606 87.9634 28.3215 87.563C28.3154 87.5013 28.2883 87.189 28.3216 86.7751C28.3433 86.5046 28.3723 86.396 28.4456 86.3107C28.5271 86.2157 28.6368 86.1613 28.7528 86.134C28.7559 86.0982 28.7676 86.0631 28.7907 86.0299C28.8861 85.8922 29.0458 85.9488 29.1325 85.9783C29.1761 85.994 29.2305 86.014 29.2917 86.0243C29.3879 86.041 29.4453 86.0241 29.5322 85.9988C29.6154 85.9746 29.7188 85.9445 29.8617 85.947C30.1438 85.9509 30.3525 86.0781 30.4214 86.12C30.784 86.3386 30.9092 86.6874 31.054 87.0912C31.0828 87.1722 31.1784 87.4648 31.2006 87.8416C31.2167 88.1134 31.1812 88.2247 31.1405 88.3042C31.0573 88.4678 30.93 88.5436 30.6141 88.7031C30.284 88.8703 30.1184 88.954 29.9826 88.997C29.6666 89.0965 29.4682 89.159 29.2348 89.1068Z" fill="#F2F2F2"/>
<path d="M71.1554 66.2171C72.1407 65.3818 71.8791 63.4453 70.5711 61.8915C69.9985 61.2114 69.3203 60.7175 68.6561 60.4471L67.8926 59.563L58.034 47.1676C58.034 47.1676 52.5745 34.8367 50.9628 33.5046C49.3512 32.1725 47.455 32.866 47.455 32.866L45.9756 34.7027L55.1948 51.9195L64.63 61.4478L65.9037 62.7804C66.0584 63.4827 66.4304 64.2362 67.003 64.9163C68.311 66.47 70.1701 67.0523 71.1554 66.2171Z" fill="#FFB6B6"/>
<path d="M52.5458 35.7969L55.0164 39.4327L58.5632 44.7001L52.1903 46.9123L46.5635 37.2239L52.5458 35.7969Z" fill="#E6E6E6"/>
<path d="M153.5 105.9H12.5V106.332H153.5V105.9Z" fill="#3F3D56"/>
<path d="M112.32 75.917H101.079V72.0865C101.079 65.9248 106.064 60.9223 112.205 60.9223H112.32V75.917Z" fill="#2F2E41"/>
<path d="M103.584 73.9114L105.447 67.7919L110.227 67.5518L112.32 75.9173L103.584 73.9114Z" fill="#A0616A"/>
<path opacity="0.1" d="M103.584 73.9114L105.447 67.7919L110.227 67.5518L112.32 75.9173L103.584 73.9114Z" fill="black"/>
<path d="M107.934 71.3781C111.038 71.3781 113.554 68.8529 113.554 65.7379C113.554 62.6229 111.038 60.0977 107.934 60.0977C104.829 60.0977 102.313 62.6229 102.313 65.7379C102.313 68.8529 104.829 71.3781 107.934 71.3781Z" fill="#A0616A"/>
<path d="M96.0204 97.2629L94.5327 98.7558C94.5327 98.7558 86.5834 93.4054 83.5346 95.4008C80.4858 97.3962 80.353 101.26 83.9379 103.392C87.5228 105.523 96.6843 110.72 96.6843 110.72C96.6843 110.72 108.9 112.851 117.132 106.323C125.364 99.7944 126.891 100.127 125.43 96.6634C123.97 93.1993 120.783 93.9987 120.783 93.9987L114.675 97.596L112.153 97.0631L96.0204 97.2629Z" fill="#2F2E41"/>
<path d="M96.3523 98.9287L102.726 101.727L100.336 107.456L90.9086 105.191" fill="#2F2E41"/>
<path d="M112.642 98.9287L104.053 102.926L107.373 109.854L116.932 105.724" fill="#2F2E41"/>
<path d="M104.053 72.8037L95.7549 76.4787L98.4104 91.1345L96.0204 97.2633L108.767 99.2619L115.303 97.2266L114.742 94.3322L115.303 83.5296L117.53 77.1449L111.555 73.0146L104.053 72.8037Z" fill="#E6E6E6"/>
<path d="M101.929 102.26L106.045 103.459L104.053 108.356L98.6095 106.257L101.929 102.26Z" fill="#A0616A"/>
<path d="M107.649 102.26L102.593 104.791V108.658L108.302 107.989L107.649 102.26Z" fill="#A0616A"/>
<path d="M100.336 109.587C100.336 109.587 109.099 115.449 112.418 113.051C115.737 110.653 117.596 107.589 116.932 107.189C116.269 106.789 114.277 106.123 114.277 106.123L103.124 108.388L100.336 109.587Z" fill="#2F2E41"/>
<path d="M89.1825 105.191C89.1825 105.191 84.6682 112.119 88.917 113.185C93.1658 114.251 103.873 109.854 103.873 109.854L103.124 104.125L101.132 106.124L89.1825 105.191Z" fill="#2F2E41"/>
<path d="M117.318 57.235C116.076 56.083 115.662 54.5062 116.392 53.7132C117.123 52.9202 118.722 53.2114 119.964 54.3639C120.467 54.8175 120.854 55.3853 121.093 56.0197L126.293 60.9675L123.928 63.367L119.052 58.2346C118.403 58.0451 117.808 57.7024 117.318 57.235Z" fill="#A0616A"/>
<path d="M115.903 72.5768L125.314 67.9683L120.446 59.5668L121.97 56.46C121.97 56.46 133.817 63.087 132.638 67.9091C131.459 72.7313 119.708 81.5901 115.955 80.1738C114.816 79.7439 114.156 78.9766 113.789 78.1163C112.893 76.0159 113.857 73.5788 115.903 72.5768Z" fill="#E6E6E6"/>
<path d="M97.1728 70.3002C97.4587 69.4279 98.0231 68.6642 98.2756 67.7815C98.6109 66.6096 99.3247 69.2095 99.3944 67.9922C99.5268 65.6785 103.046 59.727 105.055 58.5838C107.064 57.4406 108.217 57.7853 110.264 58.8589C110.264 58.8589 111.258 58.9223 112.494 59.5351C113.731 60.1478 114.845 61.1292 115.326 62.4264C115.707 63.4547 115.665 64.5839 115.792 65.6736C116.147 68.7093 117.843 71.5964 117.479 74.6311C117.366 75.5778 117.007 76.5569 116.235 77.1138C115.464 77.6707 114.218 77.6101 113.71 76.804C113.537 76.529 113.463 76.2026 113.315 75.9133C113.166 75.624 112.898 75.3543 112.574 75.3633C112.087 75.3769 111.839 76.0329 112.031 76.4825C112.223 76.932 112.674 77.2034 113.098 77.4448C112.089 77.9006 110.836 77.7587 109.953 77.0884C109.07 76.4181 108.593 75.2473 108.756 74.1484C108.985 72.5997 111.233 72.9203 111.498 71.3774C111.691 70.2543 112.368 68.375 112.183 67.2504C111.999 66.1259 111.113 67.4875 112.046 66.8377C111.02 67.3343 108.824 63.9372 107.749 63.5566C106.675 63.1761 105.764 62.3522 105.275 61.3191C104.135 62.9772 103.132 62.5269 102.724 64.4991C102.316 66.4713 102.994 72.5547 104.675 73.6558C104.002 74.1164 103.165 73.1722 102.85 73.9255C102.671 74.3522 102.555 74.8192 102.258 75.1736C101.691 75.8505 100.645 75.8917 99.8105 75.6071C98.7761 75.2541 97.8918 74.479 97.4041 73.4979C96.9165 72.5169 96.8315 71.3416 97.1728 70.3002Z" fill="#2F2E41"/>
<path d="M82.795 68.9782C82.4912 67.3086 81.3865 66.1126 80.3277 66.3068C79.2689 66.501 78.6571 68.0116 78.9612 69.6817C79.0736 70.3505 79.3439 70.9826 79.7496 71.5251L81.1258 78.5827L84.4125 77.864L82.7069 70.9828C82.8954 70.3312 82.9256 69.6438 82.795 68.9782Z" fill="#A0616A"/>
<path d="M96.4618 76.0004L87.5414 81.504L83.0811 72.8775L79.6504 72.5039C79.6504 72.5039 78.8778 86.0925 83.5669 87.6776C88.2561 89.2627 102.007 84.0538 102.826 80.1152C103.075 78.9196 102.783 77.9492 102.256 77.1775C100.968 75.2932 98.4012 74.8038 96.4618 76.0004Z" fill="#E6E6E6"/>
<path d="M145.128 86.2758L113.175 96.41V57.3685L145.128 47.2344V86.2758Z" fill="white"/>
<path d="M112.96 96.7049V57.211L145.343 46.9404V86.4342L112.96 96.7049ZM113.39 57.5269V96.116L144.913 86.1183V47.5291L113.39 57.5269Z" fill="#3F3D56"/>
<path d="M66.8795 94.9371L92.5051 103.064V71.7543L66.8795 63.627V94.9371Z" fill="white"/>
<path d="M92.7202 103.358L92.4404 103.27L66.6647 95.0946V63.332L66.9445 63.4209L92.7202 71.5958V103.358ZM67.0946 94.7787L92.2903 102.77V71.9118L67.0946 63.9209V94.7787Z" fill="#3F3D56"/>
<path d="M120.941 59.7822C120.576 61.6923 121.242 63.7693 122.649 65.107C124.056 66.4447 126.159 67.0004 128.04 66.5317C129.826 66.0867 131.496 64.1917 130.741 62.508C130.202 61.3076 128.559 60.8535 127.38 61.4307C126.201 62.0079 125.545 63.3955 125.613 64.7102C125.681 66.0249 126.378 67.2471 127.309 68.1755C129.735 70.5972 133.621 71.2252 135.759 73.906C137.627 76.2471 137.569 79.9214 135.629 82.2026C133.69 84.4837 130.083 85.1189 127.485 83.6369C126.414 83.0261 125.493 82.0461 125.227 80.8393C124.961 79.6326 125.497 78.2172 126.622 77.7146C128.744 76.7667 130.881 79.3127 133.204 79.35C134.534 79.3714 135.826 78.4481 136.241 77.1796C136.656 75.9111 136.16 74.3991 135.076 73.6253" fill="#63FFBE"/>
<path d="M75.9739 87.0983C76.3846 88.3081 75.5334 89.7835 74.2833 90.0285C73.0331 90.2734 71.6913 89.2278 71.6182 87.9517C71.5452 86.6757 72.7589 85.4828 74.0288 85.5825C76.0747 85.7432 77.2828 88.5532 79.3308 88.4218C80.7321 88.332 81.6173 86.8937 82.1345 85.5838C82.7301 84.0755 83.1657 82.5037 83.4315 80.9034C83.6533 79.5685 83.7551 78.1864 83.4352 76.8717C83.1152 75.557 82.3227 74.3087 81.121 73.6944C79.2955 72.7614 76.7969 73.6716 75.9252 75.5319C75.0536 77.3922 75.8932 79.8501 77.6828 80.8505C79.9209 82.1016 83.0034 81.2006 85.0367 82.7645C86.6663 84.0179 86.9464 86.3294 87.0952 88.3843C87.1901 89.6949 87.2837 91.0259 87.0163 92.3123C86.7489 93.5987 86.0679 94.8577 84.9384 95.5228C84.0829 96.0265 82.9407 96.1262 82.1174 95.5712C81.294 95.0162 80.985 93.7318 81.6253 92.9716C82.1493 92.3493 83.1035 92.2501 83.8704 92.5174C84.6374 92.7846 85.2617 93.3447 85.8638 93.8913" fill="#63FFBE"/>
<path d="M55.0543 23.4226L53.2649 30.268L46.4431 28.9214C46.4431 28.9214 49.1271 23.9837 48.4561 21.7393L55.0543 23.4226Z" fill="#FFB6B6"/>
<path d="M47.8529 112.529L51.9609 112.528L53.9151 96.6279L47.8521 96.6284L47.8529 112.529Z" fill="#FFB6B6"/>
<path d="M61.9276 112.435C62.0555 112.651 62.123 113.349 62.123 113.6C62.123 114.373 61.4988 114.999 60.7287 114.999H48.0066C47.4813 114.999 47.0554 114.572 47.0554 114.045V113.514C47.0554 113.514 46.426 111.916 47.7218 109.947C47.7218 109.947 49.3322 111.489 51.7385 109.074L52.4482 107.784L57.5848 111.554L60.432 111.906C61.0549 111.982 61.6072 111.894 61.9276 112.435Z" fill="#2F2E41"/>
<path d="M59.2595 66.5133L53.5988 105.167H46.4967L47.441 83.1027L47.9381 71.501L46.4967 65.9786C46.4967 65.9786 45.8395 64.7511 45.2858 63.2631C44.6618 61.5839 44.1689 59.5709 44.9006 58.6163C45.1699 58.2644 45.8699 58.0039 46.8211 57.81C47.4024 57.6908 48.0789 57.598 48.8093 57.526C53.0093 57.1089 58.9834 57.3694 58.9834 57.3694L59.1353 62.3986L59.2195 65.2069L59.2595 66.5133Z" fill="#2F2E41"/>
<path d="M40.6165 110.639L44.6809 111.238L48.9191 95.7918L42.9205 94.9072L40.6165 110.639Z" fill="#FFB6B6"/>
<path d="M54.555 112.6C54.6502 112.833 54.6159 113.533 54.5794 113.782C54.4674 114.546 53.759 115.075 52.9972 114.962L40.4104 113.106C39.8906 113.029 39.5312 112.544 39.6077 112.022L39.6847 111.496C39.6847 111.496 39.2936 109.824 40.8609 108.065C40.8609 108.065 42.2307 109.826 44.9615 107.788L45.8506 106.615L50.3862 111.095L53.1521 111.858C53.7572 112.025 54.3165 112.018 54.555 112.6Z" fill="#2F2E41"/>
<path d="M59.3486 60.0665L58.5721 66.7762L54.3379 80.9153L47.3677 104.193L40.3419 103.157L46.6475 70.0594L46.0232 64.3841C46.0232 64.3841 45.8198 63.82 45.5868 62.9941C45.1241 61.3602 44.5439 58.6993 45.1822 57.3421C45.2684 57.1576 45.3766 56.9975 45.5105 56.8679C45.7616 56.6235 46.2719 56.4751 46.9556 56.3964C49.8133 56.0723 55.6987 56.9993 58.3175 57.4544L59.3486 60.0665Z" fill="#2F2E41"/>
<path d="M53.9359 28.2486L61.6524 38.0118L60.2672 48.1907L59.0802 58.5481L45.1011 56.4159C45.1011 56.4159 48.1206 49.1216 48.4561 48.7849C48.7916 48.4483 49.6343 49.2797 49.0452 48.1907C48.4561 47.1016 47.7851 47.1016 48.3443 46.5405C48.9034 45.9794 43.9828 38.6851 43.9828 34.7574C43.9828 30.8297 46.3313 27.6875 46.3313 27.6875L53.9359 28.2486Z" fill="#E6E6E6"/>
<path d="M52.1355 24.7156C55.0063 24.7156 57.3337 22.3802 57.3337 19.4994C57.3337 16.6186 55.0063 14.2832 52.1355 14.2832C49.2646 14.2832 46.9373 16.6186 46.9373 19.4994C46.9373 22.3802 49.2646 24.7156 52.1355 24.7156Z" fill="#FFB6B6"/>
<path d="M51.8926 29.4725C51.8926 29.4725 52.6705 23.2964 52.8082 21.5004C52.9458 19.7043 55.4723 16.9002 55.4723 16.9002L57.2621 18.3509C57.2621 18.3509 58.7766 18.3509 57.744 16.1404C56.7114 13.9299 54.7839 13.5845 54.7839 13.5845C54.7839 13.5845 54.5774 10.6832 50.9977 11.0286C47.418 11.374 45.8347 14.2752 45.8347 14.2752C45.8347 14.2752 45.6282 10.6141 43.3565 13.3081C41.0848 16.0022 39.7768 17.1075 42.1862 18.0055C44.5956 18.9035 46.3855 18.2127 46.3855 18.2127C46.3855 18.2127 44.0449 18.6963 44.4579 20.3541C44.871 22.012 39.0196 29.5416 41.7043 30.3705C44.3891 31.1994 50.3782 33.2027 51.0666 31.8902C51.755 30.5777 51.8926 29.4725 51.8926 29.4725Z" fill="#2F2E41"/>
<path d="M73.3206 66.7335C74.3129 65.9065 74.0674 63.9678 72.7724 62.4032C72.2056 61.7183 71.5315 61.2187 70.8696 60.9427L70.1135 60.0522L60.3588 47.5743C60.3588 47.5743 55.0024 35.198 53.402 33.8523C51.8015 32.5067 49.8996 33.1843 49.8996 33.1843L48.4049 35.0085L57.48 52.3022L66.8352 61.9095L68.0978 63.2527C68.2467 63.9563 68.6123 64.7129 69.1792 65.3978C70.4742 66.9624 72.3284 67.5604 73.3206 66.7335Z" fill="#FFB6B6"/>
<path d="M47.8386 32.2256C47.8386 32.2256 50.2266 44.6607 52.944 46.4939L58.3589 42.2569C58.3589 42.2569 58.8328 42.2365 57.9509 41.2368C57.0689 40.2371 57.2947 38.0905 57.2947 38.0905C57.2947 38.0905 57.6916 38.6057 56.828 37.8905C55.9645 37.1752 56.7684 32.2563 56.7684 32.2563L47.8386 32.2256Z" fill="#E6E6E6"/>
</g>
<defs>
<clipPath id="clip0_70_2254">
<rect width="141" height="104" fill="white" transform="translate(12.5 11)"/>
</clipPath>
</defs>
</svg>
